<svg width="190" height="209" viewBox="0 0 190 209" fill="none" xmlns="http://www.w3.org/2000/svg">
<path d="M19.3348 120.864C15.3652 134.376 15.6869 148.808 13.8642 162.779C12.6305 172.224 11.7085 182.858 17.6925 190.261L82.1969 189.694C84.3929 186.354 84.2681 181.96 83.206 178.105C82.1439 174.25 80.2518 170.669 79.0888 166.843C74.3688 151.31 81.9307 133.04 73.8642 118.955C73.8642 118.955 67.0048 107.858 50.12 107.858C33.2352 107.858 20.9216 115.458 19.3348 120.864Z" fill="#C68A63"/>
<path d="M83.7169 182.186C83.5769 179.507 82.9677 176.869 82.1906 174.308C81.4048 171.721 80.4134 169.208 79.5506 166.649C78.6878 164.089 77.9108 161.443 77.574 158.746C77.2486 156.155 77.3217 153.499 78.1504 151.002C78.2551 150.682 78.3737 150.365 78.5011 150.05C78.5844 149.847 78.4116 149.603 78.2173 149.545C78.1128 149.518 78.0018 149.532 77.9076 149.585C77.8135 149.638 77.7436 149.726 77.7127 149.829C76.715 152.283 76.4375 154.96 76.6393 157.588C76.8487 160.302 77.5147 162.959 78.3334 165.544C79.152 168.129 80.1422 170.623 80.9823 173.185C81.8072 175.711 82.5199 178.293 82.8012 180.937C83.0736 183.5 82.9273 186.115 82.0607 188.554C81.9573 188.844 81.8438 189.132 81.7202 189.415C81.6691 189.509 81.6557 189.619 81.6826 189.722C81.7096 189.825 81.7749 189.915 81.8652 189.972C82.038 190.073 82.3332 190.028 82.4215 189.825C83.4836 187.426 83.8544 184.804 83.7169 182.186Z" fill="#242424"/>
<path d="M18.6978 189.674C16.7931 188.489 16.1751 186.09 15.7134 184.036C15.0987 181.242 14.6869 178.408 14.481 175.554C14.2769 172.7 14.2285 169.837 14.336 166.977C14.4356 164.088 14.6702 161.205 14.9894 158.332C15.3085 155.459 15.7109 152.635 16.1549 149.799C16.2104 149.447 16.2659 149.093 16.3226 148.741C16.3497 148.636 16.3353 148.525 16.2824 148.431C16.2295 148.337 16.1422 148.267 16.0388 148.236C15.8446 148.181 15.5734 148.301 15.5343 148.52C15.0701 151.424 14.6425 154.329 14.2956 157.257C13.9487 160.186 13.6851 163.118 13.5552 166.06C13.4168 168.973 13.4362 171.891 13.6132 174.801C13.7907 177.715 14.1734 180.613 14.7585 183.473C15.2227 185.707 15.7739 188.272 17.5752 189.847C17.7976 190.04 18.0351 190.216 18.2853 190.372C18.7356 190.654 19.1443 189.949 18.6978 189.674Z" fill="#242424"/>
<path d="M21.0566 156.509C20.8673 156.456 20.5861 156.574 20.552 156.794C19.9484 161.222 19.6697 165.688 19.7182 170.157C19.7334 171.41 19.7754 172.664 19.8444 173.917C19.8721 174.439 20.6857 174.441 20.658 173.917C20.4247 169.518 20.5115 165.107 20.9178 160.72C21.0322 159.481 21.173 158.245 21.3404 157.01C21.3706 156.792 21.2886 156.573 21.0566 156.509Z" fill="#242424"/>
<path d="M78.0356 176.398C76.8045 172.392 75.1256 168.537 73.9992 164.496C73.3786 162.258 72.9346 159.971 72.864 157.646C72.8463 157.123 72.0327 157.121 72.0504 157.646C72.1904 161.83 73.4644 165.854 74.8632 169.756C76.2735 173.698 77.8224 177.625 78.5036 181.777C78.882 184.078 78.9665 186.45 78.5692 188.753C78.5424 188.858 78.557 188.968 78.6098 189.063C78.6627 189.157 78.7498 189.227 78.853 189.258C78.9047 189.273 78.9589 189.277 79.0123 189.271C79.0657 189.264 79.1173 189.247 79.1642 189.221C79.211 189.195 79.2522 189.159 79.2854 189.117C79.3186 189.074 79.3431 189.026 79.3575 188.974C80.0816 184.736 79.2818 180.453 78.0356 176.398Z" fill="#242424"/>
<path d="M71.4058 165.68C70.8502 163.876 70.5413 162.005 70.4875 160.117C70.4724 159.593 69.66 159.592 69.6739 160.117C69.7278 162.078 70.0465 164.021 70.6212 165.896C70.7751 166.396 71.5597 166.183 71.4058 165.68Z" fill="#242424"/>
<path d="M41.5792 165.127C39.4349 166.412 38.1483 170.305 38.3615 173.943C38.5746 177.581 40.1047 180.826 42.0775 182.678C44.0503 184.529 46.4128 185.108 48.6972 184.903C50.963 184.721 53.0769 183.69 54.6169 182.016C56.3525 180.158 57.6845 177.202 57.9381 173.89C58.1916 170.577 57.238 166.986 55.4153 165.356L41.5792 165.127Z" fill="#FAE3D5"/>
<path d="M54.8817 156.085H41.4657V170.216H54.8817V156.085Z" fill="#FAE3D5"/>
<path d="M72.7971 133.621C72.7971 149.131 67.1474 161.704 47.3715 161.704C27.5956 161.704 21.9459 149.131 21.9459 133.621C21.9459 127.433 22.0821 121.065 25.3692 116.425C30.3265 109.429 38.3476 104.883 47.398 104.883C55.9918 104.883 63.6559 108.981 68.6522 115.383C72.4061 120.196 72.7971 126.966 72.7971 133.621Z" fill="#FAE3D5"/>
<path d="M78.1087 136.082C78.1087 133.392 78.0772 127.242 76.2507 121.134C74.6109 115.669 71.4348 110.653 66.5709 107.551C66.3282 107.399 66.0611 107.289 65.7813 107.227C65.225 104.75 63.2964 102.629 60.7925 101.436C57.2607 99.7522 53.3744 98.8443 49.4742 98.6397C42.7636 98.2874 36.0745 100.433 30.9395 104.747C24.5682 108.615 20.1383 115.649 18.2159 122.765C16.5005 129.117 16.3768 135.793 16.6834 142.324C16.7553 143.85 17.975 145.322 19.6047 145.249C21.1184 145.181 22.6018 143.961 22.5248 142.324C22.3987 139.691 22.3419 137.055 22.4378 134.42C22.4815 133.168 22.5656 131.917 22.6901 130.667C22.8199 130.721 22.9541 130.763 23.0912 130.794C28.9679 132.015 34.7501 131.07 40.0025 128.729C40.4995 130.118 42.051 131.208 43.5646 130.681C45.8111 129.891 47.9078 128.726 49.7656 127.235C49.7946 127.289 49.8223 127.345 49.8564 127.397C50.7646 128.807 52.3791 129.164 53.8524 128.445C58.3934 126.215 62.0514 122.086 63.8287 117.313L63.9094 117.43C67.9988 120.029 69.5137 120.668 70.7309 125.232C71.3616 127.621 73.2032 139.296 73.5791 143.268C73.7242 144.796 78.1958 144.731 78.1958 143.268C78.192 141.337 78.1087 138.772 78.1087 136.082Z" fill="#C68A63"/>
<path d="M24.7284 149.107C19.3688 149.978 15.2315 144.529 14.9843 140.227C14.8985 138.159 16.9483 137.296 19.3045 137.209C24.1734 136.956 27.8819 140.905 26.8867 144.035C26.6092 146.058 26.0012 148.829 24.7284 149.107Z" fill="#FAE3D5"/>
<path d="M23.2388 144.97C23.2123 145.222 22.2297 146.1 21.3681 145.712C20.272 144.774 21.633 143.187 20.8308 142.289C19.9756 141.901 18.853 141.217 19.4937 140.8C20.7766 139.968 22.9159 142.351 23.7168 140.421C24.0188 139.691 24.13 138.896 24.0397 138.112C24.6428 138.505 25.1865 138.982 25.6543 139.53C25.5421 141.478 24.3173 143.407 23.2388 144.97Z" fill="#E3B09A"/>
<path d="M70.3298 149.107C75.6881 149.978 79.8255 144.529 80.074 140.227C80.1597 138.16 78.028 136.936 75.6718 136.849C70.8028 136.596 67.1701 140.905 68.1716 144.035C68.4478 146.058 69.0571 148.829 70.3298 149.107Z" fill="#FAE3D5"/>
<path d="M71.8195 144.97C71.846 145.222 72.8286 146.1 73.6902 145.712C74.7863 144.774 73.424 143.187 74.2275 142.289C75.0827 141.901 76.2053 141.217 75.5646 140.8C74.2817 139.968 72.1424 142.351 71.3415 140.421C71.0395 139.691 70.9283 138.896 71.0186 138.112C70.4155 138.505 69.8718 138.982 69.404 139.53C69.515 141.478 70.7411 143.407 71.8195 144.97Z" fill="#E3B09A"/>
<path d="M61.4778 134.013C61.5169 132.693 60.6878 131.598 59.6259 131.566C58.564 131.535 57.6714 132.579 57.6323 133.898C57.5931 135.218 58.4223 136.313 59.4842 136.345C60.5461 136.377 61.4387 135.332 61.4778 134.013Z" fill="#242424"/>
<path d="M38.5602 133.333C38.5993 132.014 37.7701 130.918 36.7082 130.887C35.6463 130.855 34.7538 131.899 34.7146 133.219C34.6755 134.539 35.5046 135.634 36.5666 135.666C37.6285 135.697 38.521 134.653 38.5602 133.333Z" fill="#242424"/>
<path d="M62.5938 130.09C62.3554 130.142 62.0893 129.838 61.7109 129.488C61.6629 129.444 61.6137 129.398 61.5658 129.349C61.5179 129.3 61.4561 129.258 61.4031 129.209C61.2997 129.108 61.1685 129.018 61.0461 128.914C60.4929 128.491 59.8701 128.168 59.2058 127.96C59.0506 127.919 58.903 127.863 58.7605 127.833C58.6899 127.817 58.6192 127.793 58.5511 127.78C58.483 127.768 58.425 127.756 58.3543 127.743C57.8498 127.639 57.4499 127.594 57.3553 127.364C57.3124 127.255 57.3553 127.121 57.5042 126.967C57.5438 126.925 57.5859 126.886 57.6303 126.848C57.683 126.809 57.7387 126.773 57.7968 126.741C57.9344 126.657 58.0824 126.591 58.237 126.545C58.3215 126.519 58.4124 126.494 58.507 126.468C58.6016 126.443 58.7025 126.438 58.8072 126.424C59.0303 126.398 59.2556 126.394 59.4795 126.414C60.5152 126.509 61.472 127.008 62.1435 127.803C62.2878 127.975 62.4146 128.161 62.5219 128.359C62.5721 128.447 62.6176 128.537 62.6582 128.63C62.6935 128.722 62.7237 128.811 62.7515 128.896C62.8027 129.049 62.834 129.208 62.8448 129.369C62.8526 129.434 62.8556 129.5 62.8537 129.566C62.849 129.624 62.8409 129.681 62.8297 129.738C62.7944 129.947 62.7124 130.062 62.5938 130.09Z" fill="#242424"/>
<path d="M38.9165 128.174C38.8092 128.393 38.4195 128.427 37.9073 128.462C37.843 128.462 37.7812 128.472 37.708 128.475C37.6349 128.477 37.568 128.491 37.4961 128.496C37.3523 128.496 37.1985 128.531 37.0408 128.546C36.7242 128.592 36.3849 128.652 36.0317 128.739C35.6785 128.826 35.3556 128.945 35.0554 129.057C34.909 129.12 34.7615 129.171 34.6328 129.234C34.5659 129.264 34.4978 129.288 34.436 129.319C34.3742 129.349 34.3099 129.377 34.2544 129.403C33.7864 129.615 33.4307 129.782 33.2327 129.639C33.1381 129.571 33.1065 129.436 33.1318 129.235C33.1484 129.118 33.1833 129.005 33.2352 128.899C33.2933 128.76 33.3674 128.628 33.4559 128.505C33.5039 128.437 33.5581 128.368 33.6149 128.296C33.6716 128.224 33.741 128.159 33.8116 128.089C33.961 127.941 34.1231 127.807 34.296 127.688C35.1 127.14 36.0698 126.89 37.0383 126.981C37.2473 127.002 37.454 127.042 37.6563 127.098C37.7509 127.126 37.843 127.15 37.9275 127.184C38.012 127.218 38.0928 127.255 38.1684 127.29C38.3054 127.355 38.4349 127.434 38.5544 127.527C38.6506 127.595 38.7357 127.677 38.8067 127.772C38.9316 127.934 38.9669 128.07 38.9165 128.174Z" fill="#242424"/>
<path d="M37.5005 146.49C39.8133 144.174 39.8133 140.42 37.5005 138.105C35.1878 135.79 31.4381 135.79 29.1253 138.105C26.8126 140.42 26.8126 144.174 29.1253 146.49C31.4381 148.805 35.1878 148.805 37.5005 146.49Z" fill="#EDA29C"/>
<path d="M31.6547 140.319L30.6645 142.318C30.6142 142.403 30.5962 142.503 30.614 142.6C30.6353 142.697 30.6937 142.781 30.7768 142.836C30.937 142.929 31.2018 142.91 31.2952 142.723C31.6248 142.057 31.9545 141.39 32.2841 140.724C32.3344 140.64 32.3524 140.54 32.3346 140.443C32.3133 140.346 32.2549 140.261 32.1718 140.207C32.0117 140.113 31.7468 140.132 31.6547 140.319Z" fill="#ED8C8C"/>
<path d="M34.7173 139.314C34.1447 140.703 33.5724 142.092 33.0006 143.481C32.9706 143.576 32.9789 143.678 33.0237 143.767C33.0685 143.855 33.1463 143.923 33.2402 143.955C33.3349 143.985 33.4376 143.976 33.5261 143.931C33.6146 143.886 33.6818 143.808 33.7133 143.713C34.2842 142.324 34.8561 140.935 35.4287 139.546C35.4584 139.452 35.4499 139.349 35.4051 139.261C35.3603 139.173 35.2827 139.106 35.1891 139.074C35.0946 139.044 34.9922 139.053 34.904 139.098C34.8158 139.143 34.7488 139.221 34.7173 139.315V139.314Z" fill="#ED8C8C"/>
<path d="M66.2371 145.935C67.8843 143.106 66.929 139.476 64.1033 137.827C61.2777 136.178 57.6517 137.134 56.0045 139.963C54.3573 142.792 55.3126 146.422 58.1382 148.071C60.9639 149.72 64.5899 148.764 66.2371 145.935Z" fill="#EDA29C"/>
<path d="M59.8415 140.683C59.4337 141.722 59.0258 142.761 58.618 143.799C58.5884 143.894 58.5971 143.996 58.6421 144.085C58.6872 144.173 58.765 144.24 58.8589 144.272C58.9532 144.301 59.0554 144.293 59.1436 144.248C59.2318 144.203 59.2989 144.125 59.3306 144.032C59.7376 142.992 60.1455 141.953 60.5542 140.915C60.5779 140.866 60.5909 140.813 60.5924 140.759C60.5938 140.705 60.5836 140.651 60.5625 140.601C60.5413 140.551 60.5098 140.506 60.4699 140.47C60.43 140.433 60.3827 140.405 60.3313 140.389C60.2798 140.372 60.2253 140.366 60.1716 140.372C60.1178 140.379 60.0659 140.396 60.0195 140.424C59.9731 140.452 59.9332 140.489 59.9025 140.534C59.8717 140.579 59.851 140.629 59.8415 140.683Z" fill="#ED8C8C"/>
<path d="M62.7011 141.121L61.8496 143.207C61.8196 143.302 61.8279 143.404 61.8728 143.493C61.9176 143.581 61.9953 143.649 62.0893 143.681C62.1838 143.71 62.2862 143.702 62.3744 143.656C62.4626 143.611 62.5296 143.533 62.5611 143.439L63.4125 141.353C63.4425 141.259 63.4342 141.156 63.3894 141.067C63.3445 140.979 63.2668 140.911 63.1728 140.88C63.0783 140.85 62.976 140.859 62.8878 140.904C62.7996 140.949 62.7325 141.027 62.7011 141.121Z" fill="#ED8C8C"/>
<path d="M52.1698 145.719C52.299 145.546 52.4165 145.365 52.5217 145.177C53.5194 143.396 53.3416 140.995 51.9881 139.455C48.6534 140.218 45.1927 140.245 41.8466 139.533C41.3106 141.439 41.607 143.583 42.7157 145.223C43.8131 146.843 45.7065 147.917 47.6603 147.936C48.5319 147.94 49.3926 147.742 50.1749 147.357C50.9572 146.972 51.64 146.412 52.1698 145.719Z" fill="#EEF0F5"/>
<path d="M52.7298 139.522C52.7497 139.445 52.7501 139.364 52.731 139.287C52.7119 139.21 52.6739 139.139 52.6205 139.08C52.567 139.021 52.4998 138.977 52.4248 138.951C52.3499 138.924 52.2696 138.917 52.1912 138.93C48.8465 139.528 45.4297 139.606 42.0611 139.162C42.0217 139.157 41.9819 139.157 41.9425 139.162C41.848 139.152 41.7534 139.18 41.6787 139.239C41.6041 139.298 41.5553 139.384 41.5427 139.478C40.9208 142.661 41.8769 146.297 44.9232 147.898C45.596 148.256 46.3358 148.471 47.0957 148.528C47.8555 148.586 48.6191 148.485 49.338 148.232C50.8895 147.662 51.891 146.379 52.6264 144.948C53.5422 143.154 53.5321 141.334 52.7298 139.522ZM52.4498 142.718C52.33 143.674 51.8809 144.548 51.3701 145.353C50.4177 146.853 49.0176 147.768 47.1974 147.655C45.5576 147.551 44.1007 146.512 43.2354 145.147C42.2806 143.641 42.0611 141.815 42.331 140.079C45.5224 140.466 48.7527 140.395 51.9238 139.867C52.3325 140.755 52.5734 141.735 52.4498 142.718Z" fill="#242424"/>
<path d="M51.1443 141.4H49.1917C48.624 141.4 48.6228 142.284 49.1917 142.284H51.1443C51.7132 142.284 51.7144 141.4 51.1443 141.4Z" fill="#242424"/>
<path d="M47.7625 137.003C47.0864 137.086 47.0536 136.238 47.0763 135.764C47.1028 135.196 46.2198 135.197 46.1933 135.764C46.1681 136.293 46.2135 136.855 46.5339 137.298C46.6684 137.496 46.8529 137.655 47.0688 137.759C47.2846 137.862 47.524 137.906 47.7625 137.887C47.8783 137.883 47.9882 137.835 48.0701 137.753C48.152 137.671 48.1999 137.561 48.204 137.445C48.2052 137.228 47.9983 136.973 47.7625 137.003Z" fill="#242424"/>
<path d="M65.0661 104.561C63.2749 102.682 60.9263 101.385 58.5473 100.405C56.3753 99.5196 54.0961 98.9252 51.7687 98.6372C47.0954 98.0574 42.3514 98.6507 37.9641 100.363C35.77 101.222 33.7019 102.373 31.8162 103.787C31.5752 103.969 31.3368 104.156 31.1022 104.345C30.9307 104.483 30.9584 104.777 31.1022 104.92C31.1795 104.994 31.2826 105.036 31.3898 105.036C31.497 105.036 31.6001 104.994 31.6774 104.92C33.4543 103.497 35.4155 102.323 37.5075 101.428C39.6004 100.533 41.7973 99.9055 44.0465 99.559C46.2965 99.2107 48.581 99.142 50.8478 99.3544C53.1 99.5631 55.3154 100.064 57.4385 100.845C58.5136 101.24 59.559 101.713 60.5668 102.258C61.7189 102.859 62.7963 103.594 63.777 104.447C64.0229 104.667 64.2601 104.898 64.4871 105.137C64.8529 105.522 65.4281 104.94 65.0661 104.561Z" fill="#242424"/>
<path d="M28.471 106.532C28.37 106.359 28.0925 106.253 27.9147 106.386C24.6603 108.848 22.2133 112.209 20.5028 115.894C18.5881 120.02 17.6017 124.481 17.0038 128.975C16.643 131.67 16.4185 134.381 16.2003 137.092C16.2001 137.187 16.233 137.278 16.2931 137.351C16.3532 137.424 16.4368 137.473 16.5295 137.49C15.5494 137.985 14.7181 138.783 14.341 139.837C13.7973 141.352 14.428 143.005 15.224 144.302C15.9666 145.495 16.9233 146.54 18.0457 147.384C19.2946 148.333 20.7286 149.009 22.2549 149.368C22.7594 149.487 22.9814 148.703 22.4706 148.583C20.021 148.011 18.0154 146.31 16.5421 144.255C15.7714 143.177 15.0284 141.818 15.1912 140.444C15.335 139.252 16.035 138.59 17.0832 138.118C18.6221 137.425 20.4196 137.692 22.0152 138.005C22.121 138.028 22.2313 138.012 22.3268 137.961C22.3671 137.977 22.4098 137.985 22.4529 137.985C22.5601 137.983 22.6622 137.939 22.7381 137.864C22.814 137.788 22.8578 137.686 22.8603 137.579L23.288 133.55C23.3107 133.331 23.0849 133.142 22.8818 133.142C22.7748 133.147 22.6736 133.192 22.5992 133.269C22.5248 133.347 22.4828 133.449 22.4819 133.557C22.3533 134.77 22.2242 135.984 22.0947 137.2C20.5091 136.893 18.8151 136.671 17.2472 137.2C17.145 137.234 17.0441 137.273 16.9432 137.313C16.9811 137.249 17.004 137.177 17.0101 137.103C17.3885 132.399 17.7846 127.672 18.9021 123.074C19.8658 119.086 21.3946 115.209 23.7774 111.849C25.0432 110.043 26.5771 108.441 28.3259 107.099C28.4189 107.042 28.4861 106.951 28.5131 106.845C28.5402 106.739 28.5251 106.627 28.471 106.532Z" fill="#242424"/>
<path d="M64.67 116.27C64.4972 116.168 64.2046 116.214 64.1138 116.415C63.0403 118.814 61.919 121.242 60.2577 123.292C58.7706 125.126 56.852 126.675 54.5361 127.297C53.1037 127.68 51.5994 127.708 50.1541 127.376C50.1078 127.365 50.06 127.363 50.0128 127.369C50.6297 126.612 51.1969 125.816 51.7106 124.986C52.533 123.668 53.2238 122.272 53.773 120.819C53.8021 120.714 53.7886 120.602 53.7354 120.507C53.6821 120.413 53.5936 120.343 53.4892 120.313C53.3847 120.286 53.2736 120.3 53.1795 120.353C53.0853 120.406 53.0154 120.494 52.9846 120.598C52.099 122.967 50.8045 125.162 49.1601 127.083C47.7171 128.74 45.8011 130.17 43.5079 130.114C42.5144 130.108 41.553 129.762 40.7833 129.133C42.0926 128.533 43.306 127.697 44.2205 126.577C44.294 126.499 44.3349 126.396 44.3349 126.289C44.3349 126.182 44.294 126.079 44.2205 126.001C44.0767 125.858 43.7854 125.831 43.6454 126.001C41.9564 128.062 39.3832 128.978 36.8667 129.56C35.4716 129.883 34.0564 130.129 32.6436 130.365C31.0599 130.651 29.4583 130.825 27.8504 130.887C26.0655 130.934 24.2819 130.754 22.5803 130.189C22.0833 130.023 21.8689 130.81 22.3646 130.974C25.5408 132.03 28.9389 131.77 32.192 131.26C33.6855 131.026 35.1802 130.763 36.6586 130.441C37.7846 130.206 38.8907 129.885 39.9672 129.479C41.6145 131.179 44.2899 131.256 46.3472 130.328C47.6225 129.752 48.7085 128.839 49.6483 127.784C49.6429 127.871 49.6695 127.956 49.723 128.024C49.7766 128.092 49.8532 128.138 49.9384 128.153C51.2567 128.452 52.6216 128.481 53.9516 128.24C55.2816 127.999 56.5495 127.492 57.6795 126.75C59.844 125.337 61.4712 123.266 62.7401 121.041C63.5171 119.677 64.1743 118.25 64.8163 116.819C64.8654 116.726 64.8775 116.618 64.8504 116.516C64.8233 116.414 64.7589 116.326 64.67 116.27Z" fill="#242424"/>
<path d="M72.2219 128.397C72.1046 127.066 71.9103 125.745 71.4285 124.482C71.0052 123.383 70.4178 122.356 69.6865 121.433C68.8725 120.408 67.885 119.534 66.769 118.85C66.3212 118.574 65.9125 119.279 66.3577 119.552C68.2348 120.71 69.7017 122.429 70.5518 124.466C71.0349 125.631 71.2633 126.865 71.3831 128.115C71.5193 129.524 71.6063 130.939 71.7136 132.351L72.0844 137.221C72.087 137.328 72.1306 137.43 72.2062 137.506C72.2818 137.582 72.3836 137.625 72.4906 137.628C72.5981 137.627 72.701 137.584 72.777 137.508C72.8531 137.432 72.8961 137.329 72.8967 137.221C72.6735 134.284 72.4817 131.337 72.2219 128.397Z" fill="#242424"/>
<path d="M60.6374 114.883C60.4482 114.831 60.1682 114.949 60.1329 115.167C59.8179 117.445 59.0585 119.639 57.8977 121.623C57.6328 122.076 58.3354 122.487 58.6003 122.035C59.7993 119.991 60.5862 117.732 60.9162 115.385C60.9418 115.281 60.9272 115.172 60.8755 115.079C60.8238 114.986 60.7387 114.916 60.6374 114.883Z" fill="#242424"/>
<path d="M78.2526 126.391C77.6093 123.429 76.8247 120.491 75.6314 117.699C74.558 115.184 73.1251 112.805 71.2557 110.799C70.232 109.696 69.0708 108.729 67.8008 107.923C67.3555 107.644 66.9481 108.347 67.3896 108.626C69.5655 109.997 71.3604 111.909 72.7706 114.046C74.3284 116.414 75.4195 119.051 76.2369 121.757C76.72 123.354 77.1199 124.977 77.468 126.607C77.5803 127.116 78.3611 126.903 78.2526 126.391Z" fill="#242424"/>
<path d="M80.2998 139.563C80.103 138.805 79.5997 138.137 78.9955 137.643C78.9312 137.59 78.8694 137.541 78.7975 137.49C78.8027 137.47 78.8065 137.45 78.8088 137.43C79.1036 134.479 78.9075 131.5 78.2286 128.614C78.1024 128.109 77.3254 128.32 77.444 128.831C78.0699 131.51 78.2687 134.271 78.0331 137.012C76.816 136.376 75.413 136.192 74.0736 136.494C73.5691 136.61 73.7797 137.394 74.2906 137.278C74.9475 137.133 75.627 137.123 76.2878 137.249C76.9487 137.374 77.5772 137.633 78.1352 138.009C78.665 138.367 79.1557 138.854 79.408 139.45C79.7044 140.154 79.6136 140.966 79.4446 141.69C79.1027 143.151 78.3093 144.456 77.4819 145.688C77.0863 146.315 76.6128 146.889 76.0729 147.397C75.606 147.808 75.0751 148.139 74.5012 148.378C73.1801 148.936 71.703 149 70.3387 148.559C69.8417 148.395 69.6272 149.18 70.123 149.343C71.159 149.672 72.2591 149.747 73.3302 149.562C74.4014 149.376 75.4121 148.935 76.2772 148.276C76.9023 147.775 77.4487 147.182 77.8981 146.518C78.8416 145.187 79.7397 143.74 80.1686 142.148C80.3918 141.319 80.5155 140.406 80.2998 139.563Z" fill="#242424"/>
<path d="M69.1416 150.839C69.0481 150.787 68.938 150.773 68.8344 150.801C68.7309 150.828 68.6416 150.894 68.5854 150.985C66.7021 153.596 64.7066 156.338 61.9001 158.025C61.2222 158.436 60.4998 158.769 59.7469 159.018C59.0468 159.246 58.3304 159.419 57.6303 159.649C56.186 160.111 54.796 160.852 54.2662 162.37C53.6355 164.186 54.5311 168.684 54.6951 168.179C54.9688 167.353 54.9625 166.473 54.9133 165.614C54.854 164.792 54.8844 163.965 55.0041 163.148C55.1302 162.416 55.3623 161.817 55.9426 161.349C56.4559 160.932 57.0892 160.678 57.7085 160.472C58.4174 160.237 59.1439 160.062 59.8528 159.841C60.6124 159.6 61.3449 159.281 62.0388 158.889C63.4541 158.087 64.6953 156.994 65.799 155.811C67.0742 154.436 68.1868 152.919 69.2817 151.4C69.3372 151.307 69.3537 151.196 69.3274 151.091C69.3012 150.986 69.2344 150.895 69.1416 150.839Z" fill="#242424"/>
<path d="M21.0465 207.061C21.1525 199.232 21.5124 191.41 22.1262 183.596C22.3558 180.677 22.6636 177.625 24.1142 175.208C25.9608 172.129 29.2682 170.712 32.4128 169.7C35.314 168.768 38.4561 167.449 41.1731 165.406C40.5424 171.055 41.3383 177.479 45.6031 181.242C46.1555 181.729 46.7799 182.2 47.5103 182.292C48.4563 182.412 49.3557 181.874 50.1125 181.294C54.8805 177.631 55.9337 171.053 54.8817 165.13C59.5943 166.973 65.5593 167.47 69.4936 171.134C71.2116 172.734 72.2219 175.149 72.7151 177.616C73.2083 180.084 75.1559 199.435 75.1559 206.821L21.0465 207.061Z" fill="white"/>
<path d="M73.3345 177.489C72.9245 175.445 73.4997 172.65 71.1321 171.084C67.6646 168.789 63.357 167.385 59.7318 166.375C58.3833 165.996 56.9088 164.964 55.6234 164.431C55.8757 166.439 55.8757 168.487 55.7824 170.475C55.6398 173.705 55.4746 176.915 55.0255 180.115C54.6572 182.781 54.0934 185.455 53.5119 188.085C52.9771 190.503 52.2782 193.482 50.3988 195.246C49.1437 196.423 47.4434 196.541 46.0697 195.513C44.5788 194.398 43.711 192.567 43.0298 190.885C41.0381 185.96 40.2876 180.432 39.9508 175.16C39.7944 172.698 39.7465 170.212 39.9685 167.754C40.0276 166.936 40.1303 166.123 40.2762 165.316C38.0915 166.747 35.3051 167.823 32.2147 169.105C29.1244 170.387 25.5294 171.612 23.568 174.889C22.0871 177.359 21.7415 180.396 21.493 183.553C20.88 191.337 20.5167 199.246 20.4108 207.059L20.4032 207.702L75.7778 207.449V206.818C75.7866 199.5 73.8441 180.035 73.3345 177.489Z" fill="#56546B"/>
<path d="M29.0765 170.292C29.0765 170.292 22.434 170.923 17.7468 180.959C13.0595 190.995 9.54779 195.885 9.54779 201.751C9.54779 203.509 10.6528 207.337 11.9015 207.912C13.9525 208.857 18.607 207.912 25.1725 207.674C25.1725 207.674 30.609 200.969 30.609 195.104C30.6053 195.104 31.8301 169.371 29.0765 170.292Z" fill="#56546B"/>
<path d="M41.2765 165.036C40.66 167.536 40.5868 170.139 41.0618 172.67C41.5369 175.201 42.5491 177.6 44.0301 179.705C44.7692 180.727 45.6598 181.79 46.9047 182.184C48.2986 182.625 49.6798 181.931 50.7633 181.088C52.7903 179.513 54.1047 177.173 54.8073 174.728C55.1832 173.366 55.3562 171.957 55.3207 170.544C55.3017 169.087 55.1491 167.64 55.0432 166.181C55.0163 165.83 54.994 165.479 54.9763 165.127C54.9574 164.723 54.3267 164.72 54.3456 165.127C54.415 166.531 54.5701 167.93 54.6471 169.333C54.7228 170.722 54.7354 172.123 54.4655 173.487C53.995 175.857 52.89 178.208 51.1543 179.912C50.7242 180.341 50.2488 180.722 49.7365 181.049C49.1891 181.391 48.5698 181.669 47.9151 181.694C46.6727 181.739 45.7052 180.821 44.9761 179.917C43.446 178.023 42.4092 175.722 41.8491 173.358C41.2742 170.971 41.2183 168.487 41.6852 166.077C41.7432 165.785 41.8096 165.496 41.8845 165.208C41.9866 164.815 41.3799 164.647 41.2765 165.04V165.036Z" fill="#242424"/>
<path d="M41.0848 165.001L39.6973 166.156C39.6386 166.216 39.6057 166.296 39.6057 166.38C39.6057 166.463 39.6386 166.544 39.6973 166.603C39.7575 166.661 39.8375 166.692 39.9205 166.692C40.0036 166.692 40.0836 166.661 40.1438 166.603L41.5313 165.447C41.5899 165.387 41.6228 165.307 41.6228 165.224C41.6228 165.14 41.5899 165.06 41.5313 165.001C41.4711 164.943 41.3912 164.911 41.3081 164.911C41.225 164.911 41.145 164.943 41.0848 165.001Z" fill="#242424"/>
<path d="M39.8739 165.837C39.2665 170.37 39.2801 174.965 39.9142 179.494C40.2259 181.742 40.6835 183.968 41.2841 186.157C41.5885 187.268 41.9249 188.368 42.2932 189.458C42.6338 190.455 42.9869 191.457 43.4171 192.42C44.1121 193.983 45.1363 195.605 46.8077 196.234C47.0041 196.307 47.2062 196.363 47.4119 196.403C47.4924 196.423 47.5774 196.411 47.6494 196.37C47.7215 196.329 47.775 196.261 47.7991 196.182C47.8205 196.101 47.8096 196.016 47.7685 195.943C47.7275 195.87 47.6597 195.816 47.5796 195.793C45.9032 195.47 44.8651 193.978 44.1638 192.536C43.7499 191.644 43.3868 190.728 43.0765 189.795C42.7031 188.736 42.3617 187.665 42.0523 186.583C41.4373 184.437 40.9591 182.253 40.6206 180.046C40.2869 177.855 40.1003 175.644 40.0618 173.429C40.0213 171.169 40.1326 168.91 40.3948 166.665C40.4276 166.388 40.4621 166.112 40.4982 165.837C40.4979 165.753 40.4646 165.673 40.4055 165.614C40.3464 165.555 40.2664 165.521 40.1829 165.521C40.0999 165.523 40.0208 165.557 39.962 165.615C39.9033 165.674 39.8695 165.753 39.8675 165.837H39.8739Z" fill="#242424"/>
<path d="M39.9167 165.676C38.4031 168.365 36.9878 171.106 35.7428 173.933C34.5092 176.707 33.4637 179.562 32.6133 182.477C32.1323 184.147 31.7249 185.836 31.3911 187.543C31.3767 187.603 31.38 187.666 31.4005 187.725C31.4211 187.783 31.4581 187.834 31.507 187.872C31.5559 187.91 31.6147 187.932 31.6763 187.938C31.7378 187.943 31.7995 187.93 31.854 187.901C32.7398 187.481 33.6467 187.108 34.571 186.782C35.5574 186.421 36.5551 186.083 37.568 185.804C37.9464 185.701 38.3249 185.604 38.7033 185.537L38.8219 185.516C38.9215 185.501 38.7891 185.516 38.8559 185.516C38.9228 185.516 38.982 185.504 39.0439 185.501C39.1057 185.499 39.1397 185.501 39.1876 185.501C39.257 185.501 39.1031 185.485 39.1675 185.501C39.204 185.509 39.2154 185.533 39.1813 185.501C39.1473 185.47 39.1435 185.482 39.1649 185.501C39.1864 185.52 39.194 185.535 39.1221 185.467L39.1309 185.476C39.0992 185.446 39.0764 185.408 39.065 185.366C39.0537 185.324 39.0542 185.279 39.0666 185.237C39.0514 185.307 39.0968 185.179 39.0666 185.26C38.9581 185.494 38.8509 185.729 38.7361 185.961C38.4838 186.485 38.205 187.003 37.9275 187.517C37.5289 188.25 37.1215 188.98 36.7002 189.7C36.6669 189.76 36.6538 189.829 36.6626 189.898C36.6715 189.966 36.7019 190.029 36.7494 190.079C37.6961 191.02 38.7077 191.894 39.7767 192.693C41.1935 193.777 42.7329 194.691 44.3631 195.414C45.3479 195.849 46.3739 196.184 47.4257 196.413C47.5065 196.435 47.5928 196.425 47.6657 196.383C47.7385 196.342 47.792 196.273 47.8142 196.192C47.8365 196.111 47.8257 196.025 47.7843 195.952C47.7429 195.879 47.6743 195.826 47.5935 195.803C45.7935 195.424 44.0919 194.688 42.5089 193.761C41.1371 192.952 39.8425 192.017 38.6415 190.97C38.1453 190.541 37.6656 190.095 37.2022 189.633L37.2514 190.012C37.6298 189.363 37.9982 188.706 38.3589 188.047C38.6528 187.508 38.9429 186.965 39.2167 186.415C39.3428 186.163 39.4614 185.91 39.5749 185.658C39.6569 185.477 39.7591 185.295 39.6506 185.1C39.5244 184.865 39.2217 184.847 38.9846 184.869C38.6238 184.904 38.2664 184.969 37.9162 185.063C36.8806 185.316 35.8627 185.655 34.8573 186.011C33.726 186.397 32.6168 186.844 31.5349 187.353L31.999 187.709C32.5893 184.705 33.4053 181.75 34.4398 178.869C35.4647 176.035 36.6592 173.265 38.0171 170.575C38.7916 169.025 39.6115 167.498 40.4616 165.989C40.6609 165.635 40.1173 165.316 39.9167 165.67V165.676Z" fill="#242424"/>
<path d="M55.4506 164.431C55.7445 166.685 55.8819 168.957 55.8618 171.23C55.8441 173.56 55.6853 175.887 55.3863 178.197C55.0876 180.509 54.6533 182.802 54.0858 185.063C53.5454 187.253 52.8654 189.407 52.0499 191.51C51.7189 192.399 51.2813 193.245 50.7469 194.029C50.255 194.725 49.6041 195.374 48.7994 195.69C48.5899 195.771 48.3732 195.833 48.1523 195.874C48.0719 195.897 48.0038 195.951 47.9626 196.023C47.9213 196.096 47.9101 196.182 47.9315 196.263C47.9553 196.343 48.0091 196.41 48.0814 196.452C48.1538 196.493 48.2393 196.504 48.32 196.484C50.2764 196.105 51.4924 194.309 52.2644 192.612C52.6983 191.625 53.0827 190.616 53.416 189.59C53.786 188.496 54.1224 187.39 54.4251 186.274C55.6619 181.68 56.3508 176.955 56.4774 172.199C56.5387 169.887 56.4413 167.574 56.186 165.276C56.1532 164.993 56.1191 164.711 56.0813 164.43C56.0785 164.347 56.0443 164.268 55.9858 164.21C55.9273 164.151 55.8487 164.117 55.7659 164.114C55.6133 164.114 55.4279 164.261 55.4506 164.43V164.431Z" fill="#242424"/>
<path d="M55.5818 164.756C57.133 167.531 58.482 170.414 59.6182 173.383C60.7747 176.392 61.7565 179.466 62.5585 182.588C63.0042 184.31 63.3973 186.045 63.7379 187.792L64.2008 187.436C63.2413 186.982 62.259 186.579 61.258 186.226C60.2363 185.854 59.202 185.506 58.15 185.226C57.7807 185.123 57.4059 185.041 57.0273 184.981C56.7826 184.947 56.4686 184.89 56.2428 185.026C55.8227 185.279 56.2011 185.817 56.3462 186.119C56.6111 186.672 56.8949 187.215 57.1863 187.76C57.6067 188.546 58.0423 189.323 58.4931 190.093L58.5423 189.714C57.6321 190.623 56.6593 191.467 55.631 192.24C54.2394 193.303 52.7296 194.202 51.1317 194.918C50.1737 195.341 49.1749 195.664 48.151 195.883C47.7537 195.968 47.9214 196.576 48.3188 196.493C50.1591 196.104 51.9112 195.345 53.5321 194.398C54.9524 193.56 56.2922 192.593 57.5344 191.509C58.039 191.075 58.5208 190.625 58.9875 190.159C59.0352 190.109 59.0657 190.045 59.0746 189.977C59.0835 189.909 59.0702 189.84 59.0367 189.78C58.6848 189.179 58.343 188.57 58.0074 187.959C57.7249 187.444 57.4474 186.926 57.1825 186.403C57.0564 186.15 56.9302 185.91 56.8179 185.66C56.7688 185.554 56.7208 185.446 56.6716 185.34C56.6224 185.234 56.6817 185.386 56.6716 185.324C56.6799 185.363 56.6799 185.403 56.6716 185.442C56.6716 185.462 56.5972 185.568 56.6123 185.547C56.5367 185.619 56.5505 185.591 56.5833 185.575C56.4849 185.626 56.5228 185.6 56.5569 185.591C56.6351 185.568 56.4774 185.591 56.548 185.591C56.6554 185.59 56.7628 185.595 56.8697 185.605C56.9554 185.612 56.8116 185.593 56.9138 185.605L57.0198 185.623C57.1068 185.638 57.1926 185.654 57.2721 185.672C57.4638 185.712 57.6505 185.759 57.8447 185.808C58.8412 186.061 59.8213 186.389 60.79 186.735C61.8423 187.096 62.874 187.515 63.8804 187.989C63.9349 188.018 63.9966 188.031 64.0581 188.026C64.1197 188.021 64.1785 187.998 64.2274 187.96C64.2763 187.923 64.3133 187.871 64.3339 187.813C64.3544 187.755 64.3577 187.692 64.3433 187.632C63.7292 184.479 62.943 181.363 61.9883 178.297C61.0304 175.203 59.8799 172.171 58.5435 169.221C57.8031 167.597 56.9996 166.001 56.1229 164.445C55.9236 164.091 55.3787 164.41 55.578 164.763L55.5818 164.756Z" fill="#242424"/>
<path d="M27.9185 195.802C27.387 198.14 26.9317 200.492 26.5524 202.859C26.4439 203.532 26.3426 204.206 26.2484 204.879C26.2286 204.96 26.2403 205.045 26.2811 205.117C26.3219 205.19 26.3887 205.244 26.4679 205.268C26.5487 205.29 26.6348 205.279 26.7075 205.238C26.7802 205.196 26.8337 205.128 26.8564 205.047C27.1928 202.674 27.6044 200.314 28.0913 197.968C28.2301 197.3 28.3751 196.634 28.5265 195.969C28.616 195.575 28.0081 195.406 27.9185 195.802Z" fill="#242424"/>
<path d="M185.949 60.0505C183.632 65.5855 180.06 70.5862 175.708 74.6992C171.08 79.0749 165.507 82.4024 159.675 84.9104C153.657 87.4941 147.28 89.2039 140.854 90.3998C134.509 91.5831 128.015 91.9152 121.711 93.3043C118.676 93.9698 115.675 94.946 112.967 96.4904C110.29 98.0197 107.937 100.131 105.777 102.308C101.418 106.689 97.727 111.712 93.0851 115.82C92.5007 116.336 91.9024 116.831 91.2902 117.308C92.6361 114.414 93.9668 111.499 94.7224 108.389C95.2227 106.335 95.4597 104.227 95.4275 102.114C95.401 100.619 95.4124 98.891 94.8397 97.4804C94.1964 95.8931 92.8101 94.7224 91.4479 93.7589C89.5331 92.4052 87.4114 91.3596 85.2835 90.3771C79.6249 87.7643 73.757 85.6302 68.0329 83.1689C62.117 80.6244 56.1494 77.8323 51.0043 73.8986C48.513 71.9918 46.288 69.7629 44.5561 67.135C42.389 63.8516 41.0015 60.1099 40.3305 56.2356C38.9568 48.3038 40.5752 39.8897 44.2735 32.7889C48.1989 25.2549 54.6269 19.2565 61.7966 14.8405C69.2602 10.2413 77.6067 7.21935 86.111 5.21021C105.812 0.601646 126.356 1.03769 145.845 6.47808C148.199 7.13727 150.53 7.86844 152.838 8.67159C163.697 12.4676 174.568 18.2223 181.795 27.4333C185.274 31.867 187.711 37.1405 188.473 42.7474C189.273 48.6132 188.227 54.6192 185.949 60.0505Z" fill="white"/>
<path d="M189.993 46.1077C189.876 40.3076 188.064 34.6527 184.975 29.7606C178.725 19.8639 168.155 13.344 157.515 9.07312C156.082 8.49601 154.633 7.96311 153.175 7.45419C134.002 0.826052 113.479 -0.899897 93.4711 2.43323C84.5052 3.92841 75.6301 6.39342 67.416 10.3334C59.6157 14.0751 52.3943 19.2653 47.0549 26.1401C42.0483 32.5912 39.1178 40.4129 38.6516 48.569C38.2265 56.3921 40.3468 64.4022 45.463 70.4384C49.4679 75.1563 55.0709 78.3942 60.5428 81.1105C66.4889 84.0604 72.6937 86.4396 78.8328 88.9589C81.4502 90.0335 84.065 91.1309 86.5966 92.3975C88.4887 93.3434 90.4224 94.3726 92.0054 95.7907C92.5832 96.28 93.0752 96.8626 93.461 97.5145C94.0236 98.5247 94.0551 99.9227 94.122 101.125C94.3604 105.41 93.3349 109.487 91.6635 113.403C90.8727 115.256 89.9922 117.065 89.1584 118.903C88.9226 119.422 89.446 120.154 90.0212 119.767C95.3064 116.203 99.31 111.243 103.526 106.541C105.645 104.18 107.845 101.878 110.309 99.8734C112.843 97.8213 115.752 96.2827 118.873 95.3437C125.166 93.4128 131.856 93.178 138.321 92.121C144.92 91.0425 151.468 89.4779 157.716 87.0697C163.77 84.731 169.549 81.5979 174.542 77.4294C179.21 73.5393 183.044 68.7442 185.813 63.3326C188.512 58.0136 190.119 52.0897 189.993 46.1077ZM185.949 60.0505C183.632 65.5854 180.06 70.5862 175.708 74.6992C171.08 79.0748 165.507 82.4024 159.675 84.9103C153.657 87.494 147.28 89.2039 140.854 90.3998C134.509 91.583 128.015 91.9151 121.711 93.3042C118.676 93.9697 115.675 94.9459 112.967 96.4903C110.29 98.0196 107.937 100.131 105.777 102.308C101.418 106.689 97.727 111.712 93.0851 115.82C92.5007 116.336 91.9024 116.831 91.2902 117.308C92.6361 114.413 93.9668 111.499 94.7224 108.389C95.2227 106.335 95.4597 104.227 95.4275 102.114C95.401 100.618 95.4124 98.8909 94.8397 97.4804C94.1964 95.893 92.8101 94.7224 91.4478 93.7589C89.5331 92.4051 87.4114 91.3595 85.2835 90.377C79.6249 87.7643 73.757 85.6301 68.0329 83.1689C62.117 80.6243 56.1494 77.8322 51.0042 73.8985C48.513 71.9917 46.288 69.7628 44.5561 67.1349C42.389 63.8516 41.0015 60.1099 40.3305 56.2355C38.9568 48.3038 40.5752 39.8896 44.2735 32.7888C48.1989 25.2548 54.6269 19.2565 61.7966 14.8404C69.2602 10.2412 77.6067 7.21931 86.1109 5.21017C105.812 0.6016 126.356 1.03765 145.845 6.47803C148.199 7.13722 150.53 7.86839 152.838 8.67155C163.697 12.4676 174.568 18.2222 181.795 27.4332C185.274 31.867 187.711 37.1405 188.473 42.7474C189.273 48.6132 188.227 54.6191 185.949 60.0505Z" fill="#242424"/>
<path d="M38.0512 159.949C36.1485 159.571 34.3142 158.906 32.6108 157.977C29.2392 156.129 26.4376 153.215 25.2103 149.516C25.0312 148.979 24.1785 149.209 24.3589 149.751C25.5194 153.244 27.9803 156.105 31.0543 158.075C32.5981 159.059 34.2706 159.824 36.0241 160.348C36.9079 160.615 37.8096 160.817 38.7222 160.955C39.6695 161.099 41.4392 161.191 41.3711 162.533C41.3459 163.101 42.2288 163.1 42.2541 162.533C42.3625 160.307 39.5951 160.263 38.0512 159.949Z" fill="#242424"/>
<path d="M40.8085 164.48C38.755 166.828 35.7996 167.853 32.877 168.648C29.9279 169.456 26.8551 170.077 24.1734 171.601C20.9822 173.411 19.0283 176.526 17.4112 179.714C15.5111 183.475 13.829 187.342 12.3732 191.296C10.8344 195.464 8.86912 200.242 10.1721 204.725C10.3311 205.271 11.1812 205.038 11.0236 204.49C9.86309 200.496 11.518 196.282 12.8563 192.545C14.2727 188.593 15.9152 184.727 17.7757 180.964C19.3651 177.748 21.1625 174.439 24.3349 172.536C26.9396 170.97 29.9758 170.353 32.8744 169.57C36.0191 168.72 39.2381 167.627 41.4518 165.1C41.805 164.68 41.1831 164.052 40.8085 164.48Z" fill="#242424"/>
<path d="M74.9869 189.7C74.9024 189.139 74.0509 189.378 74.1354 189.935C74.9913 195.625 75.1527 201.397 74.616 207.126C74.5631 207.693 75.4473 207.689 75.499 207.126C76.0359 201.318 75.8639 195.466 74.9869 189.7Z" fill="#242424"/>
<path d="M104.662 145.859C104.396 144.288 105.389 142.771 106.554 141.692C107.72 140.612 109.113 139.748 110.066 138.473C110.371 138.066 110.631 137.608 110.703 137.104C110.775 136.6 110.63 136.044 110.241 135.715C110.103 135.602 109.939 135.524 109.764 135.49C109.883 135.371 109.993 135.245 110.095 135.111C110.622 134.424 110.876 133.457 110.497 132.678C110.194 132.054 109.535 131.655 108.857 131.541C108.458 131.477 108.05 131.481 107.652 131.554C108.053 131.003 108.353 130.399 108.329 129.731C108.319 129.393 108.223 129.062 108.05 128.771C107.878 128.479 107.634 128.236 107.342 128.065C107.05 127.893 106.72 127.798 106.381 127.789C106.043 127.781 105.708 127.858 105.408 128.014C103.346 127.18 101.069 127.042 98.9215 127.621C97.4255 128.035 95.9144 128.933 95.4326 130.41C95.0869 131.47 95.3342 132.622 95.5839 133.708C96.2146 136.423 97.4848 139.067 97.4546 141.853C97.4419 143.173 104.662 145.859 104.662 145.859Z" fill="#FAE3D5"/>
<path d="M100.92 136.418C101.228 137.297 101.598 138.153 102.026 138.98C102.22 139.34 102.44 139.685 102.684 140.013C102.921 140.333 103.189 140.645 103.546 140.84C103.721 140.945 103.92 141.003 104.123 141.009C104.327 141.015 104.529 140.969 104.71 140.875C104.861 140.782 104.992 140.66 105.094 140.515C105.196 140.37 105.267 140.205 105.303 140.031C105.492 139.182 104.948 138.504 104.665 137.758C104.376 136.989 104.273 136.163 104.366 135.347C104.462 134.485 104.849 133.706 105.152 132.897C105.278 132.558 105.381 132.154 105.162 131.828C104.887 131.42 104.392 131.511 103.99 131.632C102.541 132.073 101.301 133.025 100.5 134.31C100.378 134.499 100.725 135.9 100.92 136.418Z" fill="#E3B09A"/>
<path d="M105.115 129.406C105.419 125.972 105.259 121.785 105.563 118.351C105.612 117.792 105.659 117.207 105.456 116.683C105.252 116.159 104.718 115.717 104.164 115.815C103.451 115.942 103.155 116.791 103.015 117.501C102.271 121.121 101.696 124.77 101.292 128.449L105.115 129.406Z" fill="#FAE3D5"/>
<path d="M97.5175 138.834C97.7702 139.796 97.8375 140.798 97.7156 141.785C97.7133 141.884 97.6724 141.978 97.6017 142.047C97.531 142.116 97.436 142.155 97.3371 142.155C97.153 142.155 96.9423 141.978 96.9676 141.776C97.0865 140.856 97.0278 139.921 96.7948 139.023C96.6737 138.559 97.3964 138.368 97.5175 138.834Z" fill="#242424"/>
<path d="M95.6419 128.802C96.2222 128.171 97.0496 127.792 97.8632 127.571C98.9467 127.277 100.066 127.27 101.177 127.388C101.13 127.328 101.109 127.253 101.118 127.178C101.365 125.47 101.611 123.762 101.857 122.055L102.224 119.512C102.35 118.668 102.446 117.819 102.592 116.986C102.718 116.279 103.025 115.522 103.727 115.218C104.467 114.895 105.241 115.276 105.667 115.914C106.094 116.551 106.161 117.429 106.192 118.187C106.212 119.013 106.181 119.841 106.098 120.663C105.942 122.593 105.786 124.522 105.628 126.452C105.626 126.551 105.585 126.644 105.514 126.713C105.443 126.782 105.349 126.821 105.25 126.821C105.151 126.818 105.058 126.777 104.989 126.706C104.92 126.635 104.882 126.541 104.882 126.442L105.269 121.653C105.333 120.867 105.409 120.079 105.442 119.289C105.491 118.548 105.449 117.803 105.315 117.072C105.207 116.555 104.902 115.809 104.252 115.839C103.603 115.87 103.401 116.658 103.31 117.16C103.174 117.918 103.085 118.689 102.976 119.452L102.635 121.811L101.859 127.192C101.847 127.293 101.803 127.388 101.733 127.462C102.312 127.543 102.887 127.652 103.452 127.764C103.865 127.846 104.319 127.899 104.675 128.143C104.96 128.343 105.169 128.634 105.268 128.969C105.478 129.647 105.275 130.432 104.836 130.974C104.247 131.703 103.346 132.041 102.527 132.431C101.814 132.771 101.02 133.241 100.82 134.063C100.705 134.529 99.9874 134.323 100.102 133.856C100.285 133.111 100.844 132.558 101.472 132.156C102.1 131.755 102.825 131.517 103.473 131.146C104.016 130.829 104.491 130.388 104.585 129.777C104.635 129.52 104.599 129.254 104.483 129.019C104.349 128.777 104.121 128.675 103.821 128.605C102.986 128.41 102.141 128.263 101.289 128.163C100.447 128.049 99.5942 128.049 98.7525 128.163C97.9755 128.289 97.172 128.528 96.5375 129.009C96.2467 129.227 96.0091 129.508 95.8428 129.832C95.6765 130.155 95.5858 130.512 95.5776 130.876C95.5347 131.832 95.8084 132.793 96.0431 133.709C96.3054 134.737 96.6115 135.752 96.9613 136.753C96.9853 136.849 96.9709 136.95 96.9212 137.036C96.8715 137.121 96.7903 137.184 96.6952 137.21C96.5994 137.234 96.498 137.219 96.4127 137.17C96.3274 137.12 96.2649 137.039 96.2386 136.943C95.9064 135.987 95.6121 135.019 95.3556 134.039C95.1197 133.127 94.8674 132.188 94.8296 131.242C94.7943 130.335 95.0239 129.466 95.6419 128.802Z" fill="#242424"/>
<path d="M102.119 132.972C102.245 132.508 102.966 132.719 102.837 133.178C102.766 133.43 103.276 133.403 103.412 133.375C103.797 133.292 104.174 133.174 104.537 133.022C105.268 132.71 105.969 132.333 106.632 131.896C107.215 131.527 107.911 131.147 108.135 130.446C108.233 130.136 108.241 129.803 108.157 129.488C108.074 129.174 107.902 128.889 107.663 128.668C107.046 128.082 106.14 128.1 105.358 128.257C104.889 128.35 104.696 127.625 105.168 127.534C106.128 127.341 107.186 127.341 107.99 127.971C108.352 128.25 108.631 128.624 108.795 129.051C108.958 129.479 109.001 129.943 108.917 130.393C108.862 130.687 108.748 130.966 108.58 131.213C108.976 131.237 109.361 131.357 109.702 131.561C110.043 131.766 110.33 132.049 110.539 132.387C110.784 132.805 110.906 133.283 110.892 133.767C110.879 134.251 110.729 134.722 110.461 135.125C110.376 135.254 110.284 135.377 110.184 135.495C110.423 135.623 110.624 135.812 110.766 136.043C110.908 136.274 110.986 136.538 110.992 136.81C111.021 137.637 110.432 138.348 109.927 138.94C109.408 139.554 108.825 140.11 108.188 140.599C107.594 141.054 106.856 141.652 106.066 141.634C105.276 141.615 104.523 140.991 104.407 140.199C104.384 140.103 104.398 140.002 104.447 139.917C104.497 139.832 104.578 139.77 104.672 139.743C104.85 139.696 105.1 139.808 105.129 140.008C105.159 140.229 105.26 140.433 105.417 140.591C105.574 140.748 105.778 140.85 105.998 140.881C106.282 140.915 106.548 140.79 106.788 140.652C107.064 140.491 107.331 140.314 107.588 140.123C108.113 139.734 108.6 139.295 109.043 138.814C109.449 138.378 109.918 137.888 110.143 137.326C110.204 137.198 110.238 137.059 110.243 136.917C110.248 136.775 110.223 136.633 110.171 136.501C110.133 136.396 110.065 136.303 109.975 136.236C109.886 136.168 109.778 136.129 109.666 136.123C109.63 136.123 109.594 136.119 109.56 136.109C109.183 136.416 108.787 136.7 108.374 136.957L106.861 137.932C106.42 138.214 105.965 138.514 105.449 138.634C105.179 138.701 104.897 138.706 104.625 138.647C104.353 138.589 104.098 138.469 103.879 138.297C103.66 138.126 103.484 137.906 103.362 137.655C103.241 137.405 103.178 137.13 103.179 136.851C103.179 136.37 103.936 136.378 103.925 136.86C103.927 137.023 103.965 137.184 104.036 137.331C104.108 137.477 104.212 137.606 104.34 137.707C104.468 137.808 104.617 137.879 104.776 137.914C104.935 137.95 105.1 137.949 105.259 137.912C105.688 137.812 106.065 137.557 106.431 137.322L107.706 136.503C108.841 135.774 110.617 134.698 110.048 133.077C109.904 132.691 109.628 132.369 109.27 132.166C108.912 131.964 108.493 131.895 108.089 131.972C108.013 131.987 107.935 131.98 107.862 131.953C107.643 132.126 107.407 132.282 107.17 132.434C106.354 132.979 105.484 133.437 104.574 133.8C104.069 133.991 103.476 134.213 102.934 134.121C102.392 134.029 101.965 133.525 102.119 132.972Z" fill="#242424"/>
<path d="M106.402 142.284C105.711 143.251 105.271 144.375 105.121 145.555C105.117 145.653 105.076 145.746 105.005 145.814C104.935 145.883 104.841 145.922 104.743 145.923C104.644 145.921 104.55 145.88 104.481 145.809C104.412 145.739 104.373 145.643 104.373 145.545C104.526 144.233 105.003 142.98 105.761 141.899C105.813 141.815 105.896 141.755 105.991 141.732C106.087 141.708 106.188 141.723 106.273 141.772C106.356 141.825 106.416 141.907 106.44 142.003C106.463 142.099 106.449 142.2 106.399 142.285L106.402 142.284Z" fill="#242424"/>
<path d="M69.0269 190.342C78.6588 190.08 84.1357 189.169 94.8044 186.763C100.985 185.374 105.852 179.857 106.926 172.725C108.001 165.594 109.478 151.545 108.528 142.019L94.7792 142.885L93.6868 157.716C92.5806 166.176 91.1502 168.025 87.1642 169.15C82.4807 170.473 72.8173 169.15 64.9375 168.739L69.0269 190.342Z" fill="#56546B"/>
<path d="M93.8962 142.885C93.6876 147.136 93.3513 151.377 92.8871 155.609C92.6575 157.684 92.4141 159.761 92.1 161.825C91.8565 163.422 91.526 165.097 90.6216 166.466C89.5961 168.014 87.8996 168.626 86.1337 168.877C84.1382 169.162 82.0897 169.231 80.079 169.256C75.9364 169.317 71.7974 168.984 67.7175 168.262C65.516 167.876 63.3366 167.373 61.1886 166.755C59.2827 166.2 57.3805 165.465 56.017 163.963C55.6386 163.541 55.0079 164.167 55.3863 164.594C56.5758 165.902 58.1613 166.692 59.8125 167.256C61.7701 167.927 63.811 168.393 65.8355 168.808C70.0904 169.676 74.4198 170.127 78.7622 170.153C80.9352 170.169 83.1076 170.074 85.2709 169.866C87.0242 169.693 88.8444 169.375 90.2394 168.213C91.5084 167.156 92.1832 165.579 92.5743 164.011C93.046 162.116 93.2264 160.134 93.4661 158.202C94.0942 153.118 94.5328 148.014 94.7817 142.893C94.8082 142.317 93.9239 142.318 93.8962 142.885Z" fill="#242424"/>
<path d="M103.734 179.465C103.006 180.982 101.998 182.347 100.762 183.487C99.3567 184.761 97.7068 185.538 95.8841 186.022C93.8659 186.557 91.8187 186.985 89.7879 187.459C87.757 187.932 85.696 188.44 83.6361 188.864C81.2395 189.357 78.8139 189.684 76.3643 189.526C75.7967 189.489 75.7992 190.373 76.3643 190.41C80.7892 190.695 85.146 189.448 89.4145 188.452C91.6106 187.947 93.8293 187.474 96.0065 186.903C97.7913 186.437 99.4311 185.718 100.873 184.553C102.414 183.306 103.624 181.684 104.497 179.912C104.747 179.403 103.985 178.955 103.734 179.465Z" fill="#242424"/>
<path d="M108.878 142.111C108.846 141.545 107.963 141.541 107.995 142.111C108.528 151.661 107.978 161.24 106.355 170.666C105.898 173.31 105.357 175.938 104.733 178.548C104.607 179.101 105.452 179.337 105.584 178.783C107.813 169.443 108.983 159.88 109.071 150.277C109.094 147.553 109.03 144.831 108.878 142.111Z" fill="#242424"/>
<path d="M134.505 207.612H1.20626C0.637382 207.612 0.637382 208.496 1.20626 208.496H134.505C135.074 208.496 135.074 207.612 134.505 207.612Z" fill="#242424"/>
<path d="M54.6471 41.1436H50.1414L49.3127 43.4432H47.8861L51.6198 33.1626H53.1763L56.8948 43.4432H55.472L54.6471 41.1436ZM54.2611 40.045L52.3942 34.8232L50.5274 40.045H54.2611Z" fill="black"/>
<path d="M64.8819 36.0671C65.495 36.6657 65.8011 37.5286 65.8002 38.6559V43.4483H64.4669V38.8453C64.4669 38.0346 64.2647 37.4141 63.8602 36.9839C63.4557 36.5537 62.9024 36.3382 62.2002 36.3374C61.4888 36.3374 60.9233 36.56 60.5037 37.0054C60.0841 37.4507 59.8738 38.0986 59.873 38.9489V43.4445H58.5246V35.3094H59.873V36.4662C60.1407 36.0506 60.5178 35.7172 60.9628 35.5026C61.434 35.2725 61.9522 35.1553 62.4765 35.1604C63.4679 35.1629 64.2697 35.4652 64.8819 36.0671Z" fill="black"/>
<path d="M75.0032 35.3094L70.1129 47.2658H68.7253L70.3248 43.3511L67.0452 35.3107H68.5425L71.0904 41.8976L73.6132 35.3107L75.0032 35.3094Z" fill="black"/>
<path d="M80.3515 33.7259C80.2211 33.597 80.1321 33.432 80.0962 33.2521C80.0602 33.0722 80.0788 32.8856 80.1496 32.7164C80.2204 32.5472 80.3402 32.4031 80.4935 32.3026C80.6468 32.2021 80.8267 32.1498 81.0099 32.1524C81.1278 32.1503 81.2448 32.1729 81.3534 32.2187C81.4621 32.2646 81.5599 32.3328 81.6406 32.4189C81.8074 32.5952 81.9003 32.8289 81.9003 33.0718C81.9003 33.3146 81.8074 33.5483 81.6406 33.7246C81.5599 33.8107 81.4621 33.8789 81.3534 33.9248C81.2448 33.9707 81.1278 33.9932 81.0099 33.9911C80.8878 33.9949 80.7662 33.9733 80.6529 33.9276C80.5396 33.882 80.4369 33.8133 80.3515 33.7259ZM81.6557 35.3095V43.4395H80.3073V35.3095H81.6557Z" fill="black"/>
<path d="M83.9527 37.1595C84.2696 36.5521 84.7503 36.0458 85.3402 35.6984C85.9404 35.3507 86.6235 35.1726 87.3168 35.1831C87.9329 35.1784 88.5402 35.3291 89.0828 35.6213C89.5946 35.8836 90.0252 36.281 90.3277 36.7705V32.4643H91.6913V43.4432H90.3277V41.9152C90.0474 42.4129 89.6377 42.8253 89.142 43.1086C88.584 43.4294 87.9488 43.591 87.3055 43.5758C86.6132 43.5853 85.9321 43.3999 85.34 43.0406C84.7478 42.6814 84.2685 42.1628 83.9565 41.5439C83.6113 40.8643 83.438 40.1102 83.452 39.3479C83.434 38.588 83.6062 37.8357 83.9527 37.1595ZM89.9544 37.7605C89.7252 37.3252 89.3786 36.9629 88.9541 36.7149C88.5323 36.4778 88.057 36.3526 87.5732 36.3512C87.0895 36.3499 86.6135 36.4725 86.1904 36.7074C85.7679 36.9522 85.4236 37.3122 85.1977 37.7454C84.9413 38.2398 84.8138 38.791 84.8269 39.3479C84.8131 39.9121 84.9406 40.4709 85.1977 40.9731C85.4231 41.4107 85.7672 41.7757 86.1904 42.0263C86.6085 42.2692 87.0845 42.3945 87.5678 42.3888C88.0544 42.3942 88.5335 42.2691 88.9554 42.0263C89.3813 41.7768 89.7281 41.4116 89.9556 40.9731C90.2106 40.4756 90.3377 39.9222 90.3252 39.3631C90.3379 38.8062 90.2104 38.2551 89.9544 37.7605Z" fill="black"/>
<path d="M101.333 39.8821H94.8434C94.8922 40.6836 95.1663 41.3091 95.6659 41.7586C96.162 42.2084 96.8118 42.4503 97.481 42.4342C97.9979 42.4529 98.5079 42.3104 98.9404 42.0264C99.3256 41.7617 99.6143 41.3787 99.7628 40.9353H101.216C101.009 41.7004 100.55 42.3727 99.9117 42.8421C99.2599 43.3304 98.4497 43.575 97.481 43.5758C96.7582 43.5879 96.0451 43.4089 95.4136 43.0568C94.8067 42.7107 94.311 42.1986 93.9844 41.5806C93.6277 40.897 93.4494 40.1342 93.466 39.3631C93.4492 38.596 93.6226 37.8367 93.9706 37.1531C94.2895 36.5358 94.7831 36.0263 95.3896 35.6883C96.0329 35.3409 96.7553 35.1668 97.486 35.1832C98.2001 35.1688 98.9053 35.343 99.5307 35.6883C100.11 36.0114 100.586 36.4933 100.902 37.0774C101.229 37.6908 101.395 38.3774 101.384 39.0726C101.381 39.3431 101.364 39.6133 101.333 39.8821ZM99.6442 37.4562C99.4229 37.0916 99.1015 36.7984 98.7184 36.6114C98.3146 36.4152 97.8705 36.3162 97.4217 36.3222C96.7792 36.3075 96.1557 36.5413 95.681 36.9751C95.2017 37.4095 94.9275 38.0127 94.8586 38.7847H99.9848C99.9974 38.3187 99.8794 37.8585 99.6442 37.4562Z" fill="black"/>
<path d="M103.156 37.1595C103.473 36.5526 103.954 36.0465 104.543 35.6984C105.139 35.3505 105.817 35.1711 106.506 35.1794C107.154 35.1636 107.794 35.3224 108.359 35.6391C108.847 35.9112 109.252 36.3116 109.53 36.7971V35.3095H110.893V43.4395H109.53V41.9241C109.244 42.4169 108.832 42.8242 108.336 43.1036C107.775 43.4238 107.138 43.5853 106.492 43.5708C105.803 43.5797 105.125 43.3946 104.536 43.0366C103.947 42.6742 103.47 42.1559 103.157 41.5389C102.813 40.8591 102.639 40.1052 102.653 39.3429C102.637 38.5846 102.81 37.8343 103.156 37.1595ZM109.158 37.7606C108.929 37.325 108.582 36.9626 108.157 36.715C107.736 36.4778 107.26 36.3526 106.776 36.3513C106.293 36.35 105.817 36.4725 105.394 36.7074C104.971 36.9525 104.627 37.3124 104.401 37.7454C104.144 38.2406 104.017 38.7927 104.03 39.3505C104.016 39.9147 104.144 40.4734 104.401 40.9757C104.627 41.413 104.971 41.7779 105.394 42.0289C105.812 42.272 106.289 42.3972 106.772 42.3913C107.259 42.3969 107.738 42.2717 108.16 42.0289C108.586 41.7797 108.933 41.4145 109.16 40.9757C109.416 40.4785 109.544 39.9249 109.531 39.3656C109.544 38.8076 109.415 38.2554 109.158 37.7606Z" fill="black"/>
<path d="M127.947 35.3094L125.41 43.4432H124.023L122.067 36.989L120.113 43.4432H118.725L116.167 35.3094H117.544L119.411 42.1287L121.43 35.3094H122.807L124.78 42.1527L126.614 35.3094H127.947Z" fill="black"/>
<path d="M134.97 35.562C135.469 35.8275 135.875 36.239 136.133 36.7415C136.431 37.3342 136.576 37.9917 136.556 38.6546V43.447H135.223V38.8453C135.223 38.0346 135.02 37.4141 134.615 36.9839C134.209 36.5537 133.656 36.3382 132.955 36.3374C132.245 36.3374 131.68 36.56 131.258 37.0054C130.837 37.4507 130.627 38.0986 130.628 38.9489V43.4445H129.279V32.4643H130.628V36.47C130.898 36.0516 131.28 35.7177 131.731 35.5064C132.224 35.2734 132.764 35.1563 133.309 35.1642C133.887 35.1567 134.458 35.2934 134.97 35.562Z" fill="black"/>
<path d="M138.763 37.1595C139.081 36.5526 139.562 36.0465 140.151 35.6984C140.746 35.3505 141.425 35.1711 142.114 35.1794C142.761 35.1636 143.401 35.3224 143.967 35.6391C144.455 35.9112 144.86 36.3116 145.137 36.7971V35.3095H146.501V43.4395H145.137V41.9241C144.852 42.4169 144.44 42.8242 143.944 43.1036C143.383 43.4238 142.746 43.5853 142.1 43.5708C141.411 43.5797 140.733 43.3946 140.143 43.0366C139.555 42.6742 139.078 42.1559 138.765 41.5389C138.42 40.8591 138.247 40.1052 138.26 39.3429C138.245 38.5846 138.417 37.8343 138.763 37.1595ZM144.765 37.7606C144.536 37.325 144.19 36.9626 143.765 36.715C143.343 36.4778 142.868 36.3526 142.384 36.3513C141.9 36.35 141.424 36.4725 141.001 36.7074C140.579 36.9525 140.235 37.3124 140.008 37.7454C139.752 38.2398 139.625 38.791 139.638 39.3479C139.624 39.9122 139.751 40.4709 140.008 40.9732C140.234 41.4104 140.578 41.7754 141.001 42.0264C141.42 42.2694 141.896 42.3947 142.38 42.3888C142.866 42.3943 143.346 42.2692 143.767 42.0264C144.194 41.7772 144.541 41.412 144.768 40.9732C145.024 40.4759 145.151 39.9224 145.139 39.3631C145.151 38.806 145.023 38.2547 144.765 37.7606Z" fill="black"/>
<path d="M150.426 36.4258V41.2169C150.426 41.6135 150.51 41.893 150.678 42.0554C150.847 42.2179 151.138 42.2996 151.553 42.3004H152.545V43.437H151.331C150.58 43.437 150.017 43.2635 149.642 42.9167C149.267 42.5698 149.079 42.0011 149.079 41.2106V36.4258H148.027V35.3095H149.079V33.2662H150.427V35.3095H152.545V36.422L150.426 36.4258Z" fill="black"/>
<path d="M159.775 36.4258V41.2169C159.775 41.6135 159.86 41.893 160.028 42.0554C160.196 42.2179 160.487 42.2996 160.902 42.3004H161.895V43.437H160.68C159.93 43.437 159.367 43.2635 158.991 42.9167C158.615 42.5698 158.427 42.0011 158.427 41.2106V36.4258H157.375V35.3095H158.427V33.2662H159.775V35.3095H161.895V36.422L159.775 36.4258Z" fill="black"/>
<path d="M169.214 35.562C169.713 35.8281 170.119 36.2394 170.379 36.7415C170.675 37.3343 170.82 37.9918 170.8 38.6546V43.447H169.467V38.8453C169.467 38.0346 169.264 37.4141 168.86 36.9839C168.455 36.5537 167.902 36.3382 167.2 36.3374C166.489 36.3374 165.923 36.56 165.503 37.0054C165.084 37.4507 164.874 38.0986 164.873 38.9489V43.4445H163.524V32.4643H164.873V36.47C165.143 36.0511 165.526 35.7172 165.978 35.5064C166.471 35.2733 167.01 35.1562 167.556 35.1642C168.133 35.1569 168.703 35.2936 169.214 35.562Z" fill="black"/>
<path d="M180.373 39.8821H173.883C173.932 40.6835 174.206 41.309 174.705 41.7586C175.201 42.2084 175.851 42.4502 176.52 42.4342C177.037 42.4529 177.547 42.3104 177.98 42.0263C178.365 41.7613 178.653 41.3784 178.802 40.9352H180.254C180.048 41.7003 179.589 42.3726 178.951 42.8421C178.298 43.3304 177.488 43.5749 176.52 43.5758C175.798 43.5879 175.084 43.4088 174.453 43.0568C173.846 42.7107 173.35 42.1987 173.023 41.5805C172.666 40.8969 172.488 40.1341 172.504 39.363C172.487 38.5959 172.66 37.8365 173.009 37.1531C173.327 36.5363 173.819 36.0269 174.424 35.6882C175.067 35.3405 175.79 35.1664 176.52 35.1831C177.234 35.1688 177.94 35.343 178.565 35.6882C179.145 36.0113 179.62 36.4932 179.936 37.0773C180.263 37.6909 180.428 38.3775 180.417 39.0726C180.416 39.343 180.401 39.6132 180.373 39.8821ZM178.684 37.4562C178.462 37.0916 178.141 36.7983 177.758 36.6114C177.354 36.4153 176.91 36.3163 176.461 36.3222C175.818 36.3072 175.195 36.5411 174.72 36.975C174.241 37.4095 173.967 38.0127 173.898 38.7847H179.019C179.033 38.3192 178.917 37.859 178.684 37.4562Z" fill="black"/>
<path d="M76.4034 51.5278C76.2738 51.3993 76.1855 51.2349 76.1496 51.0559C76.1136 50.8768 76.1318 50.6911 76.2018 50.5224C76.2718 50.3537 76.3903 50.2097 76.5424 50.1088C76.6944 50.0078 76.8731 49.9545 77.0555 49.9556C77.1734 49.9536 77.2904 49.9762 77.399 50.0221C77.5076 50.068 77.6055 50.1361 77.6862 50.2221C77.853 50.3985 77.9459 50.6321 77.9459 50.875C77.9459 51.1178 77.853 51.3515 77.6862 51.5278C77.6055 51.6138 77.5076 51.682 77.399 51.7279C77.2904 51.7738 77.1734 51.7964 77.0555 51.7943C76.9344 51.7971 76.814 51.7748 76.7018 51.729C76.5896 51.6832 76.488 51.6147 76.4034 51.5278ZM77.7076 53.1152V61.2452H76.3592V53.1152H77.7076Z" fill="black"/>
<path d="M81.2042 61.0596C80.7432 60.8729 80.3395 60.568 80.0336 60.1756C79.7472 59.7955 79.5819 59.3378 79.5593 58.8623H80.9468C80.9643 59.0595 81.0245 59.2506 81.1231 59.4222C81.2218 59.5938 81.3566 59.7419 81.5183 59.8561C81.8546 60.1137 82.3016 60.2425 82.8591 60.2425C83.3721 60.2425 83.777 60.1284 84.0738 59.9003C84.2119 59.8037 84.3244 59.675 84.4018 59.5251C84.4791 59.3753 84.519 59.2089 84.5178 59.0403C84.5241 58.8763 84.4826 58.714 84.3984 58.5732C84.3142 58.4324 84.1909 58.3192 84.0435 58.2473C83.5761 58.0199 83.0838 57.8478 82.5766 57.7346C82.0746 57.6098 81.5822 57.449 81.1033 57.2534C80.7253 57.0905 80.3909 56.8409 80.1269 56.5248C79.8553 56.204 79.7195 55.7831 79.7195 55.262C79.7193 54.8533 79.8492 54.4552 80.0904 54.1254C80.3608 53.7614 80.7242 53.4769 81.1424 53.3021C81.6336 53.0921 82.1636 52.9884 82.6976 52.9977C83.5966 52.9977 84.3227 53.2255 84.876 53.6809C85.4294 54.1364 85.7237 54.7594 85.759 55.5499H84.4156C84.4088 55.3531 84.3603 55.1601 84.2733 54.9835C84.1864 54.8069 84.0629 54.6509 83.9111 54.5257C83.5999 54.2732 83.1824 54.1469 82.6585 54.1469C82.1742 54.1469 81.789 54.2505 81.5031 54.4576C81.3689 54.5469 81.2592 54.6685 81.184 54.8112C81.1089 54.9539 81.0707 55.1133 81.073 55.2746C81.0691 55.3964 81.0902 55.5177 81.1349 55.6311C81.1796 55.7444 81.2469 55.8474 81.3328 55.9338C81.5193 56.1157 81.7413 56.2572 81.985 56.3492C82.3415 56.4843 82.7049 56.6006 83.0735 56.6978C83.5571 56.8237 84.0323 56.9798 84.4964 57.165C84.8601 57.3177 85.1826 57.5544 85.4374 57.8558C85.7105 58.1954 85.8548 58.6208 85.8448 59.0567C85.8497 59.4864 85.72 59.9068 85.4739 60.2589C85.2095 60.629 84.8481 60.9188 84.4295 61.0962C83.9408 61.3072 83.4126 61.411 82.8805 61.4005C82.3043 61.4031 81.7337 61.287 81.2042 61.0596Z" fill="black"/>
<path d="M88.9389 61.0596C88.478 60.8729 88.0742 60.568 87.7683 60.1756C87.4824 59.7952 87.3172 59.3377 87.2941 58.8623H88.6816C88.699 59.0595 88.7592 59.2506 88.8579 59.4222C88.9566 59.5938 89.0914 59.7419 89.253 59.8561C89.5894 60.1137 90.0363 60.2425 90.5938 60.2425C91.1076 60.2425 91.5125 60.1284 91.8085 59.9003C91.9466 59.8037 92.0592 59.6749 92.1365 59.5251C92.2139 59.3753 92.2537 59.2089 92.2526 59.0403C92.2588 58.8765 92.2174 58.7144 92.1335 58.5736C92.0495 58.4328 91.9266 58.3195 91.7795 58.2473C91.312 58.0202 90.8197 57.8482 90.3126 57.7346C89.8101 57.61 89.3173 57.4492 88.838 57.2534C88.4593 57.0912 88.124 56.842 87.8592 56.526C87.5884 56.2053 87.4526 55.7843 87.4517 55.2632C87.4515 54.8545 87.5814 54.4564 87.8226 54.1267C88.093 53.7626 88.4564 53.4782 88.8746 53.3033C89.3658 53.0934 89.8958 52.9897 90.4299 52.999C91.3288 52.999 92.0549 53.2267 92.6083 53.6822C93.1616 54.1376 93.4559 54.7606 93.4912 55.5511H92.1428C92.136 55.3544 92.0875 55.1613 92.0005 54.9848C91.9135 54.8082 91.7901 54.6522 91.6383 54.527C91.3263 54.2744 90.9088 54.1482 90.3857 54.1482C89.9013 54.1482 89.5162 54.2517 89.2303 54.4588C89.0961 54.5481 88.9864 54.6697 88.9112 54.8124C88.8361 54.9552 88.7979 55.1145 88.8002 55.2758C88.7963 55.3977 88.8174 55.519 88.8621 55.6323C88.9067 55.7457 88.9741 55.8487 89.06 55.935C89.2465 56.117 89.4685 56.2584 89.7121 56.3505C90.0687 56.4855 90.4321 56.6019 90.8007 56.699C91.2842 56.825 91.7594 56.9811 92.2235 57.1663C92.5873 57.3189 92.9097 57.5556 93.1645 57.857C93.4376 58.1967 93.582 58.6221 93.572 59.058C93.5769 59.4877 93.4472 59.9081 93.2011 60.2602C92.9367 60.6303 92.5753 60.9201 92.1567 61.0974C91.668 61.3085 91.1398 61.4122 90.6077 61.4018C90.0339 61.4029 89.466 61.2864 88.9389 61.0596Z" fill="black"/>
<path d="M102.675 53.1152V61.2452H101.327V60.043C101.067 60.461 100.694 60.7975 100.252 61.0141C99.7823 61.2485 99.2635 61.3679 98.7385 61.3626C98.1453 61.3734 97.5585 61.2386 97.0294 60.9699C96.5224 60.7055 96.1066 60.2945 95.8361 59.7904C95.5451 59.2659 95.3997 58.6282 95.3997 57.8773V53.1152H96.7329V57.6992C96.7329 58.4998 96.9356 59.1152 97.3409 59.5454C97.7462 59.9756 98.2992 60.1907 98.9996 60.1907C99.7212 60.1907 100.289 59.9685 100.704 59.524C101.118 59.0795 101.326 58.4316 101.327 57.5805V53.1152H102.675Z" fill="black"/>
<path d="M112.321 57.684H105.831C105.881 58.4846 106.155 59.1102 106.654 59.5606C107.15 60.0104 107.8 60.2522 108.469 60.2362C108.986 60.2549 109.496 60.1123 109.928 59.8283C110.313 59.563 110.601 59.1802 110.751 58.7372H112.203C111.996 59.5022 111.537 60.1745 110.9 60.6441C110.247 61.1323 109.437 61.3769 108.469 61.3778C107.746 61.3898 107.033 61.2108 106.401 60.8587C105.796 60.5121 105.302 60 104.976 59.3825C104.618 58.6992 104.44 57.9363 104.456 57.165C104.439 56.3979 104.612 55.6384 104.961 54.9551C105.278 54.3402 105.769 53.8322 106.372 53.494C107.016 53.1462 107.738 52.9721 108.469 52.9889C109.183 52.9745 109.888 53.1487 110.514 53.494C111.093 53.8171 111.569 54.299 111.885 54.8831C112.212 55.4965 112.377 56.1831 112.367 56.8783C112.365 57.1475 112.35 57.4164 112.321 57.684ZM110.632 55.2619C110.411 54.8973 110.089 54.6041 109.706 54.4171C109.302 54.2211 108.858 54.1221 108.41 54.1279C107.767 54.113 107.143 54.3468 106.669 54.7808C106.19 55.2152 105.915 55.8184 105.846 56.5904H110.973C110.985 56.1244 110.867 55.6642 110.632 55.2619Z" fill="black"/>
<path d="M115.345 61.0596C114.884 60.8729 114.48 60.568 114.174 60.1756C113.887 59.7958 113.722 59.3379 113.7 58.8623H115.087C115.105 59.0594 115.165 59.2503 115.263 59.4219C115.362 59.5935 115.496 59.7417 115.657 59.8561C116 60.1137 116.447 60.2425 116.998 60.2425C117.513 60.2425 117.918 60.1284 118.214 59.9003C118.352 59.8037 118.465 59.675 118.542 59.5251C118.62 59.3753 118.659 59.2089 118.658 59.0403C118.665 58.8763 118.623 58.714 118.539 58.5732C118.455 58.4324 118.331 58.3192 118.184 58.2473C117.717 58.0199 117.224 57.8478 116.717 57.7346C116.215 57.6098 115.722 57.449 115.242 57.2534C114.864 57.0912 114.529 56.842 114.265 56.526C113.993 56.2053 113.858 55.7843 113.858 55.2632C113.857 54.8545 113.987 54.4564 114.228 54.1267C114.498 53.762 114.862 53.4774 115.28 53.3033C115.772 53.0934 116.302 52.9897 116.836 52.999C117.735 52.999 118.462 53.2267 119.014 53.6822C119.567 54.1376 119.863 54.7606 119.903 55.5511H118.555C118.548 55.3545 118.499 55.1616 118.412 54.9851C118.325 54.8086 118.202 54.6525 118.05 54.527C117.738 54.2744 117.321 54.1482 116.798 54.1482C116.313 54.1482 115.928 54.2517 115.642 54.4588C115.508 54.548 115.398 54.6695 115.323 54.8123C115.248 54.9551 115.21 55.1145 115.212 55.2758C115.208 55.3977 115.229 55.519 115.274 55.6323C115.319 55.7457 115.386 55.8487 115.472 55.935C115.659 56.117 115.881 56.2584 116.124 56.3505C116.481 56.4855 116.844 56.6019 117.213 56.699C117.696 56.825 118.172 56.9811 118.636 57.1663C118.999 57.3193 119.322 57.5559 119.577 57.857C119.85 58.1967 119.994 58.6221 119.984 59.058C119.989 59.4877 119.859 59.9081 119.613 60.2602C119.349 60.6303 118.987 60.9201 118.569 61.0974C118.08 61.3084 117.552 61.4121 117.02 61.4018C116.444 61.4038 115.874 61.2873 115.345 61.0596Z" fill="black"/>
<path d="M125.836 54.9614C126.152 54.354 126.633 53.8478 127.223 53.5003C127.819 53.1522 128.497 52.9728 129.187 52.9813C129.834 52.9655 130.474 53.1243 131.039 53.441C131.527 53.7131 131.932 54.1135 132.209 54.599V53.1152H133.573V61.2452H132.209V59.7298C131.924 60.2225 131.513 60.6298 131.017 60.9093C130.456 61.2294 129.818 61.3908 129.172 61.3765C128.483 61.3854 127.805 61.2003 127.216 60.8423C126.627 60.4802 126.15 59.9617 125.838 59.3446C125.493 58.665 125.32 57.9109 125.334 57.1486C125.316 56.389 125.489 55.6372 125.836 54.9614ZM131.837 55.5625C131.608 55.1271 131.261 54.7649 130.837 54.5169C130.415 54.2797 129.94 54.1545 129.456 54.1532C128.972 54.1519 128.496 54.2745 128.073 54.5093C127.651 54.7541 127.306 55.1141 127.081 55.5473C126.823 56.0436 126.696 56.5971 126.71 57.1562C126.696 57.7204 126.823 58.2791 127.081 58.7814C127.306 59.2189 127.65 59.584 128.073 59.8346C128.491 60.0733 128.966 60.195 129.447 60.1869C129.933 60.1924 130.413 60.0672 130.834 59.8245C131.26 59.5749 131.607 59.2098 131.835 58.7713C132.09 58.2737 132.217 57.7203 132.204 57.1612C132.219 56.6065 132.095 56.0568 131.843 55.5625H131.837Z" fill="black"/>
<path d="M138.216 53.3526C138.707 53.0819 139.262 52.9484 139.823 52.9662V54.3553H139.467C137.954 54.3553 137.197 55.1761 137.197 56.8178V61.2376H135.848V53.1152H137.197V54.4348C137.423 53.982 137.778 53.6058 138.216 53.3526Z" fill="black"/>
<path d="M148.746 57.684H142.256C142.306 58.4846 142.58 59.1102 143.079 59.5606C143.575 60.0104 144.225 60.2522 144.894 60.2362C145.411 60.2549 145.921 60.1123 146.353 59.8283C146.738 59.563 147.026 59.1802 147.176 58.7372H148.62C148.414 59.5022 147.954 60.1745 147.317 60.6441C146.664 61.1323 145.854 61.3769 144.886 61.3778C144.163 61.3898 143.45 61.2108 142.819 60.8587C142.212 60.5127 141.715 60.0006 141.388 59.3825C141.032 58.6989 140.853 57.9361 140.87 57.165C140.853 56.3979 141.026 55.6384 141.374 54.9551C141.694 54.339 142.188 53.8308 142.795 53.494C143.438 53.1462 144.16 52.9721 144.891 52.9889C145.605 52.9745 146.31 53.1487 146.936 53.494C147.516 53.8171 147.991 54.299 148.307 54.8831C148.633 55.4966 148.799 56.1832 148.788 56.8783C148.788 57.1474 148.774 57.4164 148.746 57.684ZM147.054 55.2619C146.833 54.8973 146.512 54.6041 146.129 54.4171C145.726 54.2208 145.283 54.1209 144.836 54.1254C144.193 54.1104 143.57 54.3443 143.095 54.7783C142.616 55.2127 142.342 55.8159 142.273 56.5879H147.399C147.41 56.1224 147.29 55.6631 147.054 55.2619Z" fill="black"/>
<path d="M155.575 51.5998C156.176 52.1529 156.477 52.8946 156.478 53.8248C156.478 54.8629 156.157 55.6315 155.516 56.1307C154.874 56.63 154.005 56.8809 152.909 56.8834L152.864 58.2927H151.694L151.635 55.9489H152.063C153.042 55.9489 153.808 55.8003 154.36 55.5031C154.913 55.2059 155.189 54.6474 155.19 53.8274C155.19 53.2381 155.012 52.7683 154.657 52.4181C154.301 52.0678 153.822 51.8948 153.22 51.899C152.607 51.899 152.125 52.0645 151.775 52.3953C151.424 52.7262 151.249 53.1787 151.249 53.7529H149.975C149.963 53.2046 150.101 52.6636 150.374 52.1882C150.643 51.7362 151.038 51.3724 151.51 51.1414C152.038 50.8861 152.619 50.7593 153.206 50.7714C154.185 50.7714 154.975 51.0475 155.575 51.5998ZM151.618 61.0709C151.489 60.9421 151.401 60.7777 151.365 60.5987C151.329 60.4196 151.347 60.2339 151.417 60.0652C151.487 59.8965 151.605 59.7524 151.757 59.6513C151.909 59.5502 152.088 59.4966 152.27 59.4974C152.388 59.4955 152.505 59.5183 152.614 59.5644C152.723 59.6105 152.82 59.6789 152.901 59.7651C153.068 59.9415 153.161 60.1751 153.161 60.418C153.161 60.6609 153.068 60.8945 152.901 61.0709C152.82 61.1569 152.722 61.2251 152.614 61.271C152.505 61.3169 152.388 61.3395 152.27 61.3373C152.149 61.3401 152.029 61.3179 151.916 61.272C151.804 61.2262 151.703 61.1577 151.618 61.0709Z" fill="black"/>
</svg>
