<svg width="106" height="142" viewBox="0 0 106 142" fill="none" xmlns="http://www.w3.org/2000/svg">
<path d="M81.9209 55.1735H81.5823L72.5601 53.9975C71.9485 53.8943 71.4002 53.5592 71.0292 53.0617C70.6582 52.5642 70.4932 51.9427 70.5685 51.3265C70.6621 50.7098 70.9946 50.1548 71.4942 49.7818C71.9937 49.4087 72.6199 49.2476 73.2373 49.3333L79.9691 50.1904L81.1641 42.3967C81.2591 41.7729 81.5979 41.2125 82.1059 40.8387C82.6139 40.4649 83.2494 40.3083 83.8727 40.4034C84.496 40.4986 85.056 40.8377 85.4295 41.346C85.803 41.8544 85.9594 42.4905 85.8644 43.1143L84.3308 53.2202C84.2268 53.7794 83.927 54.2831 83.4854 54.6411C83.0437 54.9991 82.4891 55.1879 81.9209 55.1735Z" fill="#494949"/>
<path d="M80.1085 120.772H79.7899L50.1939 116.905C49.8411 116.866 49.5023 116.744 49.2049 116.551C48.9074 116.357 48.6595 116.096 48.4811 115.789C48.3038 115.492 48.1925 115.16 48.1547 114.816C48.1169 114.472 48.1535 114.124 48.262 113.795L51.2694 105.464L54.8743 92.9259C54.9885 92.5702 55.1788 92.2437 55.4319 91.9691L60.9488 85.9894L60.3911 76.4217C60.3498 75.7963 60.5575 75.1801 60.9687 74.7075L67.4217 67.3324L66.2267 58.8212C66.1823 58.217 66.3687 57.6185 66.7481 57.1465C67.1275 56.6746 67.6717 56.3643 68.2708 56.2783C68.87 56.1922 69.4794 56.3369 69.9761 56.6831C70.4728 57.0293 70.8198 57.5512 70.9469 58.1435L72.3012 67.751C72.3579 68.1053 72.3354 68.4678 72.2356 68.8124C72.1357 69.157 71.9609 69.4752 71.7237 69.7442L65.2109 77.1991L65.7686 86.8065C65.7906 87.1286 65.7473 87.4519 65.6412 87.7568C65.5351 88.0616 65.3684 88.3419 65.1512 88.5806L59.2957 94.8793L55.8103 107.018L53.8187 112.699L78.1567 115.868L89.29 42.7156L84.5499 44.9879C84.2625 45.1691 83.9397 45.2868 83.6032 45.3333C83.2667 45.3798 82.9242 45.3539 82.5984 45.2575C82.2727 45.161 81.9712 44.9962 81.7142 44.774C81.4571 44.5518 81.2503 44.2772 81.1076 43.9687C80.9649 43.6602 80.8895 43.3248 80.8865 42.9849C80.8835 42.6449 80.953 42.3082 81.0903 41.9972C81.2276 41.6863 81.4295 41.4082 81.6826 41.1815C81.9358 40.9547 82.2343 40.7846 82.5583 40.6825L91.3813 36.4767C91.7676 36.2831 92.2007 36.2029 92.6307 36.2453C93.0606 36.2876 93.4699 36.4508 93.8111 36.7159C94.1616 36.9721 94.4358 37.319 94.6042 37.7193C94.7726 38.1196 94.8289 38.5583 94.7671 38.9882L82.5981 118.898C82.4755 119.457 82.1569 119.953 81.7002 120.297C81.2435 120.64 80.6788 120.809 80.1085 120.772Z" fill="#494949"/>
<path d="M78.9136 74.9865H78.5949L66.9238 73.4717C66.4851 73.4258 66.0674 73.2602 65.7162 72.9931C65.365 72.726 65.0938 72.3675 64.9321 71.9568C64.7766 71.5533 64.7351 71.1147 64.8124 70.6892C64.8897 70.2637 65.0828 69.8678 65.3703 69.5449L67.362 67.2726L66.5255 61.2928C66.4768 60.9297 66.5122 60.5602 66.6288 60.213C66.7454 59.8657 66.9401 59.5499 67.198 59.2899C67.4559 59.0299 67.77 58.8326 68.1161 58.7133C68.4623 58.5941 68.8311 58.5559 69.1943 58.6019L80.6861 60.0968C80.9971 60.1429 81.2959 60.2505 81.5649 60.4132C81.834 60.576 82.068 60.7907 82.2534 61.0448C82.4388 61.299 82.5717 61.5875 82.6446 61.8936C82.7174 62.1996 82.7287 62.5171 82.6778 62.8276L81.1442 72.9335C81.0705 73.4825 80.807 73.9884 80.3996 74.3634C79.9921 74.7384 79.4664 74.9589 78.9136 74.9865ZM71.9428 69.2858L76.902 69.9436L77.7186 64.5418L71.7436 63.7644L72.3013 67.751C72.3569 68.2883 72.2307 68.8288 71.9428 69.2858Z" fill="#494949"/>
<path d="M75.8862 94.8195H75.6073L59.7936 92.8262C59.3474 92.7861 58.9223 92.618 58.569 92.3423C58.2158 92.0666 57.9495 91.6948 57.8019 91.2715C57.6524 90.8596 57.6198 90.4144 57.7077 89.9852C57.7956 89.5559 58.0005 89.1594 58.2999 88.8397L60.9089 86.0092L60.5903 80.6872C60.5719 80.3356 60.6301 79.9841 60.7607 79.6572C60.8914 79.3302 61.0915 79.0356 61.3471 78.7936C61.6132 78.5503 61.9297 78.3688 62.274 78.262C62.6182 78.1552 62.9818 78.1257 63.3387 78.1757L77.7583 80.0494C78.0737 80.0886 78.3777 80.1919 78.6517 80.353C78.9257 80.5141 79.1639 80.7296 79.3517 80.9862C79.5423 81.2403 79.6809 81.5295 79.7595 81.8374C79.8382 82.1453 79.8552 82.4657 79.8097 82.7801L78.2761 92.886C78.1685 93.4381 77.8699 93.9345 77.4328 94.2881C76.9957 94.6417 76.4481 94.8299 75.8862 94.8195ZM64.9719 88.6005L73.8945 89.7566L74.7111 84.3748L65.5694 83.1788L65.7686 86.6471C65.7906 86.9692 65.7473 87.2924 65.6412 87.5973C65.5351 87.9022 65.3684 88.1824 65.1511 88.4211L64.9719 88.6005Z" fill="#494949"/>
<path d="M59.0169 118.021H58.6982L50.1939 116.905C49.8411 116.866 49.5023 116.744 49.2049 116.551C48.9074 116.357 48.6595 116.096 48.4811 115.789C48.3038 115.491 48.1925 115.16 48.1547 114.816C48.1169 114.472 48.1535 114.124 48.262 113.795L51.2694 105.463L53.6394 97.2114C53.8005 96.6623 54.1513 96.1885 54.6293 95.8744C55.1072 95.5604 55.6811 95.4267 56.2485 95.4972L61.9247 96.2347C62.2395 96.2761 62.5427 96.3803 62.8164 96.5413C63.0901 96.7022 63.3287 96.9165 63.518 97.1715C63.8953 97.6884 64.0594 98.3308 63.9761 98.9654L61.3671 116.068C61.2648 116.617 60.9738 117.112 60.5446 117.469C60.1153 117.826 59.5749 118.021 59.0169 118.021ZM53.6992 112.54L56.9456 112.958L58.8178 100.58L57.6028 100.421L55.7506 106.859L53.6992 112.54Z" fill="#494949"/>
<path d="M74.273 12.8765H9.22555C8.59169 12.8765 7.98379 12.6245 7.53558 12.1759C7.08737 11.7273 6.83557 11.119 6.83557 10.4846V2.37201C6.83556 2.05883 6.8975 1.74878 7.01785 1.45969C7.1382 1.1706 7.31457 0.908222 7.53676 0.687701C7.75896 0.467179 8.02259 0.292871 8.31245 0.174847C8.6023 0.0568224 8.91264 -0.00260905 9.22555 2.26958e-05H74.273C74.5859 -0.00260905 74.8962 0.0568224 75.1861 0.174847C75.4759 0.292871 75.7396 0.467179 75.9618 0.687701C76.184 0.908222 76.3603 1.1706 76.4807 1.45969C76.601 1.74878 76.663 2.05883 76.6629 2.37201V10.4846C76.6629 11.119 76.4111 11.7273 75.9629 12.1759C75.5147 12.6245 74.9068 12.8765 74.273 12.8765ZM11.6155 8.11261H71.883V4.76395H11.6155V8.11261Z" fill="#494949"/>
<path d="M63.6575 30.9753H20.0403C19.4064 30.9753 18.7985 30.7233 18.3503 30.2747C17.9021 29.8262 17.6503 29.2177 17.6503 28.5834V18.3779C17.6503 17.7435 17.9021 17.1351 18.3503 16.6865C18.7985 16.2379 19.4064 15.9859 20.0403 15.9859H63.6575C64.2913 15.9859 64.8992 16.2379 65.3475 16.6865C65.7957 17.1351 66.0475 17.7435 66.0475 18.3779V28.5834C66.0475 29.2177 65.7957 29.8262 65.3475 30.2747C64.8992 30.7233 64.2913 30.9753 63.6575 30.9753ZM22.4303 26.1915H61.2675V20.7698H22.4303V26.1915Z" fill="#494949"/>
<path d="M54.4361 50.9877H19.9406C19.3068 50.9877 18.6989 50.7356 18.2507 50.2871C17.8025 49.8385 17.5507 49.2301 17.5507 48.5957V38.3903C17.5507 37.7559 17.8025 37.1475 18.2507 36.6989C18.6989 36.2503 19.3068 35.9983 19.9406 35.9983H63.6574C64.1169 36.0004 64.5661 36.135 64.9511 36.386C65.3361 36.637 65.6407 36.9937 65.8283 37.4135C66.0178 37.8313 66.0811 38.2955 66.0103 38.7488C65.9395 39.2022 65.7378 39.6249 65.43 39.9649L58.3198 47.9379L56.3282 50.1505C56.0965 50.4241 55.8059 50.6416 55.4782 50.7866C55.1505 50.9316 54.7942 51.0004 54.4361 50.9877ZM22.3306 46.2038H53.3805L54.6552 44.8484L58.26 40.8619H22.4103L22.3306 46.2038Z" fill="#494949"/>
<path d="M51.7075 71H19.841C19.2072 71 18.5993 70.748 18.1511 70.2994C17.7028 69.8508 17.451 69.2425 17.451 68.6081V58.4026C17.451 57.7682 17.7028 57.1598 18.1511 56.7113C18.5993 56.2627 19.2072 56.0107 19.841 56.0107H51.8469C52.3623 56.011 52.8638 56.1781 53.2766 56.487C53.6894 56.796 53.9913 57.2302 54.1373 57.7249L56.129 64.5219C56.2273 64.8548 56.2534 65.2049 56.2053 65.5488C56.1572 65.8926 56.0361 66.2221 55.8501 66.5152L53.6394 69.9037C53.4288 70.2281 53.1434 70.4971 52.8072 70.6879C52.4709 70.8787 52.0938 70.9857 51.7075 71ZM22.2708 66.2361H50.4129L51.3291 64.8408L50.1142 60.8543H22.231L22.2708 66.2361Z" fill="#494949"/>
<path d="M47.5848 91.0124H19.9406C19.3068 91.0124 18.6989 90.7604 18.2507 90.3118C17.8025 89.8632 17.5507 89.2548 17.5507 88.6204V78.4149C17.5506 78.1017 17.6126 77.7917 17.7329 77.5026C17.8533 77.2135 18.0297 76.9511 18.2519 76.7306C18.474 76.5101 18.7377 76.3358 19.0275 76.2178C19.3174 76.0997 19.6277 76.0403 19.9406 76.0429H48.9989C49.5442 76.0362 50.0748 76.2194 50.5 76.5613C50.9251 76.9031 51.2182 77.3822 51.3291 77.9166L52.6635 84.1555C52.7302 84.4728 52.7329 84.8003 52.6714 85.1186C52.6098 85.437 52.4852 85.7398 52.305 86.0092L49.5565 89.9958C49.3356 90.3133 49.0405 90.572 48.6968 90.7491C48.3531 90.9263 47.9713 91.0167 47.5848 91.0124ZM22.3306 86.2484H46.35L47.7839 84.1555L47.0669 80.8069H22.3306V86.2484Z" fill="#494949"/>
<path d="M41.7493 116.167H33.1652C32.8523 116.17 32.542 116.111 32.2521 115.992C31.9623 115.874 31.6987 115.7 31.4765 115.48C31.2543 115.259 31.0779 114.997 30.9575 114.708C30.8372 114.419 30.7753 114.109 30.7753 113.795V96.5138C30.7753 95.8794 31.0271 95.271 31.4753 94.8224C31.9235 94.3739 32.5314 94.1219 33.1652 94.1219H44.5973C44.9374 94.1202 45.2738 94.1924 45.5833 94.3335C45.8927 94.4746 46.1679 94.6812 46.3898 94.9391C46.6174 95.19 46.7871 95.4879 46.8869 95.8116C46.9867 96.1354 47.0142 96.4772 46.9674 96.8128L45.8322 105.464L44.0795 114.254C43.9732 114.794 43.6826 115.28 43.2575 115.629C42.8324 115.978 42.2992 116.168 41.7493 116.167ZM35.5552 111.503H39.7576L41.092 104.786L41.8489 99.0054H35.5154L35.5552 111.503Z" fill="#494949"/>
<path d="M41.7493 116.167H11.8745C11.2459 116.167 10.643 115.917 10.1986 115.473C9.75409 115.028 9.50439 114.424 9.50439 113.795V10.4846C9.50439 9.85548 9.75409 9.25215 10.1986 8.80731C10.643 8.36248 11.2459 8.11258 11.8745 8.11258H71.6241C72.2527 8.11258 72.8555 8.36248 73.3 8.80731C73.7445 9.25215 73.9942 9.85548 73.9942 10.4846V33.0882C73.9952 33.4838 73.8974 33.8735 73.7095 34.2216C73.5217 34.5697 73.2498 34.8653 72.9187 35.0814L65.1114 40.2041L58.2003 48.0177L53.0021 53.6985L56.2684 64.6016C56.3668 64.9345 56.3928 65.2847 56.3447 65.6285C56.2966 65.9723 56.1755 66.3018 55.9896 66.5949L50.652 74.8071L52.6436 84.2353C52.7104 84.5526 52.7131 84.88 52.6515 85.1984C52.5899 85.5167 52.4653 85.8195 52.2851 86.089L47.4454 93.0854L45.8122 105.543L44.0596 114.334C43.9381 114.855 43.6436 115.321 43.2241 115.654C42.8046 115.987 42.2847 116.168 41.7493 116.167ZM14.2445 111.503H39.7576L41.092 104.786L42.785 91.9093C42.8276 91.5295 42.9646 91.1663 43.1833 90.8529L47.7442 84.2552L45.7525 74.847C45.6848 74.5417 45.6782 74.226 45.7329 73.9182C45.7876 73.6103 45.9025 73.3163 46.0712 73.053L51.3491 64.9405L48.0031 53.7782C47.8856 53.3824 47.8734 52.9626 47.9677 52.5606C48.062 52.1586 48.2596 51.7882 48.5408 51.486L54.6353 44.9281L61.7256 36.9551C61.8658 36.7951 62.0265 36.6543 62.2036 36.5365L69.2142 31.932V13.016H14.2445V111.503Z" fill="#494949"/>
<path d="M25.8161 116.167H3.39003C3.05918 116.198 2.72566 116.159 2.41073 116.053C2.09581 115.947 1.80641 115.776 1.56101 115.552C1.3156 115.328 1.11959 115.055 0.985476 114.751C0.851363 114.447 0.782104 114.118 0.782104 113.785C0.782104 113.453 0.851363 113.124 0.985476 112.82C1.11959 112.516 1.3156 112.243 1.56101 112.019C1.80641 111.794 2.09581 111.624 2.41073 111.518C2.72566 111.412 3.05918 111.373 3.39003 111.403H25.8161C26.1469 111.373 26.4804 111.412 26.7953 111.518C27.1103 111.624 27.3997 111.794 27.6451 112.019C27.8905 112.243 28.0865 112.516 28.2206 112.82C28.3547 113.124 28.424 113.453 28.424 113.785C28.424 114.118 28.3547 114.447 28.2206 114.751C28.0865 115.055 27.8905 115.328 27.6451 115.552C27.3997 115.776 27.1103 115.947 26.7953 116.053C26.4804 116.159 26.1469 116.198 25.8161 116.167Z" fill="#494949"/>
<path d="M38.8812 141.98H38.7817C38.3605 141.957 37.9533 141.821 37.6029 141.586C37.2525 141.351 36.9717 141.026 36.79 140.645L33.0258 132.951C32.7979 132.466 32.735 131.92 32.8465 131.396L34.6789 123.243C34.7207 123.071 34.7808 122.904 34.8581 122.745L39.6381 112.779C39.9476 112.287 40.4255 111.925 40.9825 111.76C41.5395 111.595 42.1375 111.639 42.6646 111.883C43.1917 112.127 43.6119 112.555 43.8467 113.087C44.0814 113.618 44.1146 114.218 43.9401 114.772L39.2597 124.519L37.6863 131.575L39.1402 134.565L44.8961 124.997C44.9305 124.917 44.9776 124.843 45.0355 124.778L48.1624 120.672V114.493C48.1321 114.162 48.1711 113.828 48.2769 113.513C48.3827 113.198 48.5531 112.908 48.777 112.663C49.001 112.417 49.2736 112.221 49.5776 112.087C49.8816 111.952 50.2101 111.883 50.5424 111.883C50.8746 111.883 51.2032 111.952 51.5072 112.087C51.8111 112.221 52.0838 112.417 52.3077 112.663C52.5317 112.908 52.702 113.198 52.8079 113.513C52.9137 113.828 52.9527 114.162 52.9224 114.493V121.469C52.9253 121.994 52.7575 122.504 52.4444 122.925L48.9192 127.569L40.9526 140.784C40.7412 141.147 40.4389 141.448 40.0756 141.657C39.7123 141.867 39.3006 141.978 38.8812 141.98Z" fill="#494949"/>
<path d="M4.72438 141.98C4.1941 141.985 3.67764 141.811 3.2576 141.487C2.83755 141.163 2.5382 140.707 2.40743 140.193C2.27665 139.679 2.32201 139.135 2.53624 138.65C2.75047 138.164 3.12119 137.765 3.58912 137.515L13.0296 132.333L19.0045 124.16C19.2015 123.899 19.4497 123.682 19.7341 123.52C20.0184 123.359 20.3327 123.258 20.6576 123.223L36.5908 121.41C36.9123 121.352 37.242 121.362 37.5597 121.437C37.8774 121.512 38.1764 121.652 38.438 121.848C38.6997 122.043 38.9186 122.29 39.0812 122.573C39.2438 122.857 39.3467 123.17 39.3836 123.495C39.4204 123.82 39.3903 124.149 39.2952 124.461C39.2002 124.774 39.0421 125.064 38.8308 125.313C38.6195 125.562 38.3595 125.765 38.0667 125.909C37.7739 126.054 37.4547 126.137 37.1286 126.154L22.1912 127.848L16.4552 135.602C16.2403 135.874 15.9769 136.103 15.6785 136.279L5.72021 141.701C5.41235 141.865 5.07259 141.96 4.72438 141.98Z" fill="#494949"/>
<path d="M64.7329 141.98C64.4396 141.985 64.1483 141.931 63.8765 141.821C63.5845 141.71 63.3174 141.543 63.0907 141.328C62.864 141.114 62.6823 140.856 62.5562 140.57C62.4301 140.284 62.3622 139.976 62.3564 139.664C62.3505 139.352 62.4069 139.041 62.5222 138.751L65.5695 130.778C65.6983 130.441 65.9012 130.136 66.1632 129.888C66.4252 129.64 66.7395 129.453 67.0831 129.343L74.273 127.09L77.8779 117.483C78.0938 116.916 78.515 116.452 79.0576 116.183C79.6001 115.913 80.2242 115.858 80.8056 116.028L91.1025 119.177C91.4531 119.284 91.7742 119.472 92.0403 119.724C92.3064 119.977 92.5103 120.287 92.636 120.632L95.8824 129.422L101.658 135.402C102.064 135.865 102.276 136.467 102.249 137.082C102.223 137.698 101.96 138.279 101.516 138.706C101.072 139.132 100.481 139.37 99.8656 139.372C99.2502 139.373 98.6582 139.136 98.2127 138.711L92.1182 132.373C91.8813 132.143 91.6977 131.864 91.5805 131.555L88.573 123.383L81.5824 121.31L78.3559 129.921C78.2283 130.261 78.0261 130.569 77.7641 130.82C77.5022 131.072 77.1871 131.262 76.8422 131.376L69.6324 133.628L67.0034 140.465C66.8247 140.919 66.5113 141.308 66.1055 141.579C65.6996 141.85 65.2206 141.99 64.7329 141.98Z" fill="#494949"/>
<path d="M103.63 93.8229C103.438 93.8435 103.244 93.8435 103.052 93.8229L91.68 91.0124C91.0646 90.8591 90.5353 90.4673 90.2084 89.9235C89.8816 89.3796 89.7841 88.7281 89.9373 88.1122C90.0905 87.4963 90.4818 86.9665 91.0253 86.6395C91.5687 86.3124 92.2197 86.2148 92.8351 86.3681L104.188 89.1785C104.745 89.3256 105.23 89.6692 105.554 90.146C105.878 90.6227 106.019 91.2005 105.951 91.7731C105.883 92.3457 105.611 92.8745 105.184 93.2621C104.758 93.6497 104.206 93.8701 103.63 93.8827V93.8229Z" fill="#494949"/>
<path d="M103.63 71H97.9338C97.3401 70.9456 96.7882 70.6711 96.3864 70.2304C95.9845 69.7897 95.7617 69.2146 95.7617 68.618C95.7617 68.0214 95.9845 67.4464 96.3864 67.0057C96.7882 66.565 97.3401 66.2905 97.9338 66.2361H103.63C104.224 66.2905 104.775 66.565 105.177 67.0057C105.579 67.4464 105.802 68.0214 105.802 68.618C105.802 69.2146 105.579 69.7897 105.177 70.2304C104.775 70.6711 104.224 70.9456 103.63 71Z" fill="#494949"/>
<path d="M82.3391 29.6597C81.9352 29.6577 81.5382 29.555 81.184 29.3608C80.9101 29.2108 80.6686 29.0081 80.4732 28.7645C80.2778 28.5208 80.1325 28.2409 80.0455 27.9409C79.9586 27.6408 79.9316 27.3265 79.9664 27.016C80.0011 26.7056 80.0968 26.4051 80.2479 26.1317L84.2312 18.8363C84.3734 18.5422 84.5749 18.2806 84.8229 18.068C85.0709 17.8554 85.3601 17.6964 85.6724 17.601C85.9847 17.5055 86.3133 17.4757 86.6377 17.5134C86.962 17.551 87.2751 17.6553 87.5573 17.8198C88.1098 18.1231 88.5203 18.6326 88.6994 19.2374C88.8784 19.8422 88.8115 20.4932 88.5133 21.0488L84.5299 28.3442C84.3285 28.75 84.0151 29.0895 83.6268 29.3227C83.2386 29.5558 82.7917 29.6728 82.3391 29.6597Z" fill="#494949"/>
<path d="M92.2576 30.9753C91.9139 30.9697 91.5752 30.8923 91.2631 30.7481C90.951 30.604 90.6724 30.3962 90.4452 30.1381C90.0339 29.6567 89.8302 29.0318 89.8787 28.4003C89.9273 27.7688 90.2241 27.1823 90.7041 26.7695L95.2849 22.783C95.7698 22.4069 96.3806 22.2318 96.9909 22.294C97.6013 22.3561 98.1643 22.6508 98.5635 23.117C98.9628 23.5832 99.1676 24.1851 99.1357 24.7982C99.1037 25.4113 98.8374 25.9887 98.3919 26.4107L93.8111 30.3973C93.3787 30.7692 92.8277 30.9743 92.2576 30.9753Z" fill="#494949"/>
</svg>
