<svg width="105" height="142" viewBox="0 0 105 142" fill="none" xmlns="http://www.w3.org/2000/svg">
<g clip-path="url(#clip0_296_63)">
<path d="M80.9209 55.1735H80.5823L71.5601 53.9975C70.9485 53.8943 70.4002 53.5592 70.0292 53.0617C69.6582 52.5642 69.4932 51.9427 69.5685 51.3265C69.6621 50.7098 69.9946 50.1548 70.4942 49.7818C70.9937 49.4087 71.6199 49.2476 72.2373 49.3333L78.9691 50.1904L80.1641 42.3967C80.2591 41.7729 80.5979 41.2125 81.1059 40.8387C81.6139 40.4649 82.2494 40.3083 82.8727 40.4034C83.496 40.4986 84.056 40.8377 84.4295 41.346C84.803 41.8544 84.9594 42.4905 84.8644 43.1143L83.3308 53.2202C83.2268 53.7794 82.927 54.2831 82.4854 54.6411C82.0437 54.9991 81.4891 55.1879 80.9209 55.1735Z" fill="#494949"/>
<path d="M79.1085 120.772H78.7899L49.1939 116.905C48.8411 116.866 48.5023 116.744 48.2049 116.551C47.9074 116.357 47.6595 116.096 47.4811 115.789C47.3038 115.492 47.1925 115.16 47.1547 114.816C47.1169 114.472 47.1535 114.124 47.262 113.795L50.2694 105.464L53.8743 92.9259C53.9885 92.5702 54.1788 92.2437 54.4319 91.9691L59.9488 85.9894L59.3911 76.4217C59.3498 75.7963 59.5575 75.1801 59.9687 74.7075L66.4217 67.3324L65.2267 58.8212C65.1823 58.217 65.3687 57.6185 65.7481 57.1465C66.1275 56.6746 66.6717 56.3643 67.2708 56.2783C67.87 56.1922 68.4794 56.3369 68.9761 56.6831C69.4728 57.0293 69.8198 57.5512 69.9469 58.1435L71.3012 67.751C71.3579 68.1053 71.3354 68.4678 71.2356 68.8124C71.1357 69.157 70.9609 69.4752 70.7237 69.7442L64.2109 77.1991L64.7686 86.8065C64.7906 87.1286 64.7473 87.4519 64.6412 87.7568C64.5351 88.0616 64.3684 88.3419 64.1512 88.5806L58.2957 94.8793L54.8103 107.018L52.8187 112.699L77.1567 115.868L88.29 42.7156L83.5499 44.9879C83.2625 45.1691 82.9397 45.2868 82.6032 45.3333C82.2667 45.3798 81.9242 45.3539 81.5984 45.2575C81.2727 45.161 80.9712 44.9962 80.7142 44.774C80.4571 44.5518 80.2503 44.2772 80.1076 43.9687C79.9649 43.6602 79.8895 43.3248 79.8865 42.9849C79.8835 42.6449 79.953 42.3082 80.0903 41.9972C80.2276 41.6863 80.4295 41.4082 80.6826 41.1815C80.9358 40.9547 81.2343 40.7846 81.5583 40.6825L90.3813 36.4767C90.7676 36.2831 91.2007 36.2029 91.6307 36.2453C92.0606 36.2876 92.4699 36.4508 92.8111 36.7159C93.1616 36.9721 93.4358 37.319 93.6042 37.7193C93.7726 38.1196 93.8289 38.5583 93.7671 38.9882L81.5981 118.898C81.4755 119.457 81.1569 119.953 80.7002 120.297C80.2435 120.64 79.6788 120.809 79.1085 120.772Z" fill="#494949"/>
<path d="M77.9136 74.9865H77.5949L65.9238 73.4717C65.4851 73.4258 65.0674 73.2602 64.7162 72.9931C64.365 72.726 64.0938 72.3675 63.9321 71.9568C63.7766 71.5533 63.7351 71.1147 63.8124 70.6892C63.8897 70.2637 64.0828 69.8678 64.3703 69.5449L66.362 67.2726L65.5255 61.2928C65.4768 60.9297 65.5122 60.5602 65.6288 60.213C65.7454 59.8657 65.9401 59.5499 66.198 59.2899C66.4559 59.0299 66.77 58.8326 67.1161 58.7133C67.4623 58.5941 67.8311 58.5559 68.1943 58.6019L79.6861 60.0968C79.9971 60.1429 80.2959 60.2505 80.5649 60.4132C80.834 60.576 81.068 60.7907 81.2534 61.0448C81.4388 61.299 81.5717 61.5875 81.6446 61.8936C81.7174 62.1996 81.7287 62.5171 81.6778 62.8276L80.1442 72.9335C80.0705 73.4825 79.807 73.9884 79.3996 74.3634C78.9921 74.7384 78.4664 74.9589 77.9136 74.9865ZM70.9428 69.2858L75.902 69.9436L76.7186 64.5418L70.7436 63.7644L71.3013 67.751C71.3569 68.2883 71.2307 68.8288 70.9428 69.2858Z" fill="#494949"/>
<path d="M74.8862 94.8195H74.6073L58.7936 92.8262C58.3474 92.7861 57.9223 92.618 57.569 92.3423C57.2158 92.0666 56.9495 91.6948 56.8019 91.2715C56.6524 90.8596 56.6198 90.4144 56.7077 89.9852C56.7956 89.5559 57.0005 89.1594 57.2999 88.8397L59.9089 86.0092L59.5903 80.6872C59.5719 80.3356 59.6301 79.9841 59.7607 79.6572C59.8914 79.3302 60.0915 79.0356 60.3471 78.7936C60.6132 78.5503 60.9297 78.3688 61.274 78.262C61.6182 78.1552 61.9818 78.1257 62.3387 78.1757L76.7583 80.0494C77.0737 80.0886 77.3777 80.1919 77.6517 80.353C77.9257 80.5141 78.1639 80.7296 78.3517 80.9862C78.5423 81.2403 78.6809 81.5295 78.7595 81.8374C78.8382 82.1453 78.8552 82.4657 78.8097 82.7801L77.2761 92.886C77.1685 93.4381 76.8699 93.9345 76.4328 94.2881C75.9957 94.6417 75.4481 94.8299 74.8862 94.8195ZM63.9719 88.6005L72.8945 89.7566L73.7111 84.3748L64.5694 83.1788L64.7686 86.6471C64.7906 86.9692 64.7473 87.2924 64.6412 87.5973C64.5351 87.9022 64.3684 88.1824 64.1511 88.4211L63.9719 88.6005Z" fill="#494949"/>
<path d="M58.0169 118.021H57.6982L49.1939 116.905C48.8411 116.866 48.5023 116.744 48.2049 116.551C47.9074 116.357 47.6595 116.096 47.4811 115.789C47.3038 115.491 47.1925 115.16 47.1547 114.816C47.1169 114.472 47.1535 114.124 47.262 113.795L50.2694 105.463L52.6394 97.2114C52.8005 96.6623 53.1513 96.1885 53.6293 95.8744C54.1072 95.5604 54.6811 95.4267 55.2485 95.4972L60.9247 96.2347C61.2395 96.2761 61.5427 96.3803 61.8164 96.5413C62.0901 96.7022 62.3287 96.9165 62.518 97.1715C62.8953 97.6884 63.0594 98.3308 62.9761 98.9654L60.3671 116.068C60.2648 116.617 59.9738 117.112 59.5446 117.469C59.1153 117.826 58.5749 118.021 58.0169 118.021ZM52.6992 112.54L55.9456 112.958L57.8178 100.58L56.6028 100.421L54.7506 106.859L52.6992 112.54Z" fill="#494949"/>
<path d="M73.273 12.8765H8.22555C7.59169 12.8765 6.98379 12.6245 6.53558 12.1759C6.08737 11.7273 5.83557 11.119 5.83557 10.4846V2.37201C5.83556 2.05883 5.8975 1.74878 6.01785 1.45969C6.1382 1.1706 6.31457 0.908222 6.53676 0.687701C6.75896 0.467179 7.02259 0.292871 7.31245 0.174847C7.6023 0.0568224 7.91264 -0.00260905 8.22555 2.26958e-05H73.273C73.5859 -0.00260905 73.8962 0.0568224 74.1861 0.174847C74.4759 0.292871 74.7396 0.467179 74.9618 0.687701C75.184 0.908222 75.3603 1.1706 75.4807 1.45969C75.601 1.74878 75.663 2.05883 75.6629 2.37201V10.4846C75.6629 11.119 75.4111 11.7273 74.9629 12.1759C74.5147 12.6245 73.9068 12.8765 73.273 12.8765ZM10.6155 8.11261H70.883V4.76395H10.6155V8.11261Z" fill="#494949"/>
<path d="M62.6575 30.9753H19.0403C18.4064 30.9753 17.7985 30.7233 17.3503 30.2747C16.9021 29.8262 16.6503 29.2177 16.6503 28.5834V18.3779C16.6503 17.7435 16.9021 17.1351 17.3503 16.6865C17.7985 16.2379 18.4064 15.9859 19.0403 15.9859H62.6575C63.2913 15.9859 63.8992 16.2379 64.3475 16.6865C64.7957 17.1351 65.0475 17.7435 65.0475 18.3779V28.5834C65.0475 29.2177 64.7957 29.8262 64.3475 30.2747C63.8992 30.7233 63.2913 30.9753 62.6575 30.9753ZM21.4303 26.1915H60.2675V20.7698H21.4303V26.1915Z" fill="#494949"/>
<path d="M53.4361 50.9877H18.9406C18.3068 50.9877 17.6989 50.7356 17.2507 50.2871C16.8025 49.8385 16.5507 49.2301 16.5507 48.5957V38.3903C16.5507 37.7559 16.8025 37.1475 17.2507 36.6989C17.6989 36.2503 18.3068 35.9983 18.9406 35.9983H62.6574C63.1169 36.0004 63.5661 36.135 63.9511 36.386C64.3361 36.637 64.6407 36.9937 64.8283 37.4135C65.0178 37.8313 65.0811 38.2955 65.0103 38.7488C64.9395 39.2022 64.7378 39.6249 64.43 39.9649L57.3198 47.9379L55.3282 50.1505C55.0965 50.4241 54.8059 50.6416 54.4782 50.7866C54.1505 50.9316 53.7942 51.0004 53.4361 50.9877ZM21.3306 46.2038H52.3805L53.6552 44.8484L57.26 40.8619H21.4103L21.3306 46.2038Z" fill="#494949"/>
<path d="M50.7075 71H18.841C18.2072 71 17.5993 70.748 17.1511 70.2994C16.7028 69.8508 16.451 69.2425 16.451 68.6081V58.4026C16.451 57.7682 16.7028 57.1598 17.1511 56.7113C17.5993 56.2627 18.2072 56.0107 18.841 56.0107H50.8469C51.3623 56.011 51.8638 56.1781 52.2766 56.487C52.6894 56.796 52.9913 57.2302 53.1373 57.7249L55.129 64.5219C55.2273 64.8548 55.2534 65.2049 55.2053 65.5488C55.1572 65.8926 55.0361 66.2221 54.8501 66.5152L52.6394 69.9037C52.4288 70.2281 52.1434 70.4971 51.8072 70.6879C51.4709 70.8787 51.0938 70.9857 50.7075 71ZM21.2708 66.2361H49.4129L50.3291 64.8408L49.1142 60.8543H21.231L21.2708 66.2361Z" fill="#494949"/>
<path d="M46.5848 91.0124H18.9406C18.3068 91.0124 17.6989 90.7604 17.2507 90.3118C16.8025 89.8632 16.5507 89.2548 16.5507 88.6204V78.4149C16.5506 78.1017 16.6126 77.7917 16.7329 77.5026C16.8533 77.2135 17.0297 76.9511 17.2519 76.7306C17.474 76.5101 17.7377 76.3358 18.0275 76.2178C18.3174 76.0997 18.6277 76.0403 18.9406 76.0429H47.9989C48.5442 76.0362 49.0748 76.2194 49.5 76.5613C49.9251 76.9031 50.2182 77.3822 50.3291 77.9166L51.6635 84.1555C51.7302 84.4728 51.7329 84.8003 51.6714 85.1186C51.6098 85.437 51.4852 85.7398 51.305 86.0092L48.5565 89.9958C48.3356 90.3133 48.0405 90.572 47.6968 90.7491C47.3531 90.9263 46.9713 91.0167 46.5848 91.0124ZM21.3306 86.2484H45.35L46.7839 84.1555L46.0669 80.8069H21.3306V86.2484Z" fill="#494949"/>
<path d="M40.7493 116.167H32.1652C31.8523 116.17 31.542 116.111 31.2521 115.992C30.9623 115.874 30.6987 115.7 30.4765 115.48C30.2543 115.259 30.0779 114.997 29.9575 114.708C29.8372 114.419 29.7753 114.109 29.7753 113.795V96.5138C29.7753 95.8794 30.0271 95.271 30.4753 94.8224C30.9235 94.3739 31.5314 94.1219 32.1652 94.1219H43.5973C43.9374 94.1202 44.2738 94.1924 44.5833 94.3335C44.8927 94.4746 45.1679 94.6812 45.3898 94.9391C45.6174 95.19 45.7871 95.4879 45.8869 95.8116C45.9867 96.1354 46.0142 96.4772 45.9674 96.8128L44.8322 105.464L43.0795 114.254C42.9732 114.794 42.6826 115.28 42.2575 115.629C41.8324 115.978 41.2992 116.168 40.7493 116.167ZM34.5552 111.503H38.7576L40.092 104.786L40.8489 99.0054H34.5154L34.5552 111.503Z" fill="#494949"/>
<path d="M40.7493 116.167H10.8745C10.2459 116.167 9.64304 115.917 9.19857 115.473C8.75409 115.028 8.50439 114.424 8.50439 113.795V10.4846C8.50439 9.85548 8.75409 9.25215 9.19857 8.80731C9.64304 8.36248 10.2459 8.11258 10.8745 8.11258H70.6241C71.2527 8.11258 71.8555 8.36248 72.3 8.80731C72.7445 9.25215 72.9942 9.85548 72.9942 10.4846V33.0882C72.9952 33.4838 72.8974 33.8735 72.7095 34.2216C72.5217 34.5697 72.2498 34.8653 71.9187 35.0814L64.1114 40.2041L57.2003 48.0177L52.0021 53.6985L55.2684 64.6016C55.3668 64.9345 55.3928 65.2847 55.3447 65.6285C55.2966 65.9723 55.1755 66.3018 54.9896 66.5949L49.652 74.8071L51.6436 84.2353C51.7104 84.5526 51.7131 84.88 51.6515 85.1984C51.5899 85.5167 51.4653 85.8195 51.2851 86.089L46.4454 93.0854L44.8122 105.543L43.0596 114.334C42.9381 114.855 42.6436 115.321 42.2241 115.654C41.8046 115.987 41.2847 116.168 40.7493 116.167ZM13.2445 111.503H38.7576L40.092 104.786L41.785 91.9093C41.8276 91.5295 41.9646 91.1663 42.1833 90.8529L46.7442 84.2552L44.7525 74.847C44.6848 74.5417 44.6782 74.226 44.7329 73.9182C44.7876 73.6103 44.9025 73.3163 45.0712 73.053L50.3491 64.9405L47.0031 53.7782C46.8856 53.3824 46.8734 52.9626 46.9677 52.5606C47.062 52.1586 47.2596 51.7882 47.5408 51.486L53.6353 44.9281L60.7256 36.9551C60.8658 36.7951 61.0265 36.6543 61.2036 36.5365L68.2142 31.932V13.016H13.2445V111.503Z" fill="#494949"/>
<path d="M24.8161 116.167H2.39003C2.05918 116.198 1.72566 116.159 1.41073 116.053C1.09581 115.947 0.806407 115.776 0.561006 115.552C0.315605 115.328 0.119589 115.055 -0.0145241 114.751C-0.148637 114.447 -0.217896 114.118 -0.217896 113.785C-0.217896 113.453 -0.148637 113.124 -0.0145241 112.82C0.119589 112.516 0.315605 112.243 0.561006 112.019C0.806407 111.794 1.09581 111.624 1.41073 111.518C1.72566 111.412 2.05918 111.373 2.39003 111.403H24.8161C25.1469 111.373 25.4804 111.412 25.7953 111.518C26.1103 111.624 26.3997 111.794 26.6451 112.019C26.8905 112.243 27.0865 112.516 27.2206 112.82C27.3547 113.124 27.424 113.453 27.424 113.785C27.424 114.118 27.3547 114.447 27.2206 114.751C27.0865 115.055 26.8905 115.328 26.6451 115.552C26.3997 115.776 26.1103 115.947 25.7953 116.053C25.4804 116.159 25.1469 116.198 24.8161 116.167Z" fill="#494949"/>
<path d="M37.8812 141.98H37.7817C37.3605 141.957 36.9533 141.821 36.6029 141.586C36.2525 141.351 35.9717 141.026 35.79 140.645L32.0258 132.951C31.7979 132.466 31.735 131.92 31.8465 131.396L33.6789 123.243C33.7207 123.071 33.7808 122.904 33.8581 122.745L38.6381 112.779C38.9476 112.287 39.4255 111.925 39.9825 111.76C40.5395 111.595 41.1375 111.639 41.6646 111.883C42.1917 112.127 42.6119 112.555 42.8467 113.087C43.0814 113.618 43.1146 114.218 42.9401 114.772L38.2597 124.519L36.6863 131.575L38.1402 134.565L43.8961 124.997C43.9305 124.917 43.9776 124.843 44.0355 124.778L47.1624 120.672V114.493C47.1321 114.162 47.1711 113.828 47.2769 113.513C47.3827 113.198 47.5531 112.908 47.777 112.663C48.001 112.417 48.2736 112.221 48.5776 112.087C48.8816 111.952 49.2101 111.883 49.5424 111.883C49.8746 111.883 50.2032 111.952 50.5072 112.087C50.8111 112.221 51.0838 112.417 51.3077 112.663C51.5317 112.908 51.702 113.198 51.8079 113.513C51.9137 113.828 51.9527 114.162 51.9224 114.493V121.469C51.9253 121.994 51.7575 122.504 51.4444 122.925L47.9192 127.569L39.9526 140.784C39.7412 141.147 39.4389 141.448 39.0756 141.657C38.7123 141.867 38.3006 141.978 37.8812 141.98Z" fill="#494949"/>
<path d="M3.72438 141.98C3.1941 141.985 2.67764 141.811 2.2576 141.487C1.83755 141.163 1.5382 140.707 1.40743 140.193C1.27665 139.679 1.32201 139.135 1.53624 138.65C1.75047 138.164 2.12119 137.765 2.58912 137.515L12.0296 132.333L18.0045 124.16C18.2015 123.899 18.4497 123.682 18.7341 123.52C19.0184 123.359 19.3327 123.258 19.6576 123.223L35.5908 121.41C35.9123 121.352 36.242 121.362 36.5597 121.437C36.8774 121.512 37.1764 121.652 37.438 121.848C37.6997 122.043 37.9186 122.29 38.0812 122.573C38.2438 122.857 38.3467 123.17 38.3836 123.495C38.4204 123.82 38.3903 124.149 38.2952 124.461C38.2002 124.774 38.0421 125.064 37.8308 125.313C37.6195 125.562 37.3595 125.765 37.0667 125.909C36.7739 126.054 36.4547 126.137 36.1286 126.154L21.1912 127.848L15.4552 135.602C15.2403 135.874 14.9769 136.103 14.6785 136.279L4.72021 141.701C4.41235 141.865 4.07259 141.96 3.72438 141.98Z" fill="#494949"/>
<path d="M63.7329 141.98C63.4396 141.985 63.1483 141.931 62.8765 141.821C62.5845 141.71 62.3174 141.543 62.0907 141.328C61.864 141.114 61.6823 140.856 61.5562 140.57C61.4301 140.284 61.3622 139.976 61.3564 139.664C61.3505 139.352 61.4069 139.041 61.5222 138.751L64.5695 130.778C64.6983 130.441 64.9012 130.136 65.1632 129.888C65.4252 129.64 65.7395 129.453 66.0831 129.343L73.273 127.09L76.8779 117.483C77.0938 116.916 77.515 116.452 78.0576 116.183C78.6001 115.913 79.2242 115.858 79.8056 116.028L90.1025 119.177C90.4531 119.284 90.7742 119.472 91.0403 119.724C91.3064 119.977 91.5103 120.287 91.636 120.632L94.8824 129.422L100.658 135.402C101.064 135.865 101.276 136.467 101.249 137.082C101.223 137.698 100.96 138.279 100.516 138.706C100.072 139.132 99.4809 139.37 98.8656 139.372C98.2502 139.373 97.6582 139.136 97.2127 138.711L91.1182 132.373C90.8813 132.143 90.6977 131.864 90.5805 131.555L87.573 123.383L80.5824 121.31L77.3559 129.921C77.2283 130.261 77.0261 130.569 76.7641 130.82C76.5022 131.072 76.1871 131.262 75.8422 131.376L68.6324 133.628L66.0034 140.465C65.8247 140.919 65.5113 141.308 65.1055 141.579C64.6996 141.85 64.2206 141.99 63.7329 141.98Z" fill="#494949"/>
<path d="M102.63 93.8229C102.438 93.8435 102.244 93.8435 102.052 93.8229L90.68 91.0124C90.0646 90.8591 89.5353 90.4673 89.2084 89.9235C88.8816 89.3796 88.7841 88.7281 88.9373 88.1122C89.0905 87.4963 89.4818 86.9665 90.0253 86.6395C90.5687 86.3124 91.2197 86.2148 91.8351 86.3681L103.188 89.1785C103.745 89.3256 104.23 89.6692 104.554 90.146C104.878 90.6227 105.019 91.2005 104.951 91.7731C104.883 92.3457 104.611 92.8745 104.184 93.2621C103.758 93.6497 103.206 93.8701 102.63 93.8827V93.8229Z" fill="#494949"/>
<path d="M102.63 71H96.9338C96.3401 70.9456 95.7882 70.6711 95.3864 70.2304C94.9845 69.7897 94.7617 69.2146 94.7617 68.618C94.7617 68.0214 94.9845 67.4464 95.3864 67.0057C95.7882 66.565 96.3401 66.2905 96.9338 66.2361H102.63C103.224 66.2905 103.775 66.565 104.177 67.0057C104.579 67.4464 104.802 68.0214 104.802 68.618C104.802 69.2146 104.579 69.7897 104.177 70.2304C103.775 70.6711 103.224 70.9456 102.63 71Z" fill="#494949"/>
<path d="M81.3391 29.6597C80.9352 29.6577 80.5382 29.555 80.184 29.3608C79.9101 29.2108 79.6686 29.0081 79.4732 28.7645C79.2778 28.5208 79.1325 28.2409 79.0455 27.9409C78.9586 27.6408 78.9316 27.3265 78.9664 27.016C79.0011 26.7056 79.0968 26.4051 79.2479 26.1317L83.2312 18.8363C83.3734 18.5422 83.5749 18.2806 83.8229 18.068C84.0709 17.8554 84.3601 17.6964 84.6724 17.601C84.9847 17.5055 85.3133 17.4757 85.6377 17.5134C85.962 17.551 86.2751 17.6553 86.5573 17.8198C87.1098 18.1231 87.5203 18.6326 87.6994 19.2374C87.8784 19.8422 87.8115 20.4932 87.5133 21.0488L83.5299 28.3442C83.3285 28.75 83.0151 29.0895 82.6268 29.3227C82.2386 29.5558 81.7917 29.6728 81.3391 29.6597Z" fill="#494949"/>
<path d="M91.2576 30.9753C90.9139 30.9697 90.5752 30.8923 90.2631 30.7481C89.951 30.604 89.6724 30.3962 89.4452 30.1381C89.0339 29.6567 88.8302 29.0318 88.8787 28.4003C88.9273 27.7688 89.2241 27.1823 89.7041 26.7695L94.2849 22.783C94.7698 22.4069 95.3806 22.2318 95.9909 22.294C96.6013 22.3561 97.1643 22.6508 97.5635 23.117C97.9628 23.5832 98.1676 24.1851 98.1357 24.7982C98.1037 25.4113 97.8374 25.9887 97.3919 26.4107L92.8111 30.3973C92.3787 30.7692 91.8277 30.9743 91.2576 30.9753Z" fill="#494949"/>
</g>
<defs>
<clipPath id="clip0_296_63">
<rect width="105" height="142" fill="white"/>
</clipPath>
</defs>
</svg>
