<svg width="67" height="106" viewBox="0 0 67 106" fill="none" xmlns="http://www.w3.org/2000/svg">
<g clip-path="url(#clip0_296_44)">
<path d="M66 9.31001C66 4.72001 57.49 1.00002 47 1.00002C36.51 1.00002 28 4.72001 28 9.31001" stroke="#343434" stroke-width="2" stroke-linecap="round" stroke-linejoin="round"/>
<path d="M39 70.17C39 65.58 30.49 61.86 20 61.86C9.51 61.86 1 65.58 1 70.17" stroke="#343434" stroke-width="2" stroke-linecap="round" stroke-linejoin="round"/>
<path d="M28 22.64C28 27.23 36.51 30.95 47 30.95C57.49 30.95 66 27.23 66 22.64" stroke="#343434" stroke-width="2" stroke-linecap="round" stroke-linejoin="round"/>
<path d="M28 9.64003C28 14.23 36.51 17.95 47 17.95C57.49 17.95 66 14.23 66 9.64003" stroke="#343434" stroke-width="2" stroke-linecap="round" stroke-linejoin="round"/>
<path d="M28 35.7C28 40.29 36.51 44.01 47 44.01C57.49 44.01 66 40.29 66 35.7" stroke="#343434" stroke-width="2" stroke-linecap="round" stroke-linejoin="round"/>
<path d="M44 56.97C45 57.04 46 57.07 47 57.07C57.49 57.07 66 53.35 66 48.76" stroke="#343434" stroke-width="2" stroke-linecap="round" stroke-linejoin="round"/>
<path d="M44 70.03C45 70.1 46 70.14 47 70.14C57.49 70.14 66 66.41 66 61.82" stroke="#343434" stroke-width="2" stroke-linecap="round" stroke-linejoin="round"/>
<path d="M44 83.1C45 83.16 46 83.2 47 83.2C57.49 83.2 66 79.48 66 74.89" stroke="#343434" stroke-width="2" stroke-linecap="round" stroke-linejoin="round"/>
<path d="M66 22.64V74.89" stroke="#343434" stroke-width="2" stroke-linecap="round" stroke-linejoin="round"/>
<path d="M66 9.57001V61.82" stroke="#343434" stroke-width="2" stroke-linecap="round" stroke-linejoin="round"/>
<path d="M28 22.64V57.7" stroke="#343434" stroke-width="2" stroke-linecap="round" stroke-linejoin="round"/>
<path d="M28 9.26001V44.32" stroke="#343434" stroke-width="2" stroke-linecap="round" stroke-linejoin="round"/>
<path d="M1 70.82C1 75.41 9.51 79.14 20 79.14C30.49 79.14 39 75.41 39 70.82" stroke="#343434" stroke-width="2" stroke-linecap="round" stroke-linejoin="round"/>
<path d="M1 83.89C1 88.48 9.51 92.2 20 92.2C30.49 92.2 39 88.48 39 83.89" stroke="#343434" stroke-width="2" stroke-linecap="round" stroke-linejoin="round"/>
<path d="M1 95.76C1 100.35 9.51 104.07 20 104.07C30.49 104.07 39 100.35 39 95.76" stroke="#343434" stroke-width="2" stroke-linecap="round" stroke-linejoin="round"/>
<path d="M39 70.82V95.76" stroke="#343434" stroke-width="2" stroke-linecap="round" stroke-linejoin="round"/>
<path d="M1 70.82V95.76" stroke="#343434" stroke-width="2" stroke-linecap="round" stroke-linejoin="round"/>
</g>
<defs>
<clipPath id="clip0_296_44">
<rect width="67" height="105.07" fill="white"/>
</clipPath>
</defs>
</svg>
