<svg width="96" height="16" viewBox="0 0 96 16" fill="none" xmlns="http://www.w3.org/2000/svg">
<g clip-path="url(#clip0_34_15)">
<path d="M93.7452 0.133123L91.4908 0.12556V2.53004L93.7452 2.51809V15.8711H96V0.133123H93.7452ZM88.6936 3.95855C88.6936 1.85857 87.6982 0.000579834 85.3531 0.000579834C83.4726 0.000579834 81.9697 1.54611 81.9697 3.42758V4.66505H84.2241V3.38062C84.2241 2.65104 84.6646 2.25261 85.3298 2.25261C86.4352 2.25261 86.4352 3.20111 86.4352 3.99756C86.4352 4.86008 86.4352 5.30109 86.038 6.07406L81.9697 13.7436V15.8671H88.6936V13.6111H84.6253L87.9421 7.22157C88.6502 5.87863 88.6936 5.4806 88.6936 3.95855ZM67.4752 7.16306H66.1925V2.25659H67.3652C69.0254 2.25659 69.289 3.11911 69.289 4.71162C69.289 6.27705 69.0491 7.16306 67.4752 7.16306ZM71.5474 4.7546C71.5474 1.70254 70.2411 0.133123 67.5658 0.133123H63.9381V15.8711H66.1925V9.15359H67.5422L69.6433 15.8751H72.0313L69.6 8.68909C71.0359 7.89264 71.5474 6.56562 71.5474 4.7546ZM53.7361 15.8711H60.4604V13.6151H55.9945V8.99756H59.8859V6.87409H55.9945V2.25659H60.4604V0.133123H53.7361V15.8711ZM46.1625 11.1206H46.1191L44.3289 0.133123H41.9409L45.1474 15.8711H47.1382L50.3684 0.133123H47.9803L46.1625 11.1206ZM32.3211 15.8711H39.045V13.6151H34.5755V8.99756H38.4668V6.87409H34.5755V2.25659H39.0414V0.133123H32.3211V15.8711ZM24.6098 7.16306H23.3272V2.25659H24.4995C26.1601 2.25659 26.4237 3.11911 26.4237 4.71162C26.4197 6.27705 26.1798 7.16306 24.6098 7.16306ZM28.6781 4.7546C28.6781 1.70254 27.3718 0.133123 24.6965 0.133123H21.0688V15.8711H23.3232V9.15359H24.6728L26.7736 15.8751H29.162L26.7302 8.68909C28.1706 7.89264 28.6781 6.56562 28.6781 4.7546ZM15.187 12.1591C15.187 13.2441 14.4785 13.7516 13.6604 13.7516C12.8419 13.7516 12.1338 13.2441 12.1338 12.1591V3.84511C12.1338 2.76009 12.8419 2.25261 13.6604 2.25261C14.4785 2.25261 15.187 2.76009 15.187 3.84511V12.1591ZM13.6604 0.000579834C11.8229 0.000579834 9.8794 1.28063 9.8794 3.84511V12.1551C9.8794 14.7196 11.8269 15.9996 13.6604 15.9996C15.4976 15.9996 17.4414 14.7196 17.4414 12.1551V3.84511C17.4414 1.28063 15.4976 0.000579834 13.6604 0.000579834ZM0 15.8711H2.2544V9.15359H6.14574V7.03012H2.2544V2.25659H6.71987V0.133123H0V15.8711Z" fill="white"/>
</g>
<defs>
<clipPath id="clip0_34_15">
<rect width="96" height="16" fill="white"/>
</clipPath>
</defs>
</svg>
