<svg width="29" height="18" viewBox="0 0 29 18" fill="none" xmlns="http://www.w3.org/2000/svg">
<path d="M20.2302 0.572143C21.2783 0.0817348 21.7975 0.145306 21.8071 0.635714C21.8047 1.34045 21.7533 2.04428 21.6533 2.74266C21.2687 6.09378 20.6148 8.82735 20.5667 12.2602C22.2783 8.08266 23.711 5.16745 25.5571 1.58929C26.1437 0.445 26.5187 0.681123 26.9994 0.454082C28.9225 -0.336021 28.9225 0.154388 28.7013 1.11704C27.7975 4.69521 25.461 15.9564 25.1052 17.6819C25.009 18.1905 24.4321 17.9726 24.2783 17.7818C23.6148 16.8737 22.8552 16.8737 22.9417 16.3106C23.3552 13.4227 24.8648 6.16643 25.259 4.50449C23.259 8.39143 21.1821 13.241 20.1052 15.9928C19.884 16.574 19.4706 16.5377 19.211 16.1017C18.8552 15.5024 18.1533 15.1936 18.0379 14.4852C17.6725 12.233 18.461 7.92827 18.5667 5.21286C17.4706 8.18256 15.6821 13.9494 14.836 16.5649C14.509 17.6365 13.4033 17.4731 13.7013 16.4105C14.9129 12.0332 17.5475 4.29561 18.6821 1.51663C18.9513 0.862756 19.6437 0.880919 20.2302 0.60847V0.572143ZM13.5763 0.0272447C13.2206 -0.0544901 12.2013 0.472245 11.5667 0.572143C11.4657 0.601417 11.3723 0.650532 11.2928 0.716265C11.2133 0.781999 11.1493 0.862869 11.1052 0.953572C10.0956 3.14225 9.18211 5.23102 8.40327 7.13817C7.44173 7.30164 6.23019 7.51051 4.91288 7.79205C5.87442 5.51255 6.83596 3.25123 7.73019 1.10796C8.19173 0.0363268 6.98981 -0.0635716 6.51865 1.01714C5.9225 2.41572 4.76865 5.04031 3.52827 8.10082C2.56673 8.31878 1.60519 8.5549 0.643654 8.83643C-0.0967305 9.03623 -0.125577 9.22694 0.191731 9.6447C0.374423 9.88082 0.739808 9.86266 0.903269 10.0261C1.33596 10.462 1.59558 10.9797 2.37442 11.0524C1.64365 12.8051 0.9225 14.6033 0.326347 16.3379C-0.0678842 17.4277 1.05712 17.6456 1.48019 16.5013C2.18212 14.6396 2.91289 12.7597 3.66288 10.8889C4.28789 10.7436 5.80712 10.4348 7.20135 10.1533C6.09558 13.0231 5.36481 15.2117 5.08596 16.2743C5.06844 16.3423 5.06623 16.413 5.07948 16.4818C5.09273 16.5506 5.12115 16.6161 5.16288 16.6739C5.53788 17.1915 5.89365 17.2097 6.37442 17.8454C6.42105 17.905 6.48502 17.9504 6.55853 17.9762C6.63203 18.0019 6.71189 18.0069 6.78836 17.9906C6.86483 17.9742 6.93459 17.9372 6.98915 17.884C7.0437 17.8308 7.08068 17.7637 7.09558 17.691C8.12442 14.7486 9.18212 11.9968 10.1725 9.51756C10.489 9.47365 10.7931 9.37074 11.0671 9.21484C11.3411 9.05893 11.5796 8.85312 11.7687 8.60939C12.5763 7.48327 12.8071 7.70123 12.9994 7.36521C13.1917 7.02919 13.0763 6.5297 12.2206 6.62959C12.2206 6.62959 11.9033 6.6296 11.259 6.72041C12.2206 4.40459 13.0475 2.44296 13.6437 0.953572C13.8456 0.445 13.8744 0.0454082 13.5379 0" fill="#FF3636"/>
<path d="M12.1725 15.0119C12.3937 15.5387 13.086 15.3843 12.8264 14.7486C12.5667 14.1129 11.8648 12.1422 11.7206 11.5155C11.4802 10.6619 12.509 10.898 11.9898 11.452C11.4706 12.0059 11.2398 12.1149 10.4129 13.0231C9.58597 13.9312 9.83597 15.0392 10.6917 15.2844C11.5475 15.5296 12.4994 14.5669 13.0283 13.8313C13.5571 13.0957 13.0283 12.7052 12.5283 13.123C12.1904 13.4541 11.8237 13.7578 11.4321 14.0311C11.1148 14.2128 10.8744 14.0311 11.2879 13.4772C11.7014 12.9232 12.3167 12.3147 12.7302 11.7153C12.8085 11.6211 12.8664 11.5133 12.9005 11.3979C12.9347 11.2826 12.9444 11.162 12.9293 11.0431C12.9141 10.9242 12.8743 10.8093 12.8121 10.7049C12.7498 10.6005 12.6665 10.5088 12.5667 10.4348C12.467 10.3609 12.3528 10.3062 12.2307 10.274C12.1085 10.2417 11.9809 10.2325 11.855 10.2468C11.7291 10.2612 11.6074 10.2988 11.4969 10.3575C11.3864 10.4163 11.2893 10.495 11.211 10.5892C11.0711 10.7543 10.9812 10.9521 10.9508 11.1615C10.9203 11.371 10.9504 11.5843 11.0379 11.7789C11.2014 12.351 11.8167 14.1583 12.1725 15.0119Z" fill="#FF3636"/>
</svg>
