<svg width="122" height="25" viewBox="0 0 122 25" fill="none" xmlns="http://www.w3.org/2000/svg">
<path d="M109.749 18.206L114.698 13.2547C114.929 13.022 115.059 12.7072 115.059 12.3791C115.059 12.051 114.929 11.7362 114.698 11.5035L109.749 6.55228C109.517 6.32362 109.203 6.19617 108.877 6.19764C108.551 6.19912 108.238 6.32941 108.008 6.56017C107.777 6.79092 107.647 7.10347 107.646 7.4298C107.644 7.75613 107.771 8.06985 108 8.30268L110.837 11.1412H103.926C103.598 11.1412 103.283 11.2716 103.051 11.5038C102.819 11.7359 102.689 12.0508 102.689 12.3791C102.689 12.7074 102.819 13.0223 103.051 13.2545C103.283 13.4866 103.598 13.617 103.926 13.617H110.837L108 16.4556C107.77 16.6882 107.642 17.0023 107.643 17.3292C107.644 17.6561 107.774 17.9694 108.005 18.2005C108.236 18.4317 108.55 18.562 108.876 18.563C109.203 18.5641 109.517 18.4357 109.749 18.206Z" fill="#6563FF"/>
<path d="M121.247 12.3792C121.247 9.93079 120.521 7.53741 119.162 5.50167C117.802 3.46593 115.87 1.87926 113.609 0.942312C111.349 0.00536369 108.861 -0.239785 106.461 0.237867C104.061 0.71552 101.857 1.89452 100.126 3.62577C98.396 5.35703 97.2176 7.56278 96.7403 9.9641C96.2629 12.3654 96.5079 14.8545 97.4443 17.1164C98.3807 19.3784 99.9665 21.3118 102.001 22.672C104.036 24.0323 106.428 24.7583 108.875 24.7583C112.155 24.7547 115.3 23.4493 117.619 21.1285C119.938 18.8078 121.243 15.6612 121.247 12.3792ZM108 18.206C107.885 18.0911 107.794 17.9547 107.732 17.8045C107.669 17.6543 107.637 17.4933 107.637 17.3308C107.637 17.1682 107.669 17.0072 107.732 16.8571C107.794 16.7069 107.885 16.5704 108 16.4555L110.837 13.6171H103.926C103.598 13.6171 103.283 13.4866 103.051 13.2545C102.819 13.0223 102.689 12.7075 102.689 12.3792C102.689 12.0508 102.819 11.736 103.051 11.5038C103.283 11.2717 103.598 11.1412 103.926 11.1412H110.837L108 8.3027C107.771 8.06986 107.644 7.75615 107.646 7.42982C107.647 7.10348 107.777 6.79094 108.008 6.56018C108.238 6.32942 108.551 6.19913 108.877 6.19766C109.203 6.19618 109.517 6.32363 109.749 6.55229L114.698 11.5036C114.929 11.7363 115.059 12.0511 115.059 12.3792C115.059 12.7073 114.929 13.0221 114.698 13.2548L109.749 18.206C109.635 18.321 109.498 18.4122 109.348 18.4744C109.198 18.5366 109.037 18.5687 108.875 18.5687C108.712 18.5687 108.551 18.5366 108.401 18.4744C108.251 18.4122 108.115 18.321 108 18.206Z" fill="#B2B1FF"/>
<path d="M3.15447 16.8662H6.78296V18.2867H1.39426V7.55563H3.15447V16.8662ZM16.0524 13.8244C16.0524 14.1435 16.0318 14.4318 15.9906 14.6891H9.49022C9.54169 15.3685 9.79388 15.914 10.2468 16.3258C10.6997 16.7375 11.2556 16.9434 11.9144 16.9434C12.8614 16.9434 13.5305 16.5471 13.9216 15.7545H15.8208C15.5634 16.5368 15.0951 17.1802 14.4157 17.6845C13.7466 18.1786 12.9128 18.4257 11.9144 18.4257C11.1012 18.4257 10.3703 18.2455 9.72182 17.8853C9.08362 17.5147 8.57923 17 8.20866 16.3412C7.84839 15.6721 7.66825 14.9001 7.66825 14.0252C7.66825 13.1502 7.84324 12.3833 8.19322 11.7245C8.5535 11.0555 9.05274 10.5408 9.69094 10.1805C10.3394 9.82022 11.0806 9.64009 11.9144 9.64009C12.7173 9.64009 13.4327 9.81508 14.0606 10.1651C14.6885 10.515 15.1774 11.0091 15.5274 11.6473C15.8774 12.2752 16.0524 13.0009 16.0524 13.8244ZM14.215 13.2686C14.2047 12.6201 13.9731 12.1003 13.5202 11.7091C13.0672 11.3179 12.5062 11.1224 11.8372 11.1224C11.2298 11.1224 10.71 11.3179 10.2777 11.7091C9.84535 12.09 9.58801 12.6098 9.50566 13.2686H14.215ZM17.1979 13.9943C17.1979 13.1399 17.3729 12.3833 17.7228 11.7245C18.0831 11.0657 18.5669 10.5562 19.1742 10.1959C19.7919 9.82537 20.4712 9.64009 21.2124 9.64009C21.8815 9.64009 22.4631 9.7739 22.9571 10.0415C23.4615 10.2989 23.863 10.6231 24.1615 11.0143V9.77905H25.9371V18.2867H24.1615V17.0206C23.863 17.422 23.4564 17.7566 22.9417 18.0242C22.427 18.2919 21.8403 18.4257 21.1815 18.4257C20.4507 18.4257 19.7816 18.2404 19.1742 17.8698C18.5669 17.489 18.0831 16.964 17.7228 16.2949C17.3729 15.6155 17.1979 14.8486 17.1979 13.9943ZM24.1615 14.0252C24.1615 13.4384 24.038 12.9289 23.7909 12.4966C23.5542 12.0642 23.2402 11.7348 22.8491 11.5084C22.4579 11.2819 22.0359 11.1687 21.583 11.1687C21.13 11.1687 20.708 11.2819 20.3168 11.5084C19.9257 11.7245 19.6066 12.0488 19.3595 12.4811C19.1228 12.9032 19.0044 13.4075 19.0044 13.9943C19.0044 14.581 19.1228 15.0957 19.3595 15.5383C19.6066 15.9809 19.9257 16.3206 20.3168 16.5574C20.7183 16.7838 21.1403 16.8971 21.583 16.8971C22.0359 16.8971 22.4579 16.7838 22.8491 16.5574C23.2402 16.3309 23.5542 16.0015 23.7909 15.5692C24.038 15.1266 24.1615 14.6119 24.1615 14.0252ZM30.0093 11.0143C30.2667 10.582 30.6063 10.2474 31.0284 10.0107C31.4607 9.76361 31.9702 9.64009 32.557 9.64009V11.4621H32.1092C31.4195 11.4621 30.8946 11.637 30.5343 11.987C30.1843 12.337 30.0093 12.9443 30.0093 13.809V18.2867H28.2491V9.77905H30.0093V11.0143ZM38.4674 9.64009C39.1365 9.64009 39.7335 9.77905 40.2585 10.057C40.7938 10.3349 41.2106 10.7466 41.5092 11.2922C41.8077 11.8378 41.9569 12.4966 41.9569 13.2686V18.2867H40.2122V13.5311C40.2122 12.7693 40.0217 12.1878 39.6409 11.7863C39.26 11.3746 38.7402 11.1687 38.0814 11.1687C37.4226 11.1687 36.8976 11.3746 36.5065 11.7863C36.1256 12.1878 35.9352 12.7693 35.9352 13.5311V18.2867H34.175V9.77905H35.9352V10.7518C36.2234 10.4018 36.5888 10.129 37.0314 9.93345C37.4844 9.73788 37.963 9.64009 38.4674 9.64009ZM59.5154 7.55563V18.2867H57.7552V10.9371L54.4819 18.2867H53.2621L49.9733 10.9371V18.2867H48.2131V7.55563H50.1122L53.8797 15.9707L57.6317 7.55563H59.5154ZM65.5192 18.4257C64.7163 18.4257 63.9906 18.2455 63.3421 17.8853C62.6936 17.5147 62.1841 17 61.8135 16.3412C61.443 15.6721 61.2577 14.9001 61.2577 14.0252C61.2577 13.1605 61.4481 12.3936 61.829 11.7245C62.2098 11.0555 62.7297 10.5408 63.3884 10.1805C64.0472 9.82022 64.7832 9.64009 65.5964 9.64009C66.4096 9.64009 67.1456 9.82022 67.8044 10.1805C68.4632 10.5408 68.983 11.0555 69.3639 11.7245C69.7447 12.3936 69.9352 13.1605 69.9352 14.0252C69.9352 14.8898 69.7396 15.6567 69.3484 16.3258C68.9573 16.9949 68.422 17.5147 67.7426 17.8853C67.0736 18.2455 66.3324 18.4257 65.5192 18.4257ZM65.5192 16.8971C65.9721 16.8971 66.3942 16.789 66.7853 16.5728C67.1868 16.3567 67.511 16.0324 67.7581 15.6001C68.0051 15.1678 68.1287 14.6428 68.1287 14.0252C68.1287 13.4075 68.0103 12.8877 67.7735 12.4657C67.5368 12.0333 67.2228 11.7091 66.8317 11.4929C66.4405 11.2768 66.0185 11.1687 65.5655 11.1687C65.1126 11.1687 64.6906 11.2768 64.2994 11.4929C63.9186 11.7091 63.6149 12.0333 63.3884 12.4657C63.162 12.8877 63.0488 13.4075 63.0488 14.0252C63.0488 14.9413 63.2804 15.6516 63.7436 16.1559C64.2171 16.65 64.809 16.8971 65.5192 16.8971ZM73.4354 11.0143C73.6928 10.582 74.0325 10.2474 74.4545 10.0107C74.8868 9.76361 75.3964 9.64009 75.9831 9.64009V11.4621H75.5353C74.8457 11.4621 74.3207 11.637 73.9604 11.987C73.6104 12.337 73.4354 12.9443 73.4354 13.809V18.2867H71.6752V9.77905H73.4354V11.0143ZM85.3985 13.8244C85.3985 14.1435 85.3779 14.4318 85.3367 14.6891H78.8363C78.8878 15.3685 79.14 15.914 79.5929 16.3258C80.0458 16.7375 80.6017 16.9434 81.2605 16.9434C82.2075 16.9434 82.8766 16.5471 83.2677 15.7545H85.1669C84.9096 16.5368 84.4412 17.1802 83.7618 17.6845C83.0927 18.1786 82.259 18.4257 81.2605 18.4257C80.4473 18.4257 79.7164 18.2455 79.0679 17.8853C78.4297 17.5147 77.9253 17 77.5548 16.3412C77.1945 15.6721 77.0144 14.9001 77.0144 14.0252C77.0144 13.1502 77.1894 12.3833 77.5393 11.7245C77.8996 11.0555 78.3989 10.5408 79.0371 10.1805C79.6856 9.82022 80.4267 9.64009 81.2605 9.64009C82.0634 9.64009 82.7788 9.81508 83.4067 10.1651C84.0346 10.515 84.5235 11.0091 84.8735 11.6473C85.2235 12.2752 85.3985 13.0009 85.3985 13.8244ZM83.5611 13.2686C83.5508 12.6201 83.3192 12.1003 82.8663 11.7091C82.4134 11.3179 81.8524 11.1224 81.1833 11.1224C80.576 11.1224 80.0561 11.3179 79.6238 11.7091C79.1915 12.09 78.9341 12.6098 78.8518 13.2686H83.5611Z" fill="#CDCDCD"/>
</svg>
