<svg width="41" height="56" viewBox="0 0 41 56" fill="none" xmlns="http://www.w3.org/2000/svg">
<path d="M5.4794 24.0007C5.54403 24.0007 5.60801 23.988 5.66772 23.9633C5.72742 23.9386 5.78167 23.9025 5.82736 23.8569C5.87305 23.8113 5.9093 23.7572 5.93403 23.6976C5.95876 23.6381 5.97149 23.5742 5.97149 23.5097C5.97149 23.4453 5.95876 23.3814 5.93403 23.3219C5.9093 23.2623 5.87305 23.2082 5.82736 23.1626C5.78167 23.117 5.72742 23.0808 5.66772 23.0562C5.60801 23.0315 5.54403 23.0188 5.4794 23.0188H1.89393L1.90017 22.2376H7.98263L7.97639 23.0188H7.81015C7.74553 23.0188 7.68154 23.0315 7.62184 23.0562C7.56213 23.0808 7.50789 23.117 7.46219 23.1626C7.4165 23.2082 7.38025 23.2623 7.35552 23.3219C7.33079 23.3814 7.31807 23.4453 7.31807 23.5097C7.31807 23.5742 7.33079 23.6381 7.35552 23.6976C7.38025 23.7572 7.4165 23.8113 7.46219 23.8569C7.50789 23.9025 7.56213 23.9386 7.62184 23.9633C7.68154 23.988 7.74553 24.0007 7.81015 24.0007H8.61851V25.5013H7.81015C7.67964 25.5013 7.55448 25.553 7.46219 25.6451C7.36991 25.7372 7.31807 25.8621 7.31807 25.9923C7.31807 26.1225 7.36991 26.2473 7.46219 26.3394C7.55448 26.4315 7.67964 26.4832 7.81015 26.4832H8.08653L8.23116 34.0161C8.23356 34.1446 8.28641 34.2671 8.37836 34.3571C8.47031 34.4471 8.594 34.4976 8.72283 34.4975H8.73239C8.79699 34.4963 8.86073 34.4825 8.91996 34.4567C8.97918 34.4309 9.03273 34.3937 9.07755 34.3473C9.12236 34.3009 9.15756 34.246 9.18113 34.186C9.2047 34.126 9.21618 34.0619 9.21491 33.9975L9.07111 26.4832H9.10976C9.24027 26.4832 9.36543 26.4315 9.45772 26.3394C9.55 26.2473 9.60184 26.1225 9.60184 25.9923V23.5097C9.60184 23.3795 9.55 23.2547 9.45772 23.1626C9.36543 23.0705 9.24027 23.0188 9.10976 23.0188H8.95931L8.9697 21.7508C8.97014 21.686 8.95774 21.6218 8.93322 21.5618C8.9087 21.5018 8.87253 21.4472 8.8268 21.4012C8.78108 21.3552 8.72669 21.3187 8.66676 21.2937C8.60684 21.2687 8.54256 21.2558 8.47762 21.2557H1.41224C1.28291 21.2563 1.15899 21.3075 1.06723 21.3985C0.975468 21.4894 0.923238 21.6127 0.92182 21.7417L0.91143 23.0176H0.75516C0.624652 23.0176 0.499489 23.0693 0.407206 23.1614C0.314922 23.2534 0.263079 23.3783 0.263079 23.5085V25.991C0.263079 26.1212 0.314922 26.2461 0.407206 26.3382C0.499489 26.4302 0.624652 26.482 0.75516 26.482H0.789656L-3.33627e-06 55.4945C-0.00177958 55.5601 0.0096222 55.6253 0.0335291 55.6864C0.057436 55.7475 0.0933642 55.8032 0.139192 55.8501C0.18502 55.8971 0.23982 55.9345 0.300358 55.96C0.360895 55.9856 0.425944 55.9987 0.491664 55.9987H4.52516C4.58978 55.9987 4.65377 55.9861 4.71347 55.9614C4.77318 55.9367 4.82742 55.9005 4.87312 55.855C4.91881 55.8094 4.95506 55.7553 4.97979 55.6957C5.00452 55.6361 5.01725 55.5723 5.01725 55.5078C5.01725 55.4433 5.00452 55.3795 4.97979 55.3199C4.95506 55.2604 4.91881 55.2062 4.87312 55.1607C4.82742 55.1151 4.77318 55.0789 4.71347 55.0542C4.65377 55.0296 4.58978 55.0169 4.52516 55.0169H0.997878L1.77424 26.482H5.4794C5.60991 26.482 5.73508 26.4302 5.82736 26.3382C5.91964 26.2461 5.97149 26.1212 5.97149 25.991C5.97149 25.8608 5.91964 25.7359 5.82736 25.6439C5.73508 25.5518 5.60991 25.5001 5.4794 25.5001H1.24724V23.9995L5.4794 24.0007Z" fill="white"/>
<path d="M20.5681 21.4013C20.5225 21.3551 20.4681 21.3185 20.4082 21.2936C20.3483 21.2686 20.284 21.2557 20.219 21.2557H13.1536C13.0238 21.2558 12.8993 21.3071 12.8071 21.3983C12.715 21.4896 12.6626 21.6134 12.6615 21.7429L12.6512 23.0188H12.4949C12.3644 23.0188 12.2392 23.0705 12.1469 23.1626C12.0547 23.2547 12.0028 23.3795 12.0028 23.5097V25.9923C12.0028 26.1225 12.0547 26.2473 12.1469 26.3394C12.2392 26.4315 12.3644 26.4832 12.4949 26.4832H12.5364L12.3773 35.9787C12.3756 36.1086 12.4256 36.234 12.5164 36.3272C12.6071 36.4205 12.7312 36.4741 12.8615 36.4762H12.8698C12.9988 36.4762 13.1226 36.4255 13.2146 36.3352C13.3065 36.245 13.3593 36.1223 13.3614 35.9936L13.5206 26.4836H17.2195C17.3501 26.4836 17.4752 26.4319 17.5675 26.3398C17.6598 26.2477 17.7116 26.1229 17.7116 25.9927C17.7116 25.8625 17.6598 25.7376 17.5675 25.6455C17.4752 25.5535 17.3501 25.5017 17.2195 25.5017H12.9874V24.0011H17.2195C17.3501 24.0011 17.4752 23.9494 17.5675 23.8573C17.6598 23.7653 17.7116 23.6404 17.7116 23.5102C17.7116 23.38 17.6598 23.2551 17.5675 23.163C17.4752 23.0709 17.3501 23.0192 17.2195 23.0192H13.6357L13.642 22.238H19.7236L19.7174 23.0192H19.5511C19.4206 23.0192 19.2955 23.0709 19.2032 23.163C19.1109 23.2551 19.059 23.38 19.059 23.5102C19.059 23.6404 19.1109 23.7653 19.2032 23.8573C19.2955 23.9494 19.4206 24.0011 19.5511 24.0011H20.3595V25.5017H19.5511C19.4206 25.5017 19.2955 25.5535 19.2032 25.6455C19.1109 25.7376 19.059 25.8625 19.059 25.9927C19.059 26.1229 19.1109 26.2477 19.2032 26.3398C19.2955 26.4319 19.4206 26.4836 19.5511 26.4836H19.8283L19.9726 34.0165C19.9751 34.1451 20.028 34.2675 20.12 34.3575C20.212 34.4476 20.3358 34.498 20.4646 34.4979H20.4742C20.5388 34.4968 20.6025 34.4829 20.6618 34.4571C20.721 34.4313 20.7745 34.3941 20.8194 34.3477C20.8642 34.3013 20.8994 34.2465 20.9229 34.1864C20.9465 34.1264 20.958 34.0623 20.9567 33.9979L20.8125 26.4836H20.8516C20.9162 26.4836 20.9802 26.4709 21.0399 26.4462C21.0996 26.4216 21.1538 26.3854 21.1995 26.3398C21.2452 26.2942 21.2815 26.2401 21.3062 26.1805C21.3309 26.121 21.3436 26.0571 21.3436 25.9927V23.5102C21.3436 23.38 21.2918 23.2551 21.1995 23.163C21.1072 23.0709 20.9821 23.0192 20.8516 23.0192H20.7032L20.7132 21.7512C20.7136 21.6862 20.701 21.6217 20.6761 21.5616C20.6511 21.5015 20.6144 21.447 20.5681 21.4013Z" fill="white"/>
<path d="M15.7445 40.7641L7.0134 35.5636C6.93873 35.5191 6.85357 35.4952 6.76661 35.4942C6.67964 35.4933 6.59397 35.5153 6.51832 35.5581C6.44268 35.6009 6.37975 35.663 6.33596 35.7379C6.29217 35.8129 6.26908 35.8981 6.26904 35.9849V55.5091C6.26904 55.6393 6.32089 55.7642 6.41317 55.8562C6.50545 55.9483 6.63062 56 6.76112 56H15.3788C15.5093 56 15.6345 55.9483 15.7268 55.8562C15.819 55.7642 15.8709 55.6393 15.8709 55.5091C15.8709 55.3789 15.819 55.254 15.7268 55.1619C15.6345 55.0698 15.5093 55.0181 15.3788 55.0181H7.25529V36.8499L15.2421 41.6071C15.2976 41.6409 15.3592 41.6634 15.4235 41.6733C15.4878 41.6832 15.5534 41.6803 15.6165 41.6647C15.6796 41.6492 15.739 41.6213 15.7913 41.5827C15.8436 41.5441 15.8876 41.4955 15.921 41.4398C15.9543 41.3841 15.9763 41.3224 15.9855 41.2581C15.9948 41.1939 15.9912 41.1285 15.975 41.0657C15.9588 41.0029 15.9303 40.9439 15.8911 40.8921C15.8519 40.8403 15.8028 40.7969 15.7466 40.7641H15.7445Z" fill="white"/>
<path d="M10.5387 43.1517C10.4081 43.1517 10.283 43.2034 10.1907 43.2954C10.0984 43.3875 10.0466 43.5124 10.0466 43.6426V48.3903C10.0467 48.5205 10.0986 48.6453 10.1908 48.7374C10.2831 48.8294 10.4082 48.8812 10.5387 48.8813H13.1528C13.2833 48.8812 13.4084 48.8294 13.5007 48.7374C13.5929 48.6453 13.6448 48.5205 13.6449 48.3903V43.6426C13.6449 43.5124 13.5931 43.3875 13.5008 43.2954C13.4085 43.2034 13.2834 43.1517 13.1528 43.1517H10.5387ZM12.6608 47.8994H11.0307V44.1327H12.6608V47.8994Z" fill="white"/>
<path d="M26.2487 40.7641L17.5171 35.5636C17.4425 35.5191 17.3574 35.4951 17.2704 35.4941C17.1834 35.4931 17.0978 35.5152 17.0222 35.558C16.9465 35.6009 16.8836 35.6629 16.8399 35.7379C16.7962 35.8129 16.7731 35.8981 16.7732 35.9849V55.509C16.7732 55.6392 16.825 55.7641 16.9173 55.8562C17.0096 55.9482 17.1348 56 17.2653 56H25.8825C26.0131 56 26.1382 55.9482 26.2305 55.8562C26.3228 55.7641 26.3746 55.6392 26.3746 55.509C26.3746 55.3788 26.3228 55.2539 26.2305 55.1619C26.1382 55.0698 26.0131 55.0181 25.8825 55.0181H17.7574V36.8498L25.7441 41.6071C25.8561 41.6723 25.9894 41.6908 26.115 41.6586C26.2405 41.6263 26.3483 41.5459 26.4148 41.4348C26.4813 41.3238 26.5011 41.191 26.47 41.0654C26.4389 40.9398 26.3594 40.8315 26.2487 40.7641Z" fill="white"/>
<path d="M37.7341 41.8609L28.0358 35.5731C27.9615 35.5252 27.8756 35.498 27.7872 35.4946C27.6987 35.4912 27.611 35.5117 27.5332 35.5538C27.4554 35.5959 27.3904 35.6582 27.3451 35.7341C27.2998 35.8099 27.2758 35.8966 27.2757 35.9849V55.509C27.2758 55.6392 27.3277 55.764 27.4199 55.8561C27.5122 55.9481 27.6373 55.9999 27.7678 56H37.4661C37.5966 56 37.7217 55.9483 37.814 55.8562C37.9063 55.7641 37.9581 55.6393 37.9581 55.509V42.2726C37.9581 42.1908 37.9377 42.1103 37.8985 42.0384C37.8594 41.9665 37.8029 41.9055 37.7341 41.8609ZM36.974 55.0181H28.2586V36.8892L36.974 42.5388V55.0181Z" fill="white"/>
<path d="M21.0427 43.1517C20.9122 43.1517 20.7871 43.2034 20.6948 43.2954C20.6025 43.3875 20.5507 43.5124 20.5507 43.6426V48.3903C20.5508 48.5205 20.6026 48.6453 20.6949 48.7374C20.7872 48.8294 20.9123 48.8812 21.0427 48.8813H23.6569C23.7874 48.8812 23.9125 48.8294 24.0048 48.7374C24.097 48.6453 24.1489 48.5205 24.149 48.3903V43.6426C24.149 43.5124 24.0972 43.3875 24.0049 43.2954C23.9126 43.2034 23.7874 43.1517 23.6569 43.1517H21.0427ZM23.1648 47.8994H21.5348V44.1327H23.1648V47.8994Z" fill="white"/>
<path d="M30.8678 48.8813H33.4803C33.6108 48.8812 33.7359 48.8294 33.8281 48.7374C33.9204 48.6453 33.9723 48.5205 33.9724 48.3903V43.6426C33.9724 43.5124 33.9205 43.3875 33.8283 43.2954C33.736 43.2034 33.6108 43.1517 33.4803 43.1517H30.8661C30.7356 43.1517 30.6104 43.2034 30.5182 43.2954C30.4259 43.3875 30.374 43.5124 30.374 43.6426V48.3903C30.3741 48.4549 30.3869 48.5189 30.4117 48.5785C30.4366 48.6382 30.473 48.6924 30.5189 48.738C30.5647 48.7836 30.6191 48.8197 30.679 48.8443C30.7389 48.8689 30.803 48.8814 30.8678 48.8813ZM31.3607 44.1327H32.9907V47.8986H31.3607V44.1327Z" fill="white"/>
<path d="M39.3184 6.46686C38.9605 6.02017 38.4829 5.68399 37.9411 5.49741C37.8882 4.99849 37.7148 4.51981 37.4359 4.10239C37.1569 3.68497 36.7806 3.34127 36.3393 3.10074C35.898 2.86022 35.4048 2.73004 34.902 2.72138C34.3993 2.71271 33.9019 2.82581 33.4525 3.05098C32.8357 1.94311 31.8678 1.07087 30.7005 0.571072C29.5332 0.0712784 28.2327 -0.0277817 27.0029 0.289437C25.7731 0.606657 24.6837 1.3222 23.9055 2.32382C23.1273 3.32544 22.7044 4.55646 22.7031 5.82374C22.7031 5.88262 22.7031 5.94109 22.7061 5.99997C21.8844 6.04799 21.0975 6.34746 20.4525 6.85763C19.8075 7.3678 19.3358 8.06387 19.1015 8.85109C18.399 8.77122 17.6878 8.87818 17.0402 9.16115C16.3925 9.44412 15.8314 9.89301 15.4139 10.4623C14.9963 11.0315 14.7371 11.7008 14.6627 12.4023C14.5882 13.1038 14.7011 13.8124 14.9898 14.4563C14.545 14.7762 14.1929 15.2077 13.969 15.707C13.7451 16.2064 13.6574 16.7559 13.7149 17.3C13.7723 17.844 13.9729 18.3632 14.2962 18.8051C14.6194 19.2469 15.054 19.5957 15.5559 19.8161C16.0577 20.0365 16.609 20.1206 17.154 20.0601C17.6989 19.9995 18.2181 19.7963 18.6591 19.4712C19.1 19.146 19.447 18.7103 19.6649 18.2083C19.8828 17.7063 19.9638 17.1558 19.8999 16.6125C20.2699 16.4901 20.6199 16.3144 20.9389 16.0909C21.3794 16.6034 21.943 16.9962 22.577 17.2325C23.211 17.4687 23.8947 17.5408 24.5641 17.4419C25.2336 17.343 25.867 17.0763 26.4052 16.6669C26.9433 16.2575 27.3687 15.7186 27.6414 15.1007C28.4127 15.4862 29.2612 15.6933 30.1238 15.7065C30.9863 15.7198 31.8408 15.5388 32.6236 15.1771C33.4064 14.8153 34.0974 14.2822 34.6451 13.6173C35.1929 12.9523 35.5833 12.1728 35.7874 11.3365C36.2584 11.515 36.7659 11.5767 37.2661 11.5163C37.7663 11.4558 38.2443 11.2751 38.659 10.9895C39.0737 10.704 39.4127 10.3222 39.6468 9.87706C39.8809 9.4319 40.0031 8.93666 40.0029 8.43396C40.0042 7.7199 39.7629 7.0265 39.3184 6.46686ZM36.8883 10.5561C36.5563 10.5565 36.2288 10.479 35.9324 10.3297C35.9391 10.2157 35.9428 10.1013 35.9428 9.98598C35.9428 9.85578 35.891 9.73091 35.7987 9.63884C35.7064 9.54677 35.5812 9.49504 35.4507 9.49504C35.3202 9.49504 35.1951 9.54677 35.1028 9.63884C35.0105 9.73091 34.9587 9.85578 34.9587 9.98598C34.9584 10.809 34.7434 11.6177 34.3348 12.3326C33.9262 13.0475 33.3381 13.644 32.6283 14.0632C31.9185 14.4825 31.1115 14.7102 30.2867 14.7239C29.4619 14.7375 28.6478 14.5367 27.9245 14.1412C27.9602 13.9259 27.9781 13.708 27.9781 13.4898C27.9781 13.3596 27.9262 13.2347 27.8339 13.1426C27.7417 13.0506 27.6165 12.9988 27.486 12.9988C27.3555 12.9988 27.2303 13.0506 27.138 13.1426C27.0457 13.2347 26.9939 13.3596 26.9939 13.4898C26.994 14.1074 26.8038 14.71 26.4491 15.2162C26.0944 15.7223 25.5923 16.1075 25.0109 16.3194C24.4295 16.5313 23.7968 16.5598 23.1986 16.401C22.6004 16.2422 22.0656 15.9038 21.6666 15.4316C22.1511 14.8758 22.4715 14.1969 22.5922 13.4703C22.6027 13.4067 22.6005 13.3416 22.5857 13.2788C22.571 13.216 22.544 13.1567 22.5064 13.1044C22.4687 13.052 22.421 13.0075 22.3661 12.9735C22.3112 12.9395 22.2501 12.9166 22.1863 12.9062C22.1226 12.8957 22.0573 12.8979 21.9944 12.9126C21.9315 12.9273 21.8721 12.9542 21.8196 12.9918C21.7671 13.0294 21.7225 13.0769 21.6884 13.1317C21.6543 13.1865 21.6314 13.2474 21.6209 13.3111C21.5195 13.9147 21.2367 14.4733 20.8099 14.913C20.3832 15.3527 19.8326 15.6527 19.2311 15.7732L19.2104 15.7786C19.2042 15.7796 19.1981 15.781 19.1921 15.7828H19.1879C19.1782 15.7855 19.1687 15.7889 19.1592 15.7927L19.1409 15.7989C19.1318 15.8027 19.1227 15.8072 19.1139 15.8114C19.1052 15.8155 19.1023 15.8168 19.0965 15.8201C19.0907 15.8234 19.0803 15.8292 19.072 15.8342L19.0545 15.8446C19.0474 15.8495 19.0404 15.8545 19.0337 15.8599C19.0271 15.8653 19.0213 15.8686 19.0158 15.8732L18.9976 15.8893L18.9801 15.9051C18.9747 15.9105 18.9693 15.9167 18.9639 15.9225C18.9585 15.9283 18.9535 15.9337 18.9485 15.9399C18.9435 15.9462 18.9385 15.9528 18.9336 15.9594C18.9286 15.9661 18.9244 15.9714 18.9203 15.9777C18.9161 15.9839 18.9107 15.9922 18.9061 15.9996C18.9016 16.0071 18.8991 16.0112 18.8957 16.0175C18.8924 16.0237 18.887 16.0341 18.8833 16.0423C18.8795 16.0506 18.8774 16.0535 18.875 16.0593C18.8725 16.0652 18.8679 16.0772 18.8646 16.0863C18.8612 16.0954 18.86 16.0979 18.8583 16.1037C18.8567 16.1095 18.8533 16.1215 18.8509 16.1311C18.8484 16.1406 18.8471 16.1435 18.8459 16.1497C18.8446 16.156 18.843 16.1672 18.8413 16.1759C18.8396 16.1846 18.8388 16.19 18.838 16.197C18.8371 16.2041 18.838 16.2132 18.838 16.2215C18.838 16.2298 18.838 16.2376 18.838 16.2455C18.838 16.2534 18.838 16.2609 18.838 16.2683C18.838 16.2758 18.838 16.2862 18.838 16.2949C18.838 16.3036 18.838 16.3094 18.8405 16.3168C18.843 16.3243 18.843 16.3351 18.8446 16.3442C18.8446 16.3442 18.8446 16.3471 18.8446 16.3488C18.8446 16.3591 18.8492 16.3687 18.8517 16.3786C18.8517 16.3815 18.8517 16.3848 18.8517 16.3877C18.9573 16.7579 18.96 17.1497 18.8595 17.5213C18.7591 17.8928 18.5592 18.2301 18.2813 18.497C18.0034 18.7639 17.6579 18.9503 17.282 19.0363C16.906 19.1223 16.5136 19.1047 16.147 18.9853C15.7803 18.8659 15.453 18.6492 15.2003 18.3585C14.9476 18.0677 14.7789 17.7139 14.7123 17.3348C14.6458 16.9557 14.6838 16.5658 14.8224 16.2066C14.9609 15.8474 15.1948 15.5327 15.499 15.296C15.7789 15.6476 16.1161 15.9498 16.4964 16.19C16.6066 16.2598 16.7402 16.2831 16.8676 16.2547C16.995 16.2263 17.1059 16.1486 17.1759 16.0386C17.2459 15.9286 17.2693 15.7954 17.2408 15.6683C17.2124 15.5412 17.1345 15.4305 17.0242 15.3607C16.6359 15.1145 16.309 14.7833 16.0683 14.392C16.0614 14.3796 16.0539 14.3676 16.0459 14.356C15.6802 13.7425 15.5446 13.0195 15.6634 12.3156C15.7821 11.6118 16.1474 10.9728 16.6941 10.5126C17.2409 10.0523 17.9337 9.80068 18.6491 9.80243C19.3645 9.80417 20.056 10.0592 20.6006 10.5221C20.7005 10.6008 20.827 10.6378 20.9537 10.6254C21.0803 10.613 21.1972 10.5521 21.2798 10.4555C21.3624 10.3589 21.4043 10.2341 21.3967 10.1074C21.3891 9.98066 21.3325 9.86179 21.2389 9.77575C20.8885 9.47761 20.4888 9.24234 20.0578 9.08039C20.2427 8.48726 20.6077 7.96609 21.1024 7.5889C21.597 7.2117 22.1969 6.99712 22.8191 6.97481C22.8487 7.11772 22.8835 7.2594 22.9234 7.39982C22.9528 7.50232 23.0149 7.59246 23.1002 7.65665C23.1856 7.72084 23.2895 7.75556 23.3964 7.75558C23.4424 7.75571 23.4881 7.74929 23.5323 7.73651C23.5944 7.71875 23.6524 7.68896 23.7029 7.64884C23.7535 7.60871 23.7956 7.55905 23.8269 7.50268C23.8582 7.4463 23.8781 7.38432 23.8853 7.32028C23.8926 7.25625 23.8872 7.19141 23.8693 7.12947C23.5432 5.99994 23.6494 4.7898 24.1673 3.734C24.6852 2.67819 25.5778 1.85203 26.6719 1.41592C27.766 0.979815 28.9835 0.964865 30.088 1.37397C31.1926 1.78308 32.1053 2.58706 32.6491 3.62983C32.4459 3.8323 32.2718 4.06184 32.1317 4.31193C32.0681 4.42564 32.0524 4.5599 32.088 4.68517C32.1236 4.81045 32.2076 4.91647 32.3216 4.97993C32.4356 5.04338 32.5702 5.05906 32.6957 5.02353C32.8213 4.98799 32.9276 4.90414 32.9912 4.79043C33.2534 4.31294 33.6895 3.95428 34.2094 3.78862C34.7292 3.62295 35.293 3.66297 35.7841 3.9004C36.2753 4.13782 36.6561 4.55448 36.8479 5.0642C37.0398 5.57392 37.0279 6.13771 36.8148 6.63894C36.7645 6.75908 36.764 6.89425 36.8136 7.0147C36.8632 7.13516 36.9587 7.23103 37.0791 7.28123C37.1995 7.33143 37.335 7.33185 37.4557 7.28239C37.5765 7.23294 37.6726 7.13765 37.7229 7.01751C37.7886 6.86041 37.8412 6.69814 37.88 6.53237C38.5707 6.87902 39.0196 7.60051 39.0196 8.43478C39.0193 8.71369 38.9639 8.9898 38.8566 9.24735C38.7493 9.5049 38.5922 9.73885 38.3943 9.93583C38.1964 10.1328 37.9616 10.289 37.7032 10.3954C37.4448 10.5018 37.1679 10.5565 36.8883 10.5561Z" fill="white"/>
<path d="M5.09165 19.972C5.91628 19.971 6.70686 19.6437 7.28996 19.062C7.87306 18.4802 8.20109 17.6915 8.20208 16.8687C8.20188 16.7486 8.1948 16.6286 8.18088 16.5092C8.55088 16.3871 8.90094 16.2114 9.21991 15.988C9.59563 16.4254 10.0618 16.7764 10.5864 17.017C11.1109 17.2575 11.6815 17.3819 12.2589 17.3817C12.3246 17.3836 12.3902 17.3723 12.4515 17.3485C12.5129 17.3247 12.5688 17.2888 12.616 17.2431C12.6632 17.1973 12.7008 17.1426 12.7264 17.0821C12.752 17.0216 12.7652 16.9566 12.7652 16.8909C12.7652 16.8252 12.752 16.7602 12.7264 16.6997C12.7008 16.6393 12.6632 16.5845 12.616 16.5387C12.5688 16.493 12.5129 16.4572 12.4515 16.4334C12.3902 16.4096 12.3246 16.3983 12.2589 16.4002C11.8192 16.4003 11.3849 16.3045 10.9862 16.1196C10.5876 15.9346 10.2342 15.665 9.95097 15.3296C10.4355 14.7737 10.7559 14.0946 10.8765 13.3678C10.8977 13.2393 10.8668 13.1077 10.7907 13.0019C10.7146 12.8961 10.5995 12.8248 10.4707 12.8037C10.3419 12.7826 10.21 12.8134 10.1039 12.8893C9.99788 12.9653 9.92641 13.0801 9.90525 13.2086C9.8038 13.8123 9.52098 14.371 9.09424 14.8107C8.6675 15.2505 8.11695 15.5505 7.51549 15.6712C7.50801 15.6712 7.50094 15.675 7.49346 15.6766L7.47642 15.6803H7.47268C7.46229 15.6832 7.45232 15.687 7.44276 15.6903L7.42572 15.6965L7.39704 15.7094L7.38083 15.7172C7.3721 15.7218 7.36421 15.7268 7.35589 15.7322C7.34758 15.7376 7.34426 15.7384 7.33885 15.7421C7.33345 15.7459 7.32431 15.7525 7.31724 15.7579C7.31018 15.7633 7.30561 15.7662 7.3002 15.7707C7.2948 15.7753 7.28773 15.7815 7.2815 15.7873C7.27567 15.7921 7.27012 15.7972 7.26488 15.8027L7.24784 15.8205C7.24285 15.8263 7.23745 15.8317 7.23287 15.8375C7.2283 15.8433 7.22249 15.8508 7.2175 15.8574C7.21251 15.864 7.20835 15.869 7.20461 15.8748C7.20087 15.8806 7.19505 15.8902 7.19007 15.8976C7.18508 15.9051 7.183 15.9088 7.18009 15.9146C7.17718 15.9204 7.17136 15.9316 7.16721 15.9403C7.16305 15.949 7.1618 15.9511 7.15931 15.9569C7.15682 15.9627 7.15225 15.9752 7.14892 15.9843C7.1456 15.9934 7.14435 15.9955 7.14269 16.0009C7.14102 16.0063 7.13728 16.0195 7.13479 16.0286C7.1323 16.0378 7.13146 16.0407 7.13022 16.0469C7.12897 16.0531 7.12689 16.0647 7.12565 16.0738C7.1244 16.083 7.12315 16.0875 7.12232 16.0946C7.12149 16.1016 7.12232 16.1112 7.12232 16.1195C7.12232 16.1277 7.12232 16.1352 7.12232 16.1431C7.12232 16.151 7.12232 16.1584 7.12232 16.1663C7.12232 16.1742 7.12232 16.1833 7.12232 16.1924C7.12232 16.2016 7.12232 16.2074 7.12481 16.2148C7.12731 16.2223 7.12731 16.2327 7.12897 16.2414C7.12897 16.2414 7.12897 16.2447 7.12897 16.2463C7.13105 16.2567 7.13396 16.2667 7.13645 16.2766C7.13645 16.2795 7.13645 16.2824 7.13645 16.2853C7.24208 16.6554 7.2448 17.0473 7.14431 17.4188C7.04383 17.7904 6.84394 18.1277 6.56604 18.3945C6.28814 18.6614 5.9427 18.8479 5.56673 18.9339C5.19076 19.0199 4.79841 19.0023 4.43172 18.8829C4.06503 18.7635 3.7378 18.5468 3.48509 18.256C3.23237 17.9653 3.06369 17.6114 2.99711 17.2324C2.93053 16.8533 2.96856 16.4633 3.10713 16.1042C3.24569 15.745 3.47957 15.4302 3.78372 15.1935C4.06381 15.5451 4.40097 15.8472 4.78119 16.0875C4.89141 16.1574 5.02493 16.1806 5.15237 16.1523C5.2798 16.1239 5.39072 16.0462 5.46071 15.9362C5.53071 15.8262 5.55405 15.693 5.5256 15.5659C5.49715 15.4387 5.41924 15.3281 5.30901 15.2582C4.9207 15.0122 4.59377 14.6811 4.35311 14.29C4.34604 14.2776 4.33856 14.2656 4.33067 14.2535C3.96874 13.6404 3.83596 12.9193 3.95582 12.2178C4.07568 11.5164 4.44045 10.8798 4.98555 10.421C5.53065 9.96209 6.22092 9.71044 6.93414 9.71058C7.64736 9.71073 8.33752 9.96266 8.88243 10.4218C8.98232 10.5004 9.10887 10.5375 9.23552 10.525C9.36218 10.5126 9.47908 10.4517 9.56169 10.3551C9.6443 10.2585 9.68619 10.1338 9.67857 10.007C9.67094 9.8803 9.6144 9.76143 9.52081 9.6754C9.17011 9.37754 8.77053 9.1423 8.33965 8.98003C8.52458 8.38695 8.8896 7.86583 9.38427 7.48871C9.87893 7.11159 10.4788 6.89708 11.101 6.87486C11.1305 7.0175 11.165 7.15972 11.2053 7.29987C11.2412 7.42507 11.3255 7.53091 11.4397 7.59409C11.5538 7.65727 11.6884 7.67262 11.8139 7.63677C11.9394 7.60092 12.0455 7.51681 12.1088 7.40293C12.1722 7.28904 12.1876 7.15472 12.1516 7.02952C11.8192 5.8717 11.9411 4.63106 12.4924 3.55963C13.0438 2.48821 13.9832 1.66636 15.12 1.26104C16.2567 0.855729 17.5055 0.897346 18.6126 1.37744C19.7197 1.85754 20.6022 2.7401 21.0806 3.84585C21.1055 3.90601 21.1422 3.96062 21.1885 4.00651C21.2348 4.0524 21.2898 4.08864 21.3502 4.11313C21.4107 4.13762 21.4754 4.14987 21.5407 4.14917C21.6059 4.14846 21.6704 4.13482 21.7303 4.10903C21.7902 4.08324 21.8444 4.04581 21.8897 3.99894C21.9349 3.95206 21.9704 3.89667 21.994 3.83598C22.0177 3.7753 22.029 3.71053 22.0273 3.64545C22.0256 3.58037 22.0109 3.51628 21.9841 3.45691C21.4608 2.24915 20.5363 1.25823 19.3663 0.651057C18.1962 0.0438796 16.8522 -0.14246 15.5606 0.123428C14.269 0.389315 13.1087 1.09118 12.2751 2.11081C11.4415 3.13044 10.9856 4.40552 10.9842 5.7213C10.9842 5.78018 10.9842 5.83864 10.9871 5.89753C10.1654 5.94555 9.3785 6.24503 8.73351 6.7552C8.08853 7.26537 7.61678 7.96143 7.38249 8.74865C6.68001 8.66877 5.96884 8.77575 5.32119 9.05872C4.67353 9.34169 4.11244 9.79058 3.69488 10.3598C3.27732 10.9291 3.01815 11.5984 2.94368 12.2999C2.86921 13.0013 2.98209 13.71 3.27086 14.3539C2.73779 14.738 2.34046 15.2808 2.13592 15.9043C1.93139 16.5278 1.93017 17.1999 2.13246 17.8242C2.33474 18.4484 2.73011 18.9926 3.26178 19.3787C3.79346 19.7647 4.43408 19.9727 5.09165 19.9728V19.972Z" fill="white"/>
</svg>
