<svg width="20" height="20" viewBox="0 0 20 20" fill="none" xmlns="http://www.w3.org/2000/svg">
<path d="M10.2952 14.1494L14.141 10.3013C14.3207 10.1205 14.4215 9.87582 14.4215 9.62083C14.4215 9.36583 14.3207 9.12119 14.141 8.94031L10.2952 5.09233C10.1143 4.91463 9.87065 4.81557 9.61717 4.81672C9.3637 4.81787 9.12093 4.91913 8.94169 5.09847C8.76246 5.27781 8.66125 5.52071 8.66011 5.77433C8.65896 6.02795 8.75796 6.27176 8.93556 6.45272L11.1403 8.65877H5.76922C5.5142 8.65877 5.26963 8.76014 5.08931 8.94056C4.90898 9.12099 4.80768 9.3657 4.80768 9.62086C4.80768 9.87602 4.90898 10.1207 5.08931 10.3012C5.26963 10.4816 5.5142 10.5829 5.76922 10.5829H11.1403L8.93551 12.789C8.75708 12.9698 8.65739 13.2139 8.65819 13.468C8.659 13.722 8.76023 13.9655 8.9398 14.1451C9.11937 14.3248 9.36268 14.4261 9.61661 14.4269C9.87055 14.4277 10.1145 14.3279 10.2952 14.1494Z" fill="#6563FF"/>
<path d="M19.2308 9.62085C19.2308 7.71803 18.6668 5.85794 17.6103 4.2758C16.5537 2.69366 15.052 1.46053 13.295 0.732348C11.5381 0.00416856 9.60472 -0.186356 7.73952 0.184866C5.87432 0.556089 4.16102 1.47239 2.81629 2.81789C1.47155 4.16338 0.555773 5.87766 0.184761 7.74392C-0.18625 9.61018 0.00416619 11.5446 0.731932 13.3026C1.4597 15.0606 2.69213 16.5631 4.27337 17.6203C5.85461 18.6774 7.71365 19.2417 9.61539 19.2417C12.1647 19.2389 14.6087 18.2243 16.4114 16.4207C18.214 14.617 19.2279 12.1716 19.2308 9.62085ZM8.93558 14.1494C8.84627 14.0601 8.77543 13.954 8.72709 13.8373C8.67876 13.7206 8.65388 13.5955 8.65388 13.4692C8.65388 13.3428 8.67876 13.2177 8.72709 13.101C8.77543 12.9843 8.84627 12.8783 8.93558 12.7889L11.1403 10.5829H5.76924C5.51422 10.5829 5.26965 10.4816 5.08932 10.3011C4.909 10.1207 4.8077 9.87601 4.8077 9.62085C4.8077 9.36569 4.909 9.12098 5.08932 8.94056C5.26965 8.76013 5.51422 8.65877 5.76924 8.65877H11.1403L8.93558 6.45271C8.75798 6.27175 8.65898 6.02794 8.66012 5.77432C8.66127 5.5207 8.76247 5.27779 8.94171 5.09845C9.12095 4.91911 9.36372 4.81785 9.61719 4.8167C9.87067 4.81556 10.1143 4.91461 10.2952 5.09232L14.1411 8.94036C14.3207 9.12124 14.4215 9.36588 14.4215 9.62088C14.4215 9.87588 14.3207 10.1205 14.1411 10.3014L10.2952 14.1494C10.2059 14.2387 10.1 14.3096 9.98332 14.358C9.86667 14.4063 9.74165 14.4312 9.61539 14.4312C9.48913 14.4312 9.36411 14.4063 9.24746 14.358C9.13082 14.3096 9.02484 14.2387 8.93558 14.1494Z" fill="#B2B1FF"/>
</svg>
