<svg width="61" height="13" viewBox="0 0 61 13" fill="none" xmlns="http://www.w3.org/2000/svg">
<g clip-path="url(#clip0_34_19)">
<path d="M51.5015 0L51.6024 0.101217L58.3729 6.38051V0.372069H61V13.0009C58.7095 10.8735 56.419 8.71228 54.0949 6.58482V12.5614H51.5015V0.00281151V0Z" fill="white"/>
<path d="M0.909653 1.95876C1.61643 0.911902 2.86265 0.33833 4.07521 0.203372C5.92817 0.0337379 7.94941 0.338331 9.39756 1.62137C8.79081 2.19494 8.15135 2.73571 7.5446 3.30834C6.87148 2.70103 5.96182 2.39644 5.05217 2.39644C4.37811 2.3627 3.67133 2.59981 3.30111 3.17338C3.17394 3.38134 3.12443 3.62777 3.16141 3.86886C3.19838 4.10996 3.31943 4.3301 3.50305 4.49016C4.10886 4.99719 4.88389 5.23336 5.62526 5.50328C6.70226 5.84067 7.77552 6.21274 8.65619 6.95501C9.87155 7.93439 10.138 9.9269 9.19562 11.1724C8.38694 12.253 7.07341 12.8275 5.75989 12.9278C4.58098 12.9616 3.40208 12.9278 2.29049 12.523C1.44909 12.253 0.70678 11.7798 0 11.2737C0.605812 10.6992 1.24621 10.1256 1.85203 9.55107C2.8963 10.3618 4.24349 10.8013 5.55795 10.6317C6.1301 10.5314 6.73685 10.2268 6.93879 9.65323C7.07341 9.1462 6.76957 8.64011 6.33204 8.403C4.98486 7.62699 3.40208 7.45829 2.08762 6.61387C1.38084 6.17526 0.774093 5.49953 0.538499 4.68978C0.26925 3.74414 0.370218 2.73102 0.912457 1.95407L0.909653 1.95876Z" fill="white"/>
<path d="M14.2478 0.408615H16.8749V5.2371H22.1972V0.408615H24.8579V12.6289H22.1972V7.2268H16.8749V12.6289H14.2478V0.408615Z" fill="white"/>
<path d="M30.011 0.408615H38.9711V2.36644H32.6054V5.27178H38.8692V7.19681H32.6054V10.5398H38.9711V12.6326H30.011V0.408615Z" fill="white"/>
<path d="M43.653 0.408615H46.281V12.6289H43.653V0.408615Z" fill="white"/>
</g>
<defs>
<clipPath id="clip0_34_19">
<rect width="61" height="13" fill="white"/>
</clipPath>
</defs>
</svg>
