<svg width="175" height="98" viewBox="0 0 175 98" fill="none" xmlns="http://www.w3.org/2000/svg">
<g clip-path="url(#clip0_296_89)">
<path d="M175 41.944L164.844 16.8887C164.658 16.5184 164.379 16.2075 164.038 15.989C163.697 15.7705 163.306 15.6524 162.906 15.6473H131.25C130.678 15.6473 130.129 15.8848 129.725 16.3075C129.321 16.7302 129.094 17.3035 129.094 17.9013V65.758C127.943 66.5907 126.893 67.5671 125.969 68.6653H114.375L119.781 63.8307C119.99 63.6189 120.156 63.3649 120.269 63.0842C120.382 62.8035 120.439 62.5018 120.437 62.1973V9.93067C120.437 9.34154 120.213 8.77653 119.815 8.35995C119.416 7.94337 118.876 7.70934 118.312 7.70934H55.156L48.2498 0.489999C47.8548 0.174404 47.372 0.00234435 46.8748 1.29888e-08H37.4998C37.2181 -3.18312e-05 36.9392 0.0584901 36.6793 0.17216C36.4194 0.285829 36.1838 0.452379 35.986 0.662121C35.7883 0.871863 35.6324 1.12061 35.5275 1.39389C35.4226 1.66718 35.3707 1.95955 35.3748 2.254V13.6873L7.84356 52.2667H2.12481C1.55837 52.2752 1.01791 52.5165 0.62027 52.9383C0.222629 53.3601 -0.000251376 53.9285 -0.000191879 54.5207V68.6C-0.00681116 69.0948 0.147158 69.5773 0.4366 69.9689C0.726041 70.3604 1.13387 70.6379 1.59356 70.756L5.18731 71.736L13.4061 83.79C13.5956 84.1135 13.8623 84.3799 14.1801 84.5632C14.4978 84.7465 14.8557 84.8402 15.2186 84.8353H28.3436C29.2736 88.6103 31.3778 91.9549 34.3251 94.3429C37.2725 96.731 40.8957 98.0269 44.6248 98.0269C48.3539 98.0269 51.9771 96.731 54.9244 94.3429C57.8718 91.9549 59.976 88.6103 60.906 84.8353H121.875C122.818 88.6117 124.932 91.9546 127.886 94.3406C130.841 96.7266 134.469 98.021 138.203 98.021C141.936 98.021 145.565 96.7266 148.519 94.3406C151.474 91.9546 153.588 88.6117 154.531 84.8353H167.031C167.349 84.8417 167.663 84.7713 167.951 84.6297C168.238 84.488 168.49 84.2789 168.687 84.0187L174.5 76.5053C174.817 76.1247 174.994 75.6383 175 75.1333V42.4667V41.944ZM144.687 64.2227V44.0347H171.875V68.6H150.719C149.027 66.6821 146.944 65.1861 144.625 64.2227H144.687ZM171.125 40.768H144.625V18.914H162.187L171.125 40.768ZM132.156 18.914H141.531V63.2427C140.502 63.0265 139.455 62.9171 138.406 62.916C136.271 62.898 134.151 63.2968 132.156 64.092V18.914ZM37.9998 15.6473C38.1898 15.451 38.3402 15.2169 38.4421 14.9588C38.5441 14.7007 38.5956 14.4239 38.5936 14.1447V3.26667H46.3435L52.5935 9.8L50.2185 18.9467L25.8123 52.2667H11.7498L37.9998 15.6473ZM3.12481 67.7833V55.5333H8.31231H8.59356H26.2811C26.6116 55.5253 26.9365 55.4422 27.2332 55.29C27.53 55.1377 27.7916 54.9198 27.9998 54.6513L52.9998 20.7107C53.1314 20.3576 53.1744 19.9753 53.1248 19.6L55.3435 11.074H117.312V61.74L109.562 68.6H57.0623C55.4831 66.7722 53.5546 65.3111 51.4014 64.3111C49.2483 63.3111 46.9184 62.7944 44.5623 62.7944C42.2062 62.7944 39.8763 63.3111 37.7232 64.3111C35.57 65.3111 33.6415 66.7722 32.0623 68.6H6.24981L3.12481 67.7833ZM9.15606 71.8667H29.8748C28.4614 74.4653 27.7184 77.4034 27.7186 80.3927C27.7186 80.7847 27.7186 81.1113 27.7186 81.4707H15.6248L9.15606 71.8667ZM58.1873 82.8427C57.6139 86.1664 55.9417 89.1738 53.4627 91.3397C50.9837 93.5055 47.8556 94.6921 44.6248 94.6921C41.394 94.6921 38.2658 93.5055 35.7869 91.3397C33.3079 89.1738 31.6357 86.1664 31.0623 82.8427C30.9013 82.0704 30.8278 81.2809 30.8436 80.4907C30.8218 77.162 31.929 73.933 33.9686 71.3767C35.275 69.7618 36.9022 68.4636 38.737 67.5723C40.5718 66.681 42.5703 66.2179 44.5936 66.2153C46.608 66.2164 48.5978 66.6791 50.4227 67.5708C52.2476 68.4625 53.8633 69.7617 55.156 71.3767C57.2053 73.9272 58.3137 77.1601 58.281 80.4907C58.3151 81.2978 58.2838 82.1064 58.1873 82.908V82.8427ZM102.719 81.6667V76.8973C102.719 76.4641 102.554 76.0487 102.261 75.7424C101.968 75.4361 101.57 75.264 101.156 75.264C100.742 75.264 100.344 75.4361 100.051 75.7424C99.7581 76.0487 99.5935 76.4641 99.5935 76.8973V81.6667H83.781V76.8973C83.773 76.4668 83.6059 76.0562 83.3145 75.7516C83.0232 75.4471 82.6304 75.2724 82.2185 75.264C81.8041 75.264 81.4067 75.4361 81.1137 75.7424C80.8207 76.0487 80.656 76.4641 80.656 76.8973V81.6667H61.406C61.406 81.3073 61.406 80.9807 61.406 80.5887C61.4773 77.5449 60.7764 74.5356 59.3748 71.8667H123.5C122.105 74.4718 121.374 77.4074 121.375 80.3927C121.375 80.752 121.375 81.1113 121.375 81.4707L102.719 81.6667ZM138.25 94.7333C135.553 94.714 132.922 93.8603 130.688 92.28C128.455 90.6997 126.719 88.4635 125.7 85.8534C124.681 83.2432 124.424 80.3761 124.961 77.6134C125.499 74.8508 126.807 72.3163 128.72 70.3297C130.634 68.343 133.067 66.9931 135.714 66.4502C138.36 65.9073 141.101 66.1957 143.591 67.2789C146.081 68.3622 148.208 70.1919 149.705 72.5373C151.201 74.8827 152 77.6388 152 80.458C151.983 84.2557 150.526 87.8915 147.949 90.5677C145.371 93.2439 141.883 94.742 138.25 94.7333ZM166.656 81.6667H155.062C155.062 81.3073 155.062 80.948 155.062 80.5887C155.168 77.5531 154.499 74.5428 153.125 71.8667H171.875V74.7413L166.656 81.6667Z" fill="#494949"/>
<path d="M44.625 72.814C42.6827 72.814 40.8195 73.6183 39.4432 75.0509C38.0669 76.4835 37.2895 78.4277 37.2812 80.458C37.2985 81.6033 37.5885 82.726 38.125 83.7247C38.741 84.9569 39.6682 85.9892 40.8058 86.7095C41.9434 87.4298 43.2481 87.8106 44.5781 87.8106C45.9082 87.8106 47.2128 87.4298 48.3504 86.7095C49.4881 85.9892 50.4152 84.9569 51.0313 83.7247C51.5678 82.726 51.8578 81.6033 51.875 80.458C51.8751 78.442 51.1132 76.5075 49.7554 75.0758C48.3975 73.6442 46.5536 72.8312 44.625 72.814ZM48.3125 82.614C47.9568 83.3184 47.4239 83.9079 46.7714 84.3191C46.1188 84.7304 45.3713 84.9477 44.6094 84.9477C43.8474 84.9477 43.0999 84.7304 42.4474 84.3191C41.7948 83.9079 41.262 83.3184 40.9063 82.614L39.5 83.3327L40.875 82.516C40.56 81.9394 40.3981 81.2853 40.4063 80.6213C40.4971 79.5215 40.9792 78.4972 41.7574 77.7509C42.5356 77.0046 43.5533 76.5905 44.6094 76.5905C45.6655 76.5905 46.6831 77.0046 47.4614 77.7509C48.2396 78.4972 48.7217 79.5215 48.8125 80.6213C48.8164 81.2807 48.6662 81.9311 48.375 82.516L49.7188 83.3327L48.3125 82.614Z" fill="#494949"/>
<path d="M138.25 72.814C136.804 72.814 135.39 73.2623 134.187 74.1022C132.985 74.9422 132.048 76.136 131.494 77.5328C130.941 78.9295 130.796 80.4665 131.078 81.9493C131.36 83.432 132.057 84.7941 133.079 85.8631C134.102 86.9322 135.405 87.6602 136.823 87.9551C138.242 88.2501 139.712 88.0987 141.048 87.5201C142.385 86.9416 143.527 85.9618 144.33 84.7048C145.134 83.4477 145.562 81.9698 145.562 80.458C145.554 78.4333 144.781 76.494 143.412 75.0624C142.042 73.6307 140.187 72.8226 138.25 72.814ZM138.25 84.8027C137.42 84.8026 136.61 84.5451 135.92 84.0626C135.231 83.5802 134.694 82.8946 134.378 82.0928C134.062 81.2911 133.981 80.4093 134.145 79.5593C134.31 78.7093 134.711 77.9294 135.3 77.3185C135.889 76.7076 136.638 76.2933 137.452 76.1282C138.267 75.963 139.11 76.0543 139.874 76.3907C140.639 76.727 141.291 77.2931 141.747 78.0172C142.203 78.7414 142.444 79.5909 142.438 80.458C142.45 81.041 142.351 81.6208 142.146 82.1632C141.941 82.7057 141.635 83.1999 141.245 83.6168C140.855 84.0337 140.389 84.3649 139.874 84.591C139.36 84.8171 138.808 84.9335 138.25 84.9333V84.8027Z" fill="#494949"/>
<path d="M51.7188 49.5227C51.9542 49.5265 52.1873 49.4723 52.399 49.3645C52.6108 49.2566 52.7952 49.0982 52.9375 48.902L66.4063 31.2293C66.5385 31.0655 66.6379 30.8757 66.6987 30.671C66.7594 30.4663 66.7802 30.2509 66.7598 30.0376C66.7394 29.8244 66.6782 29.6175 66.5799 29.4295C66.4816 29.2414 66.3482 29.0758 66.1875 28.9427C65.8586 28.6737 65.442 28.5504 65.027 28.5993C64.6121 28.6482 64.2321 28.8653 63.9688 29.204L50.5 46.8767C50.2445 47.2151 50.1274 47.6455 50.1743 48.0738C50.2211 48.5022 50.4281 48.8938 50.75 49.1633C51.0261 49.3917 51.3667 49.518 51.7188 49.5227Z" fill="#494949"/>
<path d="M68.75 49.5227C68.9855 49.5265 69.2186 49.4723 69.4303 49.3645C69.642 49.2566 69.8265 49.0982 69.9688 48.902L83.4688 31.2293C83.7257 30.8871 83.842 30.4522 83.7922 30.0203C83.7424 29.5884 83.5305 29.1949 83.2031 28.9263C82.8758 28.6578 82.4597 28.5361 82.0466 28.5882C81.6334 28.6403 81.2569 28.8618 81 29.204L67.5 46.8767C67.2445 47.2151 67.1274 47.6455 67.1743 48.0739C67.2211 48.5022 67.4281 48.8938 67.75 49.1633C68.0345 49.3986 68.3873 49.5253 68.75 49.5227Z" fill="#494949"/>
<path d="M85.7188 49.5227C85.9543 49.5265 86.1873 49.4723 86.399 49.3645C86.6108 49.2566 86.7952 49.0982 86.9375 48.902L100.438 31.2293C100.693 30.8909 100.81 30.4605 100.763 30.0321C100.716 29.6038 100.509 29.2122 100.188 28.9427C100.029 28.8062 99.8456 28.7045 99.6486 28.6437C99.4516 28.5828 99.2448 28.564 99.0407 28.5884C98.8366 28.6128 98.6393 28.6799 98.4605 28.7856C98.2817 28.8914 98.1251 29.0337 98 29.204L84.375 46.8767C84.1195 47.2151 84.0024 47.6455 84.0493 48.0738C84.0961 48.5022 84.3031 48.8938 84.625 49.1633C84.9343 49.4208 85.3242 49.5489 85.7188 49.5227Z" fill="#494949"/>
<path d="M155.844 50.47H151.281C150.867 50.47 150.469 50.6421 150.176 50.9484C149.883 51.2547 149.719 51.6701 149.719 52.1033C149.719 52.5365 149.883 52.952 150.176 53.2583C150.469 53.5646 150.867 53.7367 151.281 53.7367H155.844C156.258 53.7367 156.656 53.5646 156.949 53.2583C157.242 52.952 157.406 52.5365 157.406 52.1033C157.406 51.6701 157.242 51.2547 156.949 50.9484C156.656 50.6421 156.258 50.47 155.844 50.47Z" fill="#494949"/>
</g>
<defs>
<clipPath id="clip0_296_89">
<rect width="175" height="98" fill="white"/>
</clipPath>
</defs>
</svg>
