<svg width="71" height="65" viewBox="0 0 71 65" fill="none" xmlns="http://www.w3.org/2000/svg">
<path d="M69.2331 48.4454L44.7001 5.85243C43.7824 4.25878 42.4624 2.93541 40.8728 2.01532C39.2833 1.09523 37.4801 0.61084 35.6447 0.61084C33.8092 0.61084 32.006 1.09523 30.4165 2.01532C28.8269 2.93541 27.5069 4.25878 26.5892 5.85243L2.05622 48.4454C1.13237 50.0386 0.644551 51.8482 0.642099 53.6911C0.639647 55.534 1.12265 57.3449 2.04225 58.9406C2.96186 60.5363 4.28546 61.8603 5.87919 62.7786C7.47292 63.6969 9.28027 64.177 11.1184 64.1703H60.1843C62.022 64.1759 63.8286 63.695 65.4215 62.7763C67.0144 61.8576 68.3371 60.5335 69.256 58.938C70.1749 57.3425 70.6574 55.532 70.6547 53.6896C70.652 51.8472 70.1642 50.0382 69.2406 48.4454H69.2331ZM60.1843 60.9173H11.1184C6.65614 60.9173 3.89469 57.1574 3.89469 53.6735C3.89638 52.4079 4.23405 51.1656 4.87302 50.0741L29.406 7.48116C30.0388 6.38241 30.949 5.47002 32.0451 4.83568C33.1411 4.20134 34.3843 3.86738 35.6499 3.86738C36.9154 3.86738 38.1587 4.20134 39.2547 4.83568C40.3507 5.47002 41.2609 6.38241 41.8938 7.48116L66.4268 50.0816C67.0669 51.1727 67.4051 52.4152 67.4066 53.681C67.4006 57.1574 64.6391 60.9173 60.1843 60.9173Z" fill="white"/>
<path d="M35.6514 43.6806C35.1252 43.6803 34.6192 43.4781 34.237 43.1155C33.8548 42.753 33.6254 42.2576 33.596 41.7309L32.1764 16.733C32.1486 16.2583 32.2179 15.7829 32.3799 15.336C32.542 14.8891 32.7935 14.4801 33.1189 14.1342C33.4443 13.7882 33.8368 13.5126 34.2723 13.3242C34.7078 13.1358 35.1771 13.0386 35.6514 13.0386C36.1257 13.0386 36.595 13.1358 37.0305 13.3242C37.466 13.5126 37.8585 13.7882 38.1839 14.1342C38.5093 14.4801 38.7608 14.8891 38.9229 15.336C39.0849 15.7829 39.1542 16.2583 39.1264 16.733L37.7068 41.7309C37.6774 42.2576 37.448 42.753 37.0658 43.1155C36.6836 43.4781 36.1775 43.6803 35.6514 43.6806V43.6806Z" fill="white"/>
<path d="M35.6442 55.6967C37.5585 55.6967 39.1103 54.1409 39.1103 52.2217C39.1103 50.3026 37.5585 48.7468 35.6442 48.7468C33.73 48.7468 32.1782 50.3026 32.1782 52.2217C32.1782 54.1409 33.73 55.6967 35.6442 55.6967Z" fill="white"/>
</svg>
