<svg width="46" height="46" viewBox="0 0 46 46" fill="none" xmlns="http://www.w3.org/2000/svg">
<path d="M23.0722 34.5C20.9415 34.5 18.8981 33.603 17.3915 32.0064C15.8849 30.4098 15.0385 28.2443 15.0385 25.9864C15.0385 21.6435 21.5738 11.2932 22.2598 10.1262C22.3454 10.0035 22.457 9.90389 22.5855 9.83521C22.7141 9.76654 22.8561 9.73077 23 9.73077C23.144 9.73077 23.2859 9.76654 23.4144 9.83521C23.543 9.90389 23.6545 10.0035 23.7402 10.1262C24.4803 11.2932 30.9615 21.6052 30.9615 25.9864C30.9619 28.2181 30.1353 30.3607 28.6598 31.9529C27.1843 33.5452 25.1778 34.4599 23.0722 34.5ZM23.0722 12.3646C20.8155 16.0379 16.8257 23.1549 16.8257 25.9864C16.8257 27.742 17.4838 29.4257 18.6553 30.6671C19.8267 31.9085 21.4155 32.606 23.0722 32.606C24.7289 32.606 26.3177 31.9085 27.4891 30.6671C28.6606 29.4257 29.3187 27.742 29.3187 25.9864C29.3187 23.1549 25.3108 16.0379 23.0722 12.3646Z" fill="white"/>
<path d="M3.10266 33.615C2.9239 33.62 2.74761 33.5724 2.59577 33.478C2.44393 33.3837 2.32325 33.2467 2.24881 33.0843C-0.0980109 28.1598 -0.627853 22.5656 0.752747 17.2889C2.13335 12.0122 5.33567 7.39219 9.79461 4.24408C14.2536 1.09597 19.6825 -0.377858 25.1234 0.0826776C30.5644 0.543213 35.6676 2.90851 39.5326 6.76117C39.7087 6.93709 39.8077 7.17568 39.8077 7.42447C39.8077 7.67325 39.7087 7.91184 39.5326 8.08775C39.3565 8.26367 39.1176 8.3625 38.8685 8.3625C38.6194 8.3625 38.3806 8.26367 38.2045 8.08775C34.6538 4.54592 29.9646 2.37073 24.9644 1.94607C19.9643 1.52141 14.9747 2.8746 10.8763 5.7668C6.77789 8.65899 3.83413 12.9043 2.56456 17.7534C1.29499 22.6024 1.7812 27.7436 3.93746 32.2694C3.99212 32.38 4.02423 32.5003 4.03184 32.6234C4.03945 32.7464 4.02244 32.8698 3.98181 32.9862C3.94119 33.1026 3.87779 33.2098 3.79525 33.3015C3.71271 33.3932 3.61271 33.4675 3.5011 33.5202C3.37914 33.5868 3.24157 33.6195 3.10266 33.615Z" fill="white"/>
<path d="M22.8465 46C19.8068 46.0056 16.796 45.4259 13.9872 44.2942C11.1783 43.1626 8.6269 41.5013 6.47962 39.4058C6.38891 39.3229 6.31664 39.2228 6.26721 39.1116C6.21779 39.0004 6.19232 38.8805 6.19232 38.7593C6.19232 38.6382 6.21779 38.5183 6.26721 38.4071C6.31664 38.2959 6.38891 38.1958 6.47962 38.1129C6.65688 37.9436 6.8952 37.8489 7.14341 37.8489C7.39162 37.8489 7.62995 37.9436 7.8072 38.1129C11.2968 41.5002 15.8852 43.6032 20.7894 44.063C25.6936 44.5228 30.6096 43.3109 34.6986 40.6341C38.7876 37.9573 41.7962 33.9816 43.211 29.3852C44.6258 24.7888 44.3591 19.8568 42.4564 15.4305C42.4071 15.3192 42.3813 15.1994 42.3804 15.0781C42.3795 14.9568 42.4037 14.8366 42.4515 14.7246C42.4992 14.6126 42.5696 14.5111 42.6584 14.4262C42.7473 14.3412 42.8527 14.2744 42.9685 14.2299C43.0803 14.1817 43.201 14.1558 43.3232 14.154C43.4455 14.1521 43.5669 14.1742 43.6801 14.219C43.7934 14.2639 43.8963 14.3305 43.9825 14.4148C44.0688 14.4992 44.1367 14.5997 44.1823 14.7102C45.6659 18.1372 46.2556 21.8686 45.8987 25.5716C45.5418 29.2745 44.2494 32.8338 42.1368 35.9321C40.0242 39.0303 37.1571 41.5711 33.7912 43.3278C30.4253 45.0845 26.6652 46.0025 22.8465 46Z" fill="white"/>
<path d="M38.8475 8.84615H32.8463C32.5811 8.84615 32.3267 8.74078 32.1391 8.5532C31.9515 8.36563 31.8461 8.11123 31.8461 7.84596C31.8461 7.58069 31.9515 7.32629 32.1391 7.13872C32.3267 6.95114 32.5811 6.84577 32.8463 6.84577H37.8073V1.88481C37.8073 1.61954 37.9127 1.36514 38.1003 1.17756C38.2878 0.989991 38.5422 0.884615 38.8075 0.884615C39.0727 0.884615 39.3271 0.989991 39.5147 1.17756C39.7023 1.36514 39.8077 1.61954 39.8077 1.88481V7.88597C39.8026 8.13902 39.6997 8.38029 39.5207 8.55926C39.3418 8.73824 39.1005 8.84104 38.8475 8.84615Z" fill="white"/>
<path d="M7.18751 45.1154C6.92357 45.1154 6.67046 45.022 6.48382 44.8556C6.29719 44.6893 6.19232 44.4638 6.19232 44.2286V38.9077C6.19229 38.7921 6.21818 38.6776 6.26843 38.571C6.31868 38.4644 6.39229 38.3678 6.48498 38.2868C6.57766 38.2059 6.68755 38.1423 6.80818 38.0996C6.92882 38.057 7.05777 38.0363 7.18751 38.0386H13.1587C13.2884 38.0363 13.4174 38.057 13.538 38.0996C13.6586 38.1423 13.7685 38.2059 13.8612 38.2868C13.9539 38.3678 14.0275 38.4644 14.0778 38.571C14.128 38.6776 14.1539 38.7921 14.1539 38.9077C14.1539 39.1429 14.049 39.3685 13.8624 39.5348C13.6757 39.7011 13.4226 39.7945 13.1587 39.7945H8.10307V44.1931C8.11116 44.3073 8.09391 44.4218 8.05223 44.53C8.01056 44.6382 7.94529 44.738 7.86023 44.8237C7.77516 44.9093 7.67196 44.9792 7.55652 45.0293C7.44108 45.0793 7.31567 45.1086 7.18751 45.1154Z" fill="white"/>
</svg>
