<svg width="197" height="196" viewBox="0 0 197 196" fill="none" xmlns="http://www.w3.org/2000/svg">
<g clip-path="url(#clip0_119_384)">
<path d="M22.7949 171.516L26.5178 196H48.1466L53.1632 171.868L22.7949 171.516Z" fill="#EBEBEB"/>
<path d="M50.1444 187.213C50.1444 187.284 44.5997 187.341 37.7656 187.341C30.9315 187.341 25.3868 187.284 25.3868 187.213C25.3868 187.143 30.9271 187.085 37.7656 187.085C44.6041 187.085 50.1444 187.134 50.1444 187.213Z" fill="#FAFAFA"/>
<path d="M50.228 186.002C50.228 186.072 44.6481 186.13 37.7656 186.13C30.8831 186.13 25.3032 186.072 25.3032 186.002C25.3032 185.932 30.8831 185.874 37.7656 185.874C44.6481 185.874 50.228 185.932 50.228 186.002Z" fill="#FAFAFA"/>
<path d="M50.184 184.641C50.184 184.712 44.6041 184.769 37.7216 184.769C30.8391 184.769 25.2592 184.712 25.2592 184.641C25.2592 184.571 30.8391 184.513 37.7216 184.513C44.6041 184.513 50.184 184.571 50.184 184.641Z" fill="#FAFAFA"/>
<path d="M29.0041 194.599C28.6973 193.592 28.4751 192.561 28.3396 191.516C28.1167 190.488 27.9783 189.444 27.926 188.394C28.2302 189.402 28.4524 190.433 28.5904 191.477C28.8082 192.505 28.9465 193.549 29.0041 194.599Z" fill="#FAFAFA"/>
<path d="M30.4739 194.339C30.2524 192.338 30.1159 190.327 30.0646 188.314C30.2983 189.299 30.431 190.306 30.4607 191.318C30.5721 192.322 30.5765 193.335 30.4739 194.339Z" fill="#FAFAFA"/>
<path d="M33.1538 194.34C32.6457 192.308 32.4017 190.219 32.4277 188.125C32.6326 189.144 32.7795 190.173 32.8678 191.208C33.0438 192.939 33.2242 194.326 33.1538 194.34Z" fill="#FAFAFA"/>
<path d="M35.0373 194.472C34.8331 193.439 34.7329 192.388 34.7381 191.336C34.6612 190.285 34.6937 189.23 34.8349 188.187C34.9478 189.229 35.0007 190.278 34.9933 191.327C35.0676 192.373 35.0822 193.423 35.0373 194.472Z" fill="#FAFAFA"/>
<path d="M38.3685 194.339C38.2111 193.356 38.136 192.362 38.1441 191.367C38.0672 190.374 38.076 189.376 38.1705 188.385C38.4036 190.361 38.4698 192.353 38.3685 194.339Z" fill="#FAFAFA"/>
<path d="M40.8065 194.472C40.6855 193.449 40.6502 192.418 40.7008 191.389C40.6687 190.359 40.7202 189.327 40.8549 188.306C40.9728 189.329 41.0066 190.36 40.9561 191.389C40.988 192.419 40.938 193.45 40.8065 194.472Z" fill="#FAFAFA"/>
<path d="M43.0859 194.141C43.0629 193.066 43.1247 191.991 43.2707 190.926C43.3362 189.854 43.4833 188.787 43.7108 187.737C43.6716 189.885 43.4642 192.026 43.0903 194.141H43.0859Z" fill="#FAFAFA"/>
<path d="M46.0299 193.82C46.1254 191.977 46.5192 190.163 47.1961 188.447C47.0636 189.354 46.8785 190.252 46.6416 191.138C46.486 192.042 46.2818 192.937 46.0299 193.82Z" fill="#FAFAFA"/>
<path d="M43.9484 123.195L43.922 123.319C43.8912 123.411 43.8604 123.521 43.8208 123.662L43.4071 124.983C43.2223 125.556 43.0023 126.256 42.7735 127.08C42.5446 127.904 42.2498 128.842 41.9946 129.872C41.7393 130.903 41.4225 132.048 41.1497 133.281C40.8768 134.515 40.5996 135.832 40.318 137.223C39.7987 140.016 39.3234 143.103 38.9978 146.362C38.6721 149.622 38.5577 152.744 38.4961 155.581C38.4961 157.003 38.4961 158.351 38.5313 159.615C38.5665 160.879 38.6237 162.051 38.6853 163.139C38.747 164.227 38.835 165.182 38.901 166.032C38.967 166.882 39.0374 167.614 39.1078 168.213C39.1782 168.812 39.2178 169.252 39.2486 169.587C39.2486 169.732 39.275 169.851 39.2794 169.948C39.2862 169.989 39.2862 170.03 39.2794 170.071C39.2648 170.032 39.2559 169.99 39.253 169.948C39.253 169.855 39.2178 169.737 39.1958 169.596C39.1474 169.261 39.0858 168.803 39.0066 168.221C38.9274 167.64 38.8306 166.9 38.7558 166.046C38.6809 165.191 38.5621 164.227 38.5005 163.152C38.4389 162.077 38.3509 160.901 38.3201 159.628C38.2893 158.356 38.2629 157.012 38.2541 155.59C38.2849 152.744 38.4257 149.617 38.7426 146.34C39.0594 143.064 39.5567 139.98 40.0891 137.184C40.3796 135.792 40.6392 134.462 40.9692 133.22C41.2993 131.978 41.5545 130.846 41.8493 129.811C42.1442 128.776 42.4214 127.842 42.6679 127.023C42.9143 126.204 43.1431 125.508 43.3455 124.939C43.548 124.371 43.6888 123.953 43.7856 123.618C43.834 123.482 43.8736 123.371 43.9088 123.283C43.9187 123.253 43.932 123.223 43.9484 123.195Z" fill="#EBEBEB"/>
<path d="M40.0407 138.36C40.6364 136.594 41.8264 135.09 43.4071 134.105C43.9396 133.775 44.6173 133.506 45.1674 133.779C45.9199 134.145 45.9815 135.206 45.757 136.017C45.3678 137.387 44.4995 138.572 43.3103 139.355C42.2552 140.136 40.9346 140.469 39.6359 140.28" fill="#EBEBEB"/>
<path d="M38.7294 148.596C39.2882 146.481 40.9737 143.478 42.7207 142.17C42.9882 141.95 43.2962 141.786 43.6272 141.685C43.7942 141.638 43.9702 141.633 44.1397 141.67C44.3091 141.707 44.4671 141.785 44.5997 141.896C44.9562 142.24 44.921 142.817 44.8153 143.297C44.457 144.839 43.6769 146.251 42.5624 147.374C41.4479 148.497 40.043 149.288 38.5049 149.657" fill="#EBEBEB"/>
<path d="M38.3685 157.607C39.2355 155.588 40.6256 153.838 42.395 152.538C42.5841 152.365 42.8056 152.232 43.0466 152.145C43.2876 152.059 43.5433 152.022 43.7988 152.035C44.5645 152.176 44.9122 153.11 44.8418 153.885C44.7053 155.48 43.4864 156.757 42.2322 157.748C40.8813 158.814 38.5049 159.664 38.5049 159.664" fill="#EBEBEB"/>
<path d="M38.5709 164.086C39.4132 162.547 40.5836 161.214 41.999 160.179C42.3024 159.955 42.6532 159.805 43.0243 159.739C43.2112 159.705 43.4039 159.722 43.5815 159.79C43.7591 159.857 43.9148 159.972 44.032 160.122C44.3753 160.628 44.032 161.311 43.68 161.795C42.4739 163.483 40.761 164.74 38.791 165.385" fill="#EBEBEB"/>
<path d="M38.3993 161.456C36.9247 159.642 35.285 157.969 33.5015 156.457C33.2199 156.224 32.8722 155.977 32.5246 156.087C32.3954 156.143 32.2852 156.235 32.2071 156.353C32.1291 156.47 32.0865 156.607 32.0845 156.748C32.0793 157.032 32.1427 157.313 32.2694 157.567C32.8547 158.87 33.726 160.025 34.8185 160.944C35.911 161.864 37.1967 162.525 38.5798 162.879" fill="#EBEBEB"/>
<path d="M38.5577 153.022L34.7072 148.327C34.3703 147.853 33.9461 147.448 33.4575 147.133C33.21 146.983 32.9261 146.904 32.6368 146.904C32.3474 146.904 32.0636 146.983 31.8161 147.133C31.5934 147.317 31.4262 147.56 31.333 147.834C31.2397 148.107 31.2242 148.401 31.288 148.684C31.4288 149.242 31.6852 149.764 32.0405 150.216C32.7896 151.37 33.739 152.379 34.8436 153.198C35.9746 153.978 37.0043 154.484 38.3641 154.282" fill="#EBEBEB"/>
<path d="M39.0902 143.53C38.336 141.283 36.9997 139.275 35.2177 137.712C34.9397 137.43 34.592 137.226 34.21 137.122C33.4355 136.972 32.6918 137.62 32.4497 138.364C32.3286 138.79 32.2974 139.237 32.358 139.676C32.4186 140.115 32.5697 140.537 32.8018 140.914C33.2734 141.667 33.8897 142.318 34.6148 142.83C35.9106 143.823 37.3559 144.604 38.8966 145.142" fill="#EBEBEB"/>
<path d="M40.6304 135.07C40.2564 132.348 38.8394 130.079 37.198 127.877C36.8547 127.41 36.3707 126.922 35.7986 126.996C35.618 127.035 35.45 127.119 35.3101 127.24C35.1702 127.361 35.0628 127.515 34.9977 127.688C34.8693 128.035 34.8168 128.406 34.8437 128.776C34.9148 130.426 35.4697 132.018 36.4394 133.354C37.409 134.691 38.7503 135.712 40.296 136.29" fill="#EBEBEB"/>
<path d="M41.7086 130.749C41.5299 129.353 41.4828 127.943 41.5677 126.538C41.6539 125.125 42.1375 123.764 42.9627 122.614C43.3163 122.119 43.801 121.733 44.3621 121.5C44.6436 121.386 44.9496 121.348 45.2503 121.388C45.551 121.428 45.8362 121.546 46.0783 121.729C46.2827 121.92 46.4414 122.156 46.5427 122.417C46.644 122.679 46.6853 122.96 46.6636 123.239C46.6139 123.799 46.4649 124.344 46.2235 124.851C45.1982 127.322 43.4908 130.057 41.7042 130.749" fill="#EBEBEB"/>
<path d="M24.938 133.995C24.9484 134.109 24.9484 134.224 24.938 134.338C24.938 134.589 24.938 134.92 24.938 135.325C24.938 135.73 24.938 136.281 24.9644 136.889C24.9908 137.496 24.9644 138.21 25.0348 138.959C25.1052 140.487 25.2504 142.31 25.4748 144.323C25.6993 146.336 26.0689 148.534 26.5398 150.824C27.0106 153.114 27.5959 155.268 28.1768 157.21C28.7576 159.153 29.3649 160.875 29.937 162.302C30.201 163.024 30.4739 163.663 30.6983 164.227C30.9227 164.79 31.1384 165.275 31.3056 165.667C31.4728 166.059 31.5916 166.345 31.6928 166.579C31.7424 166.682 31.7822 166.789 31.8116 166.9C31.7452 166.805 31.6892 166.703 31.6444 166.596L31.2044 165.715C31.0195 165.328 30.7951 164.834 30.5619 164.293C30.3286 163.751 30.0338 163.095 29.761 162.377C29.1845 160.954 28.5728 159.228 27.9611 157.285C27.3495 155.343 26.7906 153.18 26.3021 150.886C25.8137 148.591 25.5188 146.367 25.3032 144.35C25.0876 142.332 24.9556 140.5 24.9116 138.963C24.872 138.197 24.8808 137.501 24.872 136.893C24.8632 136.285 24.872 135.757 24.872 135.325C24.872 134.893 24.8984 134.589 24.9072 134.338C24.9039 134.223 24.9142 134.108 24.938 133.995Z" fill="#E0E0E0"/>
<path d="M25.5409 145.156C25.5656 143.827 26.0509 142.549 26.9139 141.54C27.0392 141.352 27.2088 141.199 27.4076 141.093C27.6064 140.987 27.8283 140.931 28.0536 140.932C28.6477 141.02 28.9337 141.729 28.9337 142.328C28.9647 143.345 28.6288 144.34 27.9876 145.129C27.4344 145.885 26.6089 146.395 25.6861 146.552" fill="#E0E0E0"/>
<path d="M26.8478 152.419C26.773 150.859 27.2879 148.455 28.168 147.186C28.3022 146.977 28.4773 146.797 28.6828 146.658C28.7868 146.59 28.9056 146.549 29.029 146.537C29.1524 146.526 29.2767 146.544 29.3913 146.592C29.5336 146.696 29.6481 146.834 29.7248 146.993C29.8016 147.152 29.8382 147.327 29.8314 147.503C29.9184 148.63 29.6903 149.759 29.1727 150.763C28.655 151.767 27.8683 152.607 26.9006 153.189" fill="#E0E0E0"/>
<path d="M28.5377 158.624C28.6946 157.062 29.2659 155.57 30.1923 154.304C30.2819 154.147 30.4015 154.01 30.5442 153.899C30.6869 153.789 30.8499 153.708 31.024 153.661C31.574 153.59 32.0097 154.154 32.1285 154.696C32.3793 155.81 31.8249 156.942 31.1824 157.884C30.568 158.677 29.8536 159.386 29.0569 159.994" fill="#E0E0E0"/>
<path d="M30.069 162.989C30.3104 161.76 30.8214 160.6 31.5652 159.593C31.7211 159.372 31.9259 159.19 32.1637 159.06C32.2838 158.996 32.4191 158.967 32.5549 158.975C32.6907 158.982 32.8217 159.027 32.9338 159.104C33.277 159.373 33.2022 159.906 33.0526 160.32C32.5934 161.728 31.6978 162.953 30.4959 163.817" fill="#E0E0E0"/>
<path d="M29.387 161.227C27.9953 160.311 26.5222 159.525 24.9864 158.88C24.8753 158.812 24.7493 158.773 24.6195 158.766C24.4898 158.76 24.3603 158.785 24.2427 158.84C24.1658 158.906 24.1095 158.992 24.0806 159.089C24.0517 159.186 24.0515 159.289 24.0799 159.386C24.1391 159.579 24.2415 159.755 24.3791 159.902C25.0581 160.663 25.8996 161.261 26.8412 161.652C27.7828 162.043 28.8003 162.217 29.8182 162.161" fill="#E0E0E0"/>
<path d="M27.6839 155.462L24.0491 153.092C23.7177 152.846 23.3431 152.664 22.9445 152.555C22.7444 152.504 22.534 152.508 22.3361 152.568C22.1383 152.628 21.9606 152.741 21.8224 152.894C21.7102 153.068 21.6483 153.27 21.6437 153.476C21.639 153.683 21.6917 153.887 21.796 154.066C22.0145 154.414 22.302 154.714 22.6409 154.947C23.3979 155.573 24.2629 156.055 25.1932 156.369C26.1305 156.66 26.9534 156.779 27.8336 156.369" fill="#E0E0E0"/>
<path d="M26.0073 148.895C25.009 147.526 23.667 146.446 22.1172 145.764C21.8663 145.633 21.5856 145.571 21.3031 145.583C21.0287 145.645 20.7847 145.802 20.6135 146.026C20.4423 146.249 20.3547 146.526 20.3658 146.807C20.3775 147.121 20.4534 147.429 20.5889 147.713C20.7244 147.996 20.9166 148.249 21.1535 148.455C21.636 148.865 22.1956 149.175 22.7993 149.366C23.8948 149.762 25.0456 149.984 26.2098 150.023" fill="#E0E0E0"/>
<path d="M25.2328 142.791C24.3923 141.029 22.9401 139.778 21.3515 138.633C21.2029 138.488 21.019 138.386 20.8182 138.335C20.6175 138.284 20.4068 138.286 20.2074 138.342C20.0939 138.409 19.9985 138.502 19.9294 138.614C19.8604 138.726 19.8198 138.854 19.8113 138.985C19.7987 139.25 19.8422 139.514 19.9389 139.76C20.3443 140.868 21.0659 141.832 22.0141 142.533C22.9623 143.234 24.0953 143.64 25.2724 143.702" fill="#E0E0E0"/>
<path d="M25.0348 139.615C24.6128 138.703 24.2783 137.754 24.0359 136.779C23.7907 135.799 23.8273 134.77 24.1415 133.81C24.2775 133.395 24.5277 133.027 24.8632 132.749C25.031 132.611 25.2311 132.519 25.4445 132.482C25.6579 132.444 25.8775 132.461 26.0821 132.533C26.2592 132.618 26.4155 132.741 26.5402 132.893C26.6648 133.046 26.7548 133.223 26.8038 133.414C26.8919 133.805 26.9097 134.209 26.8566 134.607C26.6894 136.51 26.1129 138.739 25.0436 139.593" fill="#E0E0E0"/>
<path d="M52.2831 133.757C52.304 133.87 52.3143 133.985 52.3139 134.101C52.3139 134.352 52.3139 134.678 52.3491 135.087C52.3843 135.497 52.3755 136.043 52.3491 136.655C52.3227 137.267 52.3491 137.976 52.3139 138.725C52.2699 140.262 52.1379 142.09 51.9179 144.112C51.6978 146.133 51.3458 148.34 50.8705 150.639C50.3953 152.938 49.8012 155.096 49.2071 157.043C48.613 158.99 47.9838 160.708 47.4073 162.13C47.1344 162.848 46.8484 163.482 46.6108 164.046C46.3732 164.61 46.1707 165.086 45.9639 165.469C45.7571 165.852 45.6427 166.134 45.5238 166.35C45.4764 166.453 45.422 166.553 45.361 166.649C45.3878 166.538 45.4277 166.43 45.4798 166.328C45.5766 166.094 45.7043 165.795 45.8671 165.416C46.0299 165.037 46.2455 164.535 46.47 163.976C46.6944 163.416 46.9716 162.773 47.2313 162.051C47.7857 160.624 48.3798 158.897 48.9915 156.959C49.6032 155.022 50.14 152.863 50.6241 150.573C51.1082 148.283 51.4426 146.081 51.689 144.072C51.9355 142.064 52.0719 140.24 52.1291 138.708C52.1775 137.941 52.1819 137.25 52.2039 136.638C52.2259 136.025 52.2303 135.506 52.2039 135.074C52.1775 134.642 52.2039 134.338 52.2039 134.087C52.2186 133.975 52.2452 133.864 52.2831 133.757Z" fill="#EBEBEB"/>
<path d="M51.6802 144.931C51.6543 143.602 51.1674 142.324 50.3029 141.315C50.177 141.128 50.0073 140.975 49.8086 140.869C49.6099 140.763 49.3883 140.708 49.1631 140.707C48.569 140.795 48.283 141.504 48.283 142.103C48.2549 143.121 48.5921 144.115 49.2335 144.905C49.7838 145.663 50.6107 146.175 51.535 146.327" fill="#EBEBEB"/>
<path d="M50.3865 152.172C50.4569 150.613 49.9464 148.208 49.0663 146.939C48.9321 146.73 48.757 146.55 48.5514 146.411C48.4483 146.343 48.3303 146.302 48.2076 146.29C48.0849 146.279 47.9612 146.298 47.8473 146.345C47.7045 146.449 47.5896 146.586 47.5128 146.745C47.436 146.904 47.3998 147.08 47.4073 147.256C47.3183 148.383 47.5451 149.512 48.0621 150.516C48.579 151.521 49.3657 152.361 50.3337 152.943" fill="#EBEBEB"/>
<path d="M48.679 158.386C48.521 156.825 47.9515 155.334 47.0288 154.066C46.9368 153.908 46.8143 153.769 46.6685 153.659C46.5227 153.549 46.3565 153.468 46.1795 153.423C45.6294 153.352 45.1938 153.916 45.0705 154.458C44.8241 155.572 45.3786 156.704 46.0167 157.647C46.631 158.439 47.3455 159.148 48.1421 159.756" fill="#EBEBEB"/>
<path d="M47.1476 162.756C46.9068 161.526 46.3974 160.365 45.6558 159.355C45.4987 159.134 45.2923 158.951 45.053 158.823C44.9329 158.759 44.7975 158.729 44.6618 158.737C44.526 158.745 44.3949 158.789 44.2829 158.867C43.944 159.135 44.0188 159.668 44.1641 160.082C44.6233 161.49 45.5188 162.715 46.7208 163.579" fill="#EBEBEB"/>
<path d="M47.8298 160.998C49.2225 160.084 50.6954 159.298 52.2303 158.651C52.3418 158.584 52.4677 158.546 52.5973 158.539C52.7268 158.532 52.8561 158.557 52.974 158.611C53.0526 158.676 53.1104 158.762 53.1401 158.859C53.1699 158.956 53.1703 159.06 53.1412 159.157C53.0793 159.349 52.9756 159.525 52.8376 159.673C52.159 160.434 51.3176 161.033 50.3759 161.424C49.4342 161.815 48.4165 161.989 47.3985 161.932" fill="#EBEBEB"/>
<path d="M49.5371 155.224L53.1676 152.854C53.4995 152.609 53.874 152.426 54.2721 152.317C54.4723 152.266 54.6827 152.27 54.8805 152.33C55.0784 152.39 55.2561 152.503 55.3943 152.656C55.5075 152.83 55.5699 153.031 55.5746 153.238C55.5792 153.445 55.5259 153.65 55.4207 153.828C55.2045 154.178 54.9166 154.478 54.5758 154.709C53.8188 155.333 52.9557 155.817 52.0279 156.136C51.0905 156.422 50.2676 156.545 49.3875 156.136" fill="#EBEBEB"/>
<path d="M51.2138 148.648C52.2124 147.28 53.5543 146.2 55.1039 145.517C55.3545 145.385 55.6354 145.323 55.918 145.336C56.1916 145.4 56.4346 145.557 56.6049 145.78C56.7752 146.004 56.8622 146.28 56.8509 146.561C56.8432 146.877 56.7691 147.189 56.6334 147.475C56.4977 147.761 56.3034 148.015 56.0632 148.221C55.5811 148.631 55.0235 148.942 54.4218 149.137C53.3244 149.531 52.1722 149.751 51.007 149.789" fill="#EBEBEB"/>
<path d="M51.9839 142.553C52.8244 140.791 54.2765 139.544 55.8696 138.395C56.204 138.153 56.6397 137.924 57.0093 138.104C57.1295 138.169 57.2311 138.264 57.3043 138.38C57.3775 138.496 57.4198 138.628 57.4274 138.765C57.4362 139.029 57.3913 139.293 57.2953 139.54C56.8917 140.648 56.1712 141.613 55.2235 142.314C54.2759 143.015 53.143 143.421 51.9662 143.482" fill="#EBEBEB"/>
<path d="M52.1819 139.382C52.6021 138.469 52.938 137.519 53.1852 136.545C53.4269 135.563 53.3888 134.533 53.0752 133.572C52.9416 133.158 52.6946 132.791 52.3623 132.511C52.1956 132.373 51.9959 132.281 51.783 132.244C51.57 132.207 51.3511 132.226 51.1477 132.299C50.9686 132.382 50.8104 132.505 50.6847 132.657C50.559 132.81 50.4691 132.988 50.4216 133.18C50.3363 133.572 50.3184 133.976 50.3688 134.374C50.5361 136.276 51.1125 138.505 52.1819 139.364" fill="#EBEBEB"/>
<path d="M20.313 166.662V171.247C20.313 171.484 20.3597 171.719 20.4504 171.938C20.5411 172.157 20.6741 172.355 20.8417 172.523C21.0093 172.69 21.2082 172.823 21.4271 172.913C21.646 173.003 21.8805 173.049 22.1172 173.049H53.436C53.9134 173.049 54.3712 172.859 54.7087 172.521C55.0462 172.183 55.2359 171.725 55.2359 171.247V166.662H20.313Z" fill="#EBEBEB"/>
<path d="M23.0281 173.053L23.2878 174.511L52.1863 176.572L52.9168 173.053H23.0281Z" fill="#E0E0E0"/>
<path d="M28.2252 61.7232L21.6244 59.01C21.6244 59.01 19.3449 64.5552 13.5494 62.2825C12.4236 61.8672 11.4555 61.1105 10.7802 60.118C10.1049 59.1255 9.75611 57.9467 9.78247 56.7462C9.78878 55.7375 10.0337 54.7446 10.4972 53.8489C10.9608 52.9532 11.6297 52.1802 12.4492 51.593C14.3239 50.2057 17.5407 49.3512 21.664 51.9674L27.706 37.2655L21.1799 34.5789L17.5979 43.2996C17.5979 43.2996 7.47658 41.9034 3.33565 51.9938C-0.624854 61.6483 7.43698 67.5898 11.9388 69.4441C14.7771 70.6068 23.565 73.4256 28.2252 61.7232Z" fill="#F5F5F5"/>
<path d="M24.9085 25.2952L22.3666 31.4829L28.9885 34.2079L31.5304 28.0202L24.9085 25.2952Z" fill="#F5F5F5"/>
<path d="M25.9897 60.8071L19.3889 58.094C19.3889 58.094 17.1094 63.6347 11.3139 61.3665C10.1885 60.9507 9.22077 60.1938 8.54556 59.2014C7.87034 58.209 7.52126 57.0305 7.54697 55.8302C7.55342 54.821 7.79889 53.8278 8.26322 52.932C8.72755 52.0362 9.39751 51.2634 10.2181 50.677C12.0928 49.2896 15.2348 48.6202 19.3581 51.2364L25.4749 36.3495L18.9532 33.6628L15.3712 42.3835C15.3712 42.3835 5.24988 40.9874 1.10014 51.0646C-2.86036 60.719 4.86703 66.5328 8.5811 68.0435C11.4019 69.2107 21.3427 72.492 25.9897 60.8071Z" fill="#E0E0E0"/>
<path d="M22.6716 24.3685L20.1297 30.5562L26.7516 33.2811L29.2934 27.0934L22.6716 24.3685Z" fill="#E0E0E0"/>
<path d="M184.326 174.718L180.238 175.057C180.238 175.057 180.524 178.493 176.96 178.854C176.274 178.935 175.58 178.8 174.973 178.469C174.367 178.137 173.879 177.625 173.576 177.004C173.313 176.487 173.177 175.915 173.177 175.335C173.177 174.754 173.313 174.183 173.576 173.665C174.174 172.463 175.6 171.181 178.394 171.437L177.642 162.32L173.593 162.659L174.033 168.063C174.033 168.063 168.484 170.005 169.004 176.259C169.501 182.245 175.191 183.174 177.981 182.941C179.763 182.809 185.004 181.928 184.326 174.718Z" fill="#F5F5F5"/>
<path d="M177.372 157.68L173.253 158.01L173.56 161.86L177.679 161.53L177.372 157.68Z" fill="#F5F5F5"/>
<path d="M182.94 174.824L178.848 175.167C178.848 175.167 179.134 178.603 175.569 178.959C174.884 179.042 174.19 178.909 173.584 178.578C172.978 178.247 172.491 177.736 172.19 177.114C171.927 176.597 171.79 176.025 171.79 175.445C171.79 174.865 171.927 174.293 172.19 173.775C172.788 172.573 174.223 171.406 177.03 171.661L176.265 162.412L172.22 162.751L172.66 168.155C172.66 168.155 167.111 170.093 167.631 176.352C168.128 182.338 173.607 183.285 175.899 183.091C177.668 182.963 183.618 182.042 182.94 174.824Z" fill="#E0E0E0"/>
<path d="M175.806 156.689L171.701 157.03L172.019 160.866L176.124 160.525L175.806 156.689Z" fill="#E0E0E0"/>
<path d="M160.568 26.2369L168.669 23.0349C168.669 23.0349 165.98 16.2257 173.004 13.31C174.347 12.7234 175.84 12.571 177.274 12.8742C178.708 13.1774 180.012 13.921 181.004 15.0013C181.85 15.893 182.474 16.9722 182.824 18.1509C183.174 19.3296 183.241 20.5745 183.019 21.7841C182.54 24.5941 180.432 28.0735 174.592 29.2715L181.717 47.3296L189.73 44.1628L185.484 33.4469C185.484 33.4469 195.605 26.1004 190.703 13.7064C186.021 1.84977 173.893 3.45737 168.361 5.64636C164.885 7.02053 154.768 11.9887 160.568 26.2369Z" fill="#F5F5F5"/>
<path d="M191.313 47.8887L183.18 51.1033L186.178 58.7023L194.311 55.4878L191.313 47.8887Z" fill="#F5F5F5"/>
<path d="M157.32 27.5144L165.426 24.3124C165.426 24.3124 162.737 17.5032 169.76 14.5875C171.103 13.9993 172.595 13.8448 174.029 14.1456C175.463 14.4464 176.767 15.1875 177.761 16.2655C178.608 17.1593 179.232 18.2407 179.582 19.4217C179.933 20.6028 179.999 21.8499 179.776 23.0615C179.323 25.8715 177.123 29.122 171.27 30.32L178.487 48.6026L186.496 45.4359L182.271 34.7244C182.271 34.7244 192.362 27.3778 187.468 15.0015C182.791 3.10961 171.081 4.57187 166.53 6.36887C163.041 7.74304 151.538 13.2662 157.32 27.5144Z" fill="#E0E0E0"/>
<path d="M188.082 49.1631L179.949 52.3777L182.948 59.9767L191.08 56.7622L188.082 49.1631Z" fill="#E0E0E0"/>
<path d="M94.8576 16.7418C95.6031 8.33174 89.3819 0.907908 80.9622 0.16026C72.5424 -0.587389 65.1125 5.62426 64.367 14.0344C63.6216 22.4445 69.8428 29.8683 78.2625 30.6159C86.6822 31.3636 94.1121 25.1519 94.8576 16.7418Z" fill="white"/>
<path d="M89.4414 27.1179L89.6306 26.9593L90.1675 26.4528L90.5636 26.0873C90.7044 25.9507 90.8452 25.7834 91.0036 25.6072L91.5097 25.0434C91.6943 24.8234 91.8676 24.594 92.0289 24.3563C92.9118 23.1645 93.6064 21.8439 94.0884 20.4408C94.7469 18.5857 95.0383 16.62 94.9465 14.6535C94.9465 14.3804 94.9157 14.1029 94.9025 13.8254C94.8893 13.548 94.8189 13.2705 94.7793 12.9842C94.7397 12.6979 94.7089 12.416 94.6341 12.1341C94.5593 11.8523 94.4888 11.566 94.4184 11.2533L94.1676 10.4384V10.39C94.0664 10.1037 93.9608 9.81302 93.8596 9.50912C93.7584 9.20522 93.5955 8.94536 93.4635 8.65907C93.3355 8.36644 93.1885 8.08248 93.0235 7.80902C92.7022 7.23965 92.3435 6.6923 91.9497 6.17059C91.7473 5.91073 91.5581 5.63325 91.338 5.3778L90.3919 4.35157L90.2907 4.25467L89.9035 3.91113C89.6394 3.68651 89.3842 3.44427 89.1114 3.22405C88.5505 2.7906 87.9625 2.3934 87.3511 2.03486C86.721 1.66669 86.0668 1.34149 85.3929 1.06149C85.0452 0.924953 84.6888 0.819247 84.3368 0.69152C84.1607 0.638667 83.9847 0.563793 83.8043 0.519749L83.2234 0.466896C82.6305 0.315556 82.0276 0.20664 81.4192 0.14097L80.4995 0.026456L79.5093 -0.0131836H79.2189L78.6292 0.017647L78.0396 0.0528822L77.4543 0.136566L76.8646 0.229058L76.5698 0.273102L76.2793 0.343572L74.1186 0.999827L73.969 1.05268C72.4414 1.6722 71.0158 2.51853 69.7401 3.56319C68.4875 4.63745 67.4044 5.89519 66.5277 7.29371L66.4573 7.41703C66.1756 7.97639 65.7136 8.8881 65.4275 9.44746L65.3087 9.72053L65.2119 10.0024L65.0183 10.597L64.8291 11.1608L64.6971 11.7377L64.5606 12.3103L64.4946 12.5966L64.3626 13.5788L64.279 14.4993C64.235 15.1092 64.235 15.7216 64.279 16.3315L64.3098 16.8953C64.3098 17.0847 64.3626 17.2697 64.3846 17.4546C64.4462 17.8246 64.4902 18.1946 64.565 18.5557C64.7196 19.2709 64.924 19.9744 65.1767 20.661C65.4286 21.3323 65.7225 21.9869 66.0568 22.621C66.224 22.9293 66.4177 23.22 66.5937 23.5019L66.8621 23.9423L66.9413 24.0568L67.7818 25.1667C67.9975 25.431 68.2219 25.6644 68.4595 25.9111C68.9023 26.3838 69.3773 26.8253 69.8809 27.2324C70.1186 27.4518 70.3683 27.6576 70.629 27.849C70.8886 28.0252 71.1351 28.219 71.3991 28.382L72.2 28.8444L72.9921 29.2496L73.8018 29.6108C74.0678 29.7234 74.3395 29.8219 74.6159 29.9059C74.8843 29.994 75.1528 30.0909 75.4168 30.1701L76.2265 30.3595C78.1454 30.7928 80.13 30.8497 82.0705 30.5269C83.535 30.2965 84.9554 29.8419 86.2818 29.1791C86.5441 29.0628 86.7997 28.9319 87.0475 28.7872L87.69 28.3908C87.888 28.2674 88.0772 28.1573 88.2401 28.0472L88.6801 27.7169L89.2522 27.2765C89.3842 27.1752 89.4458 27.1179 89.4458 27.1179L89.2434 27.2632L88.6581 27.7037C88.5261 27.7962 88.3853 27.9063 88.2181 28.0208C88.0508 28.1353 87.866 28.2366 87.668 28.3599L87.0211 28.7475C86.7711 28.8884 86.5141 29.0163 86.251 29.1307C84.9301 29.7676 83.5207 30.2012 82.0705 30.4168C80.1426 30.7254 78.1735 30.6596 76.2705 30.223L75.4696 30.0468C75.2012 29.9675 74.9416 29.8706 74.6731 29.7825C74.4047 29.6945 74.1275 29.6152 73.8678 29.4875L73.0669 29.1263L72.31 28.7387H72.2748L71.4871 28.2983C71.2231 28.1353 70.9811 27.9415 70.7258 27.7653C70.4635 27.5901 70.2122 27.3989 69.9733 27.1928C69.4752 26.7856 69.0061 26.3441 68.5695 25.8714C68.3495 25.6292 68.1295 25.3958 67.9007 25.1359L67.069 24.0304C67.0415 23.9955 67.0165 23.9587 66.9941 23.9203L66.7257 23.4799C66.5541 23.1848 66.3605 22.8985 66.1976 22.599C65.8742 21.9721 65.5919 21.3247 65.3527 20.661C65.0982 19.9645 64.8938 19.2507 64.7411 18.5249C64.6662 18.1682 64.6266 17.8026 64.565 17.437C64.543 17.252 64.499 17.0715 64.4902 16.8865L64.4682 16.3227C64.4199 15.5674 64.4199 14.8098 64.4682 14.0545C64.521 13.6757 64.5738 13.2969 64.6222 12.9137L64.6618 12.6274L64.7279 12.3456L64.8599 11.7818L64.9963 11.2092L65.1811 10.6543L65.3703 10.0949L65.4671 9.81743L65.586 9.54436L66.6201 7.51393L66.6861 7.40382C68.3984 4.6014 70.9792 2.43604 74.035 1.23766L74.1759 1.18481L76.3189 0.537366L76.605 0.462491L76.8954 0.418447L77.4807 0.33036L78.0572 0.242271L78.6424 0.211441L79.2233 0.18061H79.5137H79.7998L80.9483 0.224654C81.6998 0.302234 82.4451 0.430249 83.1794 0.607836L83.7251 0.735564C83.9055 0.775204 84.0771 0.850078 84.2531 0.902931C84.6008 1.02625 84.9572 1.13196 85.2961 1.26409C85.9641 1.54116 86.6125 1.86342 87.2367 2.22865C87.8492 2.57907 88.4372 2.97048 88.997 3.40022C89.2698 3.61604 89.5206 3.84066 89.7803 4.0785L90.1675 4.41764L90.2643 4.51013L91.2016 5.52314C91.4217 5.77419 91.6109 6.05167 91.8133 6.30712C92.2036 6.83251 92.5593 7.38275 92.8782 7.95437C93.0398 8.22675 93.1867 8.50756 93.3183 8.79561C93.4459 9.07749 93.5955 9.35056 93.71 9.63685L94.018 10.4957C94.0708 10.6366 94.1236 10.7776 94.172 10.9361V10.9758C94.2776 11.3942 94.3832 11.8082 94.4889 12.2134C94.5681 12.4953 94.5857 12.7816 94.6385 13.0591C94.6913 13.3365 94.7265 13.6184 94.7617 13.8915C94.7969 14.1646 94.7925 14.442 94.8057 14.7107C94.9055 16.6619 94.6261 18.6139 93.9828 20.4584C93.5114 21.8557 92.8303 23.173 91.9629 24.3651C91.7781 24.6074 91.6373 24.8584 91.4525 25.0566L90.9596 25.572C90.8056 25.7481 90.6692 25.9155 90.5195 26.0564L90.1323 26.4264L89.6042 26.9241C89.4986 27.0562 89.4414 27.1179 89.4414 27.1179Z" fill="#E0E0E0"/>
<path d="M92.6583 35.5568C92.4035 35.895 92.067 36.1628 91.6803 36.335C91.2936 36.5072 90.8696 36.5782 90.448 36.5412C90.0264 36.5042 89.6211 36.3604 89.2703 36.1235C88.9195 35.8866 88.6346 35.5642 88.4425 35.1868C88.2311 34.7733 88.1404 34.3085 88.1809 33.8457C88.2214 33.383 88.3914 32.941 88.6714 32.5706C89.074 32.0609 89.6594 31.7287 90.3031 31.6447C90.9468 31.5607 91.5978 31.7315 92.1175 32.1208C92.6372 32.51 92.9846 33.087 93.0856 33.7288C93.1866 34.3705 93.0332 35.0264 92.6583 35.5568Z" fill="white"/>
<path d="M92.2622 35.9706C92.2622 35.9706 92.3106 35.9442 92.3898 35.8781C92.508 35.7792 92.6143 35.6668 92.7067 35.5434C92.9977 35.154 93.1703 34.6888 93.2039 34.2037C93.2375 33.7186 93.1305 33.2341 92.8959 32.8083C92.6722 32.4068 92.3456 32.0724 91.9498 31.8393C91.5122 31.5789 91.0054 31.459 90.4976 31.4957C89.95 31.5259 89.4268 31.7327 89.0064 32.0852C88.586 32.4377 88.2909 32.9169 88.1653 33.4513C88.0437 33.9462 88.0728 34.4662 88.2489 34.9444C88.4092 35.3748 88.6811 35.7549 89.0366 36.0455C89.3465 36.2963 89.7115 36.4699 90.1015 36.552C90.6628 36.6744 91.2492 36.5981 91.7606 36.3362C91.8991 36.2687 92.0279 36.1827 92.1434 36.0807C92.227 36.0147 92.2666 35.975 92.2622 35.9706C92.2578 35.9662 92.0818 36.1071 91.7298 36.2701C91.2278 36.4984 90.6641 36.5527 90.1279 36.4243C89.8178 36.3503 89.5253 36.2158 89.2673 36.0284C89.0093 35.841 88.7907 35.6045 88.6243 35.3323C88.4579 35.0601 88.3468 34.7578 88.2975 34.4425C88.2482 34.1273 88.2616 33.8054 88.3369 33.4953C88.4578 32.9992 88.7339 32.5547 89.125 32.2267C89.516 31.8987 90.0016 31.7043 90.5108 31.6719C90.9842 31.6388 91.4565 31.7493 91.8662 31.989C92.232 32.1999 92.5356 32.5038 92.7463 32.8699C92.9754 33.2727 93.0859 33.7322 93.0649 34.1952C93.0438 34.6582 92.8922 35.1058 92.6275 35.4861C92.425 35.8209 92.2446 35.9574 92.2622 35.9706Z" fill="#E0E0E0"/>
<path d="M74.9239 12.8784H77.2298C77.2286 12.6146 77.2803 12.3532 77.3819 12.1098C77.4835 11.8664 77.633 11.646 77.8214 11.4615C78.0098 11.277 78.2333 11.1323 78.4787 11.036C78.724 10.9397 78.9862 10.8937 79.2497 10.9008C79.6389 10.8867 80.0228 10.9945 80.3478 11.2093C80.6729 11.4241 80.9228 11.735 81.0627 12.0988C81.184 12.402 81.2321 12.7295 81.2031 13.0548C81.174 13.38 81.0686 13.6939 80.8955 13.9707C80.5039 14.6181 79.6458 15.2083 78.088 14.9352V20.1544H80.3719V17.0714C81.3106 16.7963 82.1331 16.2202 82.7128 15.4315C83.2924 14.6429 83.5971 13.6855 83.5799 12.7066C83.5799 9.31963 80.5479 8.53564 79.2497 8.53564C78.2596 8.55767 74.8799 8.7955 74.9239 12.8784Z" fill="#E0E0E0"/>
<path d="M80.4026 21.2292H78.0836V23.4006H80.4026V21.2292Z" fill="#E0E0E0"/>
<path d="M48.393 78.266H50.7077C50.7064 78.0022 50.7581 77.7409 50.8597 77.4975C50.9614 77.2541 51.1108 77.0336 51.2992 76.8491C51.4876 76.6647 51.7111 76.52 51.9565 76.4237C52.2019 76.3274 52.4641 76.2814 52.7276 76.2885C53.1155 76.2749 53.498 76.3826 53.8221 76.5965C54.1462 76.8103 54.3958 77.1198 54.5362 77.482C54.6596 77.7853 54.7092 78.1136 54.6809 78.4398C54.6525 78.7661 54.5471 79.0809 54.3734 79.3583C53.9817 80.0058 53.1192 80.596 51.5614 80.3185V85.5377H53.8497V82.481C54.7885 82.206 55.611 81.6299 56.1906 80.8412C56.7702 80.0526 57.0749 79.0952 57.0577 78.1163C57.0577 74.7293 54.0257 73.9409 52.7276 73.9409C51.733 73.9409 48.349 74.1832 48.393 78.266Z" fill="#E0E0E0"/>
<path d="M53.8761 86.6169H51.557V88.7883H53.8761V86.6169Z" fill="#E0E0E0"/>
<path d="M152.167 95.2011L149.575 93.5538C149.575 93.5538 148.189 95.756 145.901 94.3334C145.452 94.0721 145.097 93.6767 144.884 93.2026C144.672 92.7286 144.613 92.1998 144.717 91.6908C144.795 91.2631 144.973 90.8601 145.237 90.5147C145.501 90.1694 145.843 89.8917 146.235 89.7044C147.137 89.264 148.523 89.2111 150.077 90.6293L153.791 84.7715L151.225 83.1375L149.047 86.5729C149.047 86.5729 144.858 85.2163 142.336 89.1847C139.925 92.9857 142.776 96.0291 144.228 96.9584C145.342 97.6764 149.311 99.8169 152.167 95.2011Z" fill="#E0E0E0"/>
<path d="M153.51 79.4981L151.965 81.9333L154.569 83.5886L156.114 81.1534L153.51 79.4981Z" fill="#E0E0E0"/>
<path d="M49.3787 13.8475L47.2269 14.6975C47.3261 14.9419 47.375 15.2039 47.3706 15.4677C47.3663 15.7315 47.3087 15.9917 47.2015 16.2327C47.0942 16.4737 46.9395 16.6905 46.7465 16.8702C46.5535 17.0499 46.3262 17.1888 46.0783 17.2785C45.7224 17.4361 45.3261 17.4784 44.945 17.3994C44.5639 17.3205 44.217 17.1242 43.9528 16.8381C43.7278 16.6015 43.5622 16.3148 43.4696 16.0016C43.3771 15.6884 43.3602 15.3577 43.4204 15.0367C43.548 14.2879 44.1289 13.4246 45.6823 13.1075L43.7636 8.2627L41.6381 9.10393L42.7603 11.9183C41.9882 12.5199 41.4348 13.3585 41.1852 14.3054C40.9355 15.2523 41.0035 16.2551 41.3785 17.1596C42.6195 20.3087 45.7307 19.9255 46.9364 19.4499C47.8605 19.0975 50.9189 17.6441 49.3787 13.8475Z" fill="#E0E0E0"/>
<path d="M42.6159 5.08772L40.4591 5.94653L41.2618 7.96591L43.4186 7.10709L42.6159 5.08772Z" fill="#E0E0E0"/>
<path d="M197 194.903C197 194.965 153.434 195.018 99.6772 195.018C45.9199 195.018 2.34552 194.965 2.34552 194.903C2.34552 194.842 45.9111 194.789 99.6772 194.789C153.443 194.789 197 194.837 197 194.903Z" fill="#263238"/>
<path d="M165.681 117.254L162.297 115.739L182.447 90.343L185.735 91.2547C186.226 91.3902 186.664 91.6712 186.993 92.0607L190.267 95.919C190.493 96.1856 190.604 96.5309 190.576 96.8792C190.548 97.2276 190.383 97.5506 190.117 97.7776L167.499 116.994C167.251 117.205 166.949 117.342 166.628 117.388C166.306 117.434 165.978 117.387 165.681 117.254Z" fill="#455A64"/>
<path d="M188.533 115.466L184.872 118.549C184.672 118.72 184.43 118.835 184.171 118.881C183.912 118.927 183.645 118.904 183.398 118.813L180.643 117.831C180.3 117.703 180.015 117.454 179.842 117.131L164.854 88.8501L168.234 89.8323C168.669 89.9596 169.058 90.2123 169.351 90.559L188.692 113.365C188.948 113.665 189.076 114.054 189.046 114.448C189.016 114.842 188.832 115.208 188.533 115.466Z" fill="#455A64"/>
<g opacity="0.3">
<path opacity="0.3" d="M165.681 117.254L162.297 115.739L182.447 90.3433L185.735 91.255C186.226 91.3905 186.664 91.6714 186.993 92.061L190.267 95.9192C190.493 96.1859 190.604 96.5311 190.576 96.8795C190.548 97.2278 190.383 97.5508 190.117 97.7779L167.499 116.994C167.251 117.205 166.949 117.342 166.628 117.388C166.306 117.434 165.978 117.387 165.681 117.254Z" fill="black"/>
<path opacity="0.3" d="M188.533 115.466L184.872 118.549C184.672 118.72 184.43 118.835 184.171 118.881C183.912 118.927 183.645 118.904 183.398 118.813L180.643 117.831C180.3 117.703 180.015 117.454 179.842 117.131L164.854 88.8501L168.234 89.8323C168.669 89.9596 169.058 90.2123 169.351 90.559L188.692 113.365C188.948 113.665 189.076 114.054 189.046 114.448C189.016 114.842 188.832 115.208 188.533 115.466Z" fill="black"/>
</g>
<path d="M186.34 94.6612L183.014 90.739C182.654 90.3143 182.018 90.2622 181.594 90.6226L158.678 110.087C158.254 110.448 158.202 111.084 158.562 111.509L161.888 115.431C162.248 115.856 162.884 115.908 163.308 115.548L186.224 96.0829C186.648 95.7224 186.7 95.0859 186.34 94.6612Z" fill="#455A64"/>
<path d="M160.136 92.5283L164.162 89.1084C164.34 88.9572 164.571 88.883 164.803 88.9021C165.036 88.9212 165.252 89.0319 165.403 89.2101L184.947 112.26C185.12 112.464 185.205 112.728 185.183 112.995C185.162 113.262 185.035 113.509 184.831 113.682L180.902 117.019C180.698 117.192 180.434 117.277 180.168 117.255C179.901 117.233 179.655 117.106 179.482 116.903L160.034 93.9667C159.861 93.7628 159.776 93.4984 159.798 93.2318C159.82 92.9652 159.946 92.7182 160.15 92.5451L160.136 92.5283Z" fill="#455A64"/>
<path d="M166.561 104.521C165.503 105.578 164.391 106.581 163.23 107.525C162.119 108.527 160.957 109.473 159.749 110.357C160.808 109.298 161.92 108.294 163.08 107.348C164.192 106.347 165.354 105.403 166.561 104.521Z" fill="white"/>
<path d="M181.739 91.5322C181.783 91.5807 180.102 93.0694 177.994 94.8575C175.886 96.6457 174.143 98.0507 174.104 98.0023C174.064 97.9538 175.736 96.4695 177.849 94.6814C179.961 92.8932 181.699 91.4838 181.739 91.5322Z" fill="white"/>
<path d="M167.314 100.887C167.265 100.927 165.967 99.3457 164.414 97.3637C162.86 95.3817 161.641 93.7345 161.69 93.6948C162.717 94.819 163.687 95.9951 164.594 97.2183C165.564 98.3933 166.471 99.6179 167.314 100.887Z" fill="white"/>
<path d="M178.914 114.1C177.858 113.128 176.856 112.099 175.912 111.017C174.911 109.988 173.966 108.904 173.083 107.771C174.135 108.747 175.137 109.776 176.084 110.854C177.084 111.886 178.028 112.969 178.914 114.1Z" fill="white"/>
<path d="M5.91435 112.466L5.21466 109.859L24.0799 113.62L40.7448 90.1667L42.7779 93.9545C42.9338 94.2426 43.0155 94.565 43.0155 94.8927C43.0155 95.2203 42.9338 95.5428 42.7779 95.8308L28.3088 122.341C28.0513 122.812 27.7022 123.226 27.2821 123.56C26.862 123.894 26.3795 124.141 25.8628 124.285C25.3461 124.43 24.8058 124.469 24.2737 124.402C23.7415 124.334 23.2283 124.16 22.7641 123.891L8.16304 115.422C7.61239 115.101 7.13032 114.675 6.74445 114.168C6.35857 113.661 6.07649 113.083 5.91435 112.466Z" fill="#FF725E"/>
<g opacity="0.3">
<path opacity="0.3" d="M5.91435 112.466L5.21466 109.859L24.0799 113.62L40.7448 90.1667L42.7779 93.9545C42.9338 94.2426 43.0155 94.565 43.0155 94.8927C43.0155 95.2203 42.9338 95.5428 42.7779 95.8308L28.3088 122.341C28.0513 122.812 27.7022 123.226 27.2821 123.56C26.862 123.894 26.3795 124.141 25.8628 124.285C25.3461 124.43 24.8058 124.469 24.2737 124.402C23.7415 124.334 23.2283 124.16 22.7641 123.891L8.16304 115.422C7.61239 115.101 7.13032 114.675 6.74445 114.168C6.35857 113.661 6.07649 113.083 5.91435 112.466Z" fill="black"/>
</g>
<path d="M5.26745 108.617L7.987 103.798C8.17397 103.466 8.48108 103.218 8.84527 103.104C9.20946 102.991 9.60306 103.022 9.94525 103.191L20.8586 108.542C21.2077 108.712 21.609 108.74 21.9783 108.62C22.3476 108.5 22.656 108.242 22.8389 107.899L33.6643 87.5683C33.7602 87.3878 33.8921 87.229 34.0517 87.1015C34.2113 86.974 34.3953 86.8805 34.5924 86.8269C34.7894 86.7733 34.9954 86.7606 35.1975 86.7896C35.3996 86.8186 35.5937 86.8888 35.7678 86.9957L40.1683 89.7044C40.4948 89.9049 40.7321 90.2232 40.8311 90.5935C40.9302 90.9639 40.8835 91.3582 40.7008 91.6952L26.5486 117.597C26.0913 118.435 25.3227 119.059 24.4092 119.333C23.4958 119.608 22.511 119.511 21.6683 119.064L5.86593 110.696C5.68706 110.602 5.52904 110.473 5.4014 110.316C5.27375 110.159 5.17911 109.978 5.12319 109.784C5.06727 109.59 5.05122 109.386 5.07601 109.186C5.10081 108.985 5.16593 108.792 5.26745 108.617Z" fill="#FF725E"/>
<path d="M20.1149 109.775C19.9131 109.715 19.7172 109.637 19.5297 109.542L17.9763 108.837C16.6561 108.229 14.8695 107.379 12.8892 106.428L11.4414 105.732L10.755 105.402C10.5525 105.29 10.3294 105.221 10.0993 105.199C9.88775 105.181 9.67468 105.205 9.47281 105.271C9.27093 105.337 9.08438 105.443 8.92432 105.582C8.65872 105.857 8.44282 106.176 8.28624 106.525L7.43693 108.009C7.34042 108.195 7.227 108.372 7.09808 108.537C7.16624 108.339 7.25318 108.147 7.35772 107.965L8.14102 106.445L8.40505 105.943C8.50511 105.753 8.63765 105.581 8.7967 105.437C8.97599 105.278 9.18526 105.158 9.41206 105.082C9.63886 105.007 9.87855 104.977 10.1169 104.996C10.374 105.017 10.6241 105.091 10.8518 105.212L11.5383 105.538L12.9816 106.221C14.9619 107.172 16.7529 108.049 18.0423 108.692L19.5825 109.462C19.7681 109.552 19.9461 109.657 20.1149 109.775Z" fill="white"/>
<path d="M24.1151 108.899C24.0579 108.868 26.3505 104.331 29.2373 98.7687C32.1241 93.206 34.518 88.7135 34.562 88.7443C34.606 88.7751 32.3265 93.3073 29.4397 98.8744C26.553 104.442 24.1679 108.925 24.1151 108.899Z" fill="white"/>
<path d="M69.5724 48.3056C70.5783 40.1996 64.8283 32.8123 56.7294 31.8055C48.6304 30.7987 41.2495 36.5537 40.2436 44.6597C39.2377 52.7657 44.9877 60.1531 53.0867 61.1599C61.1856 62.1666 68.5665 56.4116 69.5724 48.3056Z" fill="white"/>
<path d="M69.6829 46.4751C69.6829 46.4751 69.6829 46.3958 69.6829 46.2372C69.6829 46.0787 69.6829 45.8364 69.6565 45.5325L69.6345 45.0128C69.6345 44.8234 69.5817 44.6164 69.5509 44.3918C69.5201 44.1672 69.4805 43.9249 69.4453 43.6695C69.41 43.414 69.322 43.1453 69.2604 42.8591C68.9274 41.4623 68.3812 40.1253 67.641 38.8951C66.6755 37.2555 65.4006 35.8194 63.8873 34.6669L63.2493 34.1868C63.0248 34.0371 62.7872 33.9005 62.554 33.7464C62.3207 33.5922 62.0875 33.4425 61.8323 33.3059L61.0622 32.9315L60.6705 32.7466L60.2569 32.5968L59.4252 32.2885C59.1391 32.1916 58.8443 32.1299 58.5451 32.0507C58.2554 31.9667 57.9617 31.8976 57.6649 31.8437C57.0443 31.7275 56.4165 31.654 55.7859 31.6234C55.4647 31.6234 55.1434 31.5794 54.8178 31.5838L53.8365 31.6323C53.6692 31.6323 53.502 31.6323 53.3392 31.6631L52.8419 31.738C52.5119 31.7908 52.1774 31.8305 51.843 31.9009C51.1709 32.0492 50.5094 32.242 49.8628 32.4779C49.1968 32.7154 48.5483 32.9994 47.9221 33.3279C47.6097 33.4953 47.306 33.6935 46.9936 33.8785C46.844 33.9754 46.6811 34.0591 46.5535 34.1692L46.1135 34.4951C45.5215 34.9355 44.9585 35.4136 44.4281 35.9265L43.6712 36.759L43.4819 36.9704L43.3103 37.195L42.9715 37.6354L42.6282 38.0759L42.329 38.5648L42.0298 39.0537L41.8801 39.3047L41.7525 39.5646C41.5853 39.9125 41.4137 40.2605 41.2465 40.6128C41.0792 40.9652 40.978 41.3439 40.8416 41.7139C39.8205 44.7606 39.8205 48.0574 40.8416 51.1041C40.978 51.4741 41.11 51.8396 41.2465 52.2052L41.7481 53.2578L41.8757 53.5177L42.0254 53.7643L42.3246 54.2576L42.6282 54.7465L42.9671 55.187L43.3103 55.6274L43.4819 55.8564L43.6712 56.0634L44.4281 56.8959C44.9574 57.41 45.5204 57.8882 46.1135 58.3273L46.5535 58.6576C46.6987 58.7677 46.8616 58.8514 46.9936 58.9483C47.306 59.1289 47.6053 59.3271 47.9221 59.4989C48.5483 59.8274 49.1968 60.1114 49.8628 60.3489C50.5094 60.5848 51.1709 60.7776 51.843 60.9259C52.1774 60.9964 52.5119 61.0316 52.8419 61.0889L53.3392 61.1637C53.5064 61.1857 53.6692 61.1637 53.8365 61.1946L54.8178 61.243C55.1434 61.243 55.4691 61.2166 55.7859 61.2034C56.4165 61.1728 57.0443 61.0993 57.6649 60.9831C57.9617 60.9297 58.2555 60.8606 58.5451 60.7761C58.8399 60.6925 59.1347 60.6308 59.4252 60.5383L60.2569 60.23L60.6705 60.0802L61.0622 59.8909L61.8323 59.5209C62.0875 59.402 62.3163 59.2346 62.554 59.0804C62.7916 58.9263 63.0248 58.7986 63.2493 58.64L63.8917 58.1599C65.4026 57.0061 66.6759 55.5703 67.641 53.9317C68.3804 52.7012 68.9266 51.3643 69.2604 49.9678C69.3359 49.701 69.3976 49.4305 69.4453 49.1573C69.4805 48.8975 69.5201 48.6552 69.5509 48.4306C69.5817 48.206 69.6169 47.9902 69.6345 47.8096C69.6521 47.629 69.6345 47.4484 69.6565 47.2943C69.6565 46.986 69.6785 46.7525 69.6829 46.5896C69.6873 46.4266 69.6829 46.3473 69.6829 46.3473C69.6829 46.3473 69.6829 46.431 69.6829 46.5896C69.6829 46.7481 69.6609 46.986 69.6389 47.2899C69.6389 47.444 69.6389 47.6158 69.6081 47.8096C69.5773 48.0034 69.5509 48.2016 69.5157 48.4262C69.4805 48.6508 69.4409 48.8667 69.4013 49.1441C69.353 49.4165 69.2883 49.6856 69.2076 49.9501C68.8648 51.3333 68.3143 52.6565 67.575 53.8744C66.6129 55.538 65.333 56.9957 63.8081 58.1643L63.1745 58.64C62.95 58.7854 62.7124 58.9219 62.4836 59.0804C62.2547 59.239 62.0171 59.3799 61.7619 59.4989L61.0006 59.8644L60.6133 60.0494L60.2041 60.1992L59.3768 60.4987C59.0951 60.5912 58.8003 60.6528 58.4967 60.7321C58.207 60.8149 57.9132 60.8825 57.6165 60.9347C57.0015 61.0474 56.3796 61.1195 55.7551 61.1505C55.4383 61.1505 55.1214 61.1902 54.7958 61.1857L53.8233 61.1329C53.6604 61.1329 53.4976 61.1329 53.3348 61.1021L52.8419 61.0272C52.5163 60.9743 52.1818 60.9347 51.8562 60.8686C51.1897 60.7209 50.534 60.5281 49.8936 60.2917C49.2374 60.0544 48.5979 59.7733 47.9793 59.4504C47.6669 59.2786 47.372 59.0849 47.064 58.8999C46.9144 58.803 46.7516 58.7237 46.6239 58.6136L46.1839 58.2877C45.5967 57.853 45.0395 57.3792 44.5161 56.8694L43.7856 56.0502L43.5964 55.8432L43.4291 55.6186L43.0903 55.1782L42.7514 54.7377L42.4566 54.2532L42.1618 53.7643L42.0121 53.5221L41.8889 53.2622L41.3873 52.2272L40.9912 51.1349C39.9819 48.1255 39.9819 44.8686 40.9912 41.8593L41.3917 40.767C41.5589 40.4234 41.7217 40.0755 41.8889 39.7319L42.0166 39.4765L42.1618 39.2298L42.4566 38.7454L42.7558 38.2609L43.0903 37.8204L43.4291 37.38L43.5964 37.1554L43.7856 36.9484L44.5337 36.1247C45.0567 35.6163 45.6124 35.1426 46.1971 34.7065L46.6371 34.385C46.778 34.2749 46.9408 34.1912 47.0772 34.0943C47.3852 33.9137 47.6801 33.7155 47.9925 33.5482C48.6111 33.2252 49.2506 32.9442 49.9068 32.7069C50.5472 32.4705 51.2029 32.2777 51.8694 32.1299C52.195 32.0639 52.5295 32.0242 52.8551 31.9714L53.348 31.8965C53.5108 31.8745 53.6736 31.8745 53.8365 31.8613L54.809 31.8128C55.1346 31.8128 55.4515 31.8393 55.7683 31.8481C56.3928 31.8793 57.0146 31.9514 57.6297 32.0639C57.9269 32.114 58.2207 32.1816 58.5099 32.2665C58.8003 32.3458 59.0951 32.4074 59.39 32.4999L60.2173 32.7994L60.6221 32.9492L61.0138 33.1342L61.7751 33.4997C62.0303 33.6142 62.2547 33.7816 62.4924 33.9137C62.73 34.0459 62.9632 34.1912 63.1877 34.3542L63.8213 34.8254C65.3253 35.9661 66.5965 37.385 67.5662 39.0052C68.3048 40.2236 68.8552 41.5466 69.1988 42.9295C69.2786 43.1943 69.3432 43.4634 69.3924 43.7355C69.4321 43.9954 69.4717 44.2332 69.5069 44.4579C69.5421 44.6825 69.5817 44.8983 69.5993 45.0745C69.6169 45.2506 69.6213 45.4356 69.6301 45.5942C69.6521 45.8981 69.6653 46.1315 69.6741 46.2945C69.6829 46.4574 69.6829 46.4751 69.6829 46.4751Z" fill="#263238"/>
<path d="M75.3024 55.773C75.3024 56.2486 75.1615 56.7135 74.8975 57.109C74.6335 57.5045 74.2582 57.8127 73.8192 57.9947C73.3802 58.1767 72.8971 58.2244 72.431 58.1316C71.9649 58.0388 71.5368 57.8097 71.2007 57.4734C70.8647 57.1371 70.6359 56.7086 70.5432 56.2421C70.4505 55.7756 70.498 55.2921 70.6799 54.8527C70.8618 54.4133 71.1697 54.0377 71.5648 53.7735C71.96 53.5092 72.4245 53.3682 72.8997 53.3682C73.2154 53.3676 73.5281 53.4294 73.8199 53.55C74.1117 53.6707 74.3768 53.8478 74.6 54.0712C74.8232 54.2946 75.0002 54.56 75.1207 54.852C75.2413 55.144 75.303 55.457 75.3024 55.773Z" fill="white"/>
<path d="M75.3024 55.7728C75.3024 55.7728 75.3024 55.72 75.3024 55.6187C75.3037 55.4705 75.2874 55.3226 75.254 55.1782C75.1299 54.6338 74.8183 54.1505 74.3739 53.8129C74.0782 53.5712 73.73 53.4022 73.3573 53.3196C72.9161 53.2348 72.4603 53.2698 72.0372 53.4209C71.5699 53.5903 71.1649 53.8974 70.8754 54.3018C70.5613 54.7286 70.3918 55.2449 70.3918 55.775C70.3918 56.3052 70.5613 56.8214 70.8754 57.2483C71.1649 57.6526 71.5699 57.9598 72.0372 58.1292C72.4594 58.2846 72.9164 58.3197 73.3573 58.2305C73.818 58.139 74.2426 57.9168 74.5805 57.5903C74.9183 57.2639 75.1552 56.847 75.2628 56.3894C75.2962 56.2451 75.3125 56.0972 75.3112 55.949C75.3112 55.8477 75.3112 55.7948 75.3112 55.7948C75.3112 55.7948 75.3112 56.0107 75.2012 56.3762C75.0837 56.8079 74.8466 57.1975 74.5172 57.4999C74.1878 57.8023 73.7795 58.0052 73.3397 58.0851C72.9294 58.1572 72.5073 58.1192 72.1164 57.975C71.6852 57.8191 71.311 57.5367 71.0426 57.1646C70.751 56.7676 70.5936 56.2877 70.5936 55.7948C70.5936 55.302 70.751 54.8221 71.0426 54.4251C71.3123 54.0543 71.6861 53.7723 72.1164 53.6147C72.5073 53.4705 72.9294 53.4325 73.3397 53.5046C73.7801 53.5848 74.1887 53.7884 74.5182 54.0916C74.8476 54.3949 75.0845 54.7854 75.2012 55.2179C75.2936 55.557 75.2848 55.7728 75.3024 55.7728Z" fill="#263238"/>
<path d="M50.0476 47.6423V49.6551H48.4634V47.6203L46.3291 44.0703H47.9969L49.3171 46.2989L50.6373 44.0703H52.173L50.0476 47.6423Z" fill="#263238"/>
<path d="M57.0576 48.4307V49.6551H52.5867V44.0703H56.9872V45.2991H54.1665V46.2417H56.6528V47.4265H54.1665V48.4527L57.0576 48.4307Z" fill="#263238"/>
<path d="M57.5417 49.1487L58.061 47.9815C58.6148 48.3317 59.2543 48.5222 59.9093 48.5321C60.5649 48.5321 60.8202 48.3471 60.8202 48.0916C60.8202 47.2108 57.6386 47.8494 57.6386 45.7705C57.6386 44.7663 58.4571 43.9515 60.1205 43.9515C60.8272 43.9397 61.5253 44.1079 62.1491 44.4404L61.6607 45.6164C61.1884 45.3441 60.6564 45.1929 60.1117 45.1759C59.4472 45.1759 59.2052 45.4006 59.2052 45.678C59.2052 46.5589 62.3824 45.8939 62.3824 47.9595C62.3824 48.9373 61.5639 49.7697 59.9004 49.7697C59.0715 49.7893 58.2538 49.574 57.5417 49.1487Z" fill="#263238"/>
<path d="M151.581 71.5287C160.275 70.4217 166.426 62.4705 165.32 53.7691C164.214 45.0677 156.27 38.9112 147.576 40.0181C138.882 41.1251 132.731 49.0763 133.837 57.7777C134.943 66.4791 142.887 72.6356 151.581 71.5287Z" fill="white"/>
<path d="M133.707 55.7816C133.707 55.7816 133.707 55.6935 133.707 55.5217C133.707 55.3499 133.707 55.0813 133.737 54.7686L133.759 54.2092C133.759 54.0066 133.817 53.7688 133.852 53.5441C133.887 53.3195 133.922 53.042 133.966 52.7646C134.014 52.4672 134.08 52.173 134.164 51.8837C134.524 50.3865 135.11 48.9531 135.903 47.6334C136.94 45.8743 138.307 44.3324 139.929 43.0925L140.616 42.5772C140.858 42.4186 141.113 42.2733 141.364 42.1368C141.614 42.0002 141.865 41.8108 142.143 41.6963L142.965 41.2999L143.406 41.0973L143.846 40.9344L144.726 40.604C145.029 40.5027 145.351 40.4367 145.663 40.3486C145.98 40.2575 146.302 40.184 146.627 40.1284C147.293 40.0042 147.966 39.9247 148.642 39.8905C148.99 39.8905 149.333 39.8421 149.685 39.8465L150.741 39.8993C150.917 39.8993 151.093 39.8993 151.274 39.9346L151.806 40.0138C152.158 40.0711 152.519 40.1151 152.88 40.1856C153.601 40.3486 154.31 40.556 155.005 40.8066C155.72 41.0625 156.416 41.3686 157.087 41.7227C157.426 41.9033 157.751 42.1147 158.081 42.3129C158.249 42.4186 158.42 42.5067 158.579 42.6256L159.045 42.978C159.684 43.4487 160.289 43.9623 160.858 44.5151L161.672 45.396L161.875 45.6206L162.059 45.8629L162.425 46.3518L162.79 46.8406L163.116 47.3692L163.437 47.8977L163.595 48.162L163.732 48.4394C163.912 48.8138 164.093 49.1926 164.277 49.567C164.462 49.9413 164.563 50.3554 164.717 50.7518C165.82 54.0216 165.82 57.5635 164.717 60.8334C164.572 61.2298 164.431 61.6262 164.277 62.0182L163.736 63.1457L163.6 63.4232L163.437 63.6875L163.116 64.2204L162.794 64.7445L162.425 65.2334L162.059 65.7267L161.875 65.9689L161.672 66.1936L160.858 67.0744C160.289 67.6249 159.685 68.1384 159.05 68.6116L158.579 68.9639C158.42 69.0784 158.249 69.1709 158.086 69.2722C157.751 69.4704 157.426 69.6863 157.091 69.8668C156.417 70.217 155.72 70.5216 155.005 70.7785C154.31 71.0338 153.599 71.2413 152.876 71.3996C152.519 71.4744 152.158 71.5141 151.802 71.5713L151.274 71.655C151.093 71.677 150.917 71.677 150.737 71.6858L149.685 71.7387C149.333 71.7387 148.985 71.7079 148.642 71.6991C147.966 71.6636 147.292 71.5827 146.627 71.4568C146.301 71.4038 145.979 71.3302 145.663 71.2366C145.346 71.1485 145.029 71.0824 144.726 70.9811L143.846 70.6508L143.406 70.4923L142.965 70.2897L142.138 69.8888C141.865 69.7611 141.619 69.5849 141.364 69.4484C141.108 69.3119 140.858 69.1489 140.616 68.986L139.929 68.4706C138.305 67.232 136.936 65.6899 135.898 63.9297C135.107 62.6098 134.522 61.1764 134.164 59.6795C134.08 59.3903 134.014 59.0961 133.966 58.7986C133.922 58.5211 133.887 58.2612 133.852 58.0234C133.817 57.7856 133.777 57.583 133.759 57.3539C133.742 57.1249 133.759 56.9664 133.737 56.799C133.737 56.4687 133.715 56.2176 133.707 56.0414C133.698 55.8653 133.707 55.786 133.707 55.786C133.707 55.786 133.707 55.8741 133.729 56.0414C133.751 56.2088 133.759 56.4819 133.777 56.7946C133.777 56.962 133.799 57.1469 133.812 57.3495C133.825 57.5521 133.874 57.79 133.909 58.0146C133.944 58.2392 133.988 58.5123 134.032 58.7854C134.076 59.0584 134.169 59.3491 134.239 59.6663C134.611 61.1517 135.205 62.5726 135.999 63.8813C137.04 65.6216 138.406 67.1453 140.021 68.3693L140.704 68.8758C140.941 69.0344 141.196 69.1797 141.447 69.3163C141.696 69.476 141.953 69.623 142.217 69.7567L143.036 70.1487L143.476 70.3469L143.916 70.5099L144.796 70.8314C145.1 70.9327 145.417 70.9988 145.729 71.0824C146.043 71.173 146.362 71.2451 146.684 71.2983C147.342 71.4212 148.008 71.4992 148.677 71.5317C149.021 71.5317 149.364 71.5757 149.707 71.5713L150.754 71.5141C150.926 71.5141 151.106 71.5141 151.278 71.4832L151.806 71.3996C152.158 71.3423 152.515 71.3027 152.867 71.2278C153.582 71.0689 154.286 70.8629 154.975 70.6112C155.68 70.3564 156.366 70.0532 157.03 69.7039C157.364 69.5233 157.685 69.3119 158.015 69.1181C158.174 69.0124 158.35 68.9243 158.499 68.8098L158.966 68.4618C159.595 67.993 160.193 67.484 160.757 66.9379L161.558 66.057L161.76 65.8368L161.941 65.5946L162.302 65.1101L162.667 64.6256L162.984 64.1059L163.3 63.5818L163.459 63.3219L163.595 63.0444C163.771 62.6745 163.952 62.3045 164.128 61.9301C164.304 61.5557 164.414 61.1505 164.568 60.7629C165.084 59.1506 165.357 57.4702 165.378 55.7772C165.358 54.0852 165.083 52.4059 164.563 50.7958L164.123 49.6286C163.943 49.2543 163.767 48.8843 163.586 48.5143L163.454 48.2368L163.296 47.977L162.975 47.4529L162.658 46.9331L162.297 46.4487L161.936 45.9642L161.756 45.7263L161.553 45.5017L160.753 44.6208C160.189 44.0762 159.591 43.5686 158.962 43.1013L158.495 42.7534C158.341 42.6345 158.169 42.5464 158.011 42.4451C157.681 42.2469 157.36 42.0399 157.025 41.8549C155.709 41.1707 154.31 40.6599 152.862 40.3354C152.51 40.2605 152.154 40.2208 151.802 40.1592L151.278 40.0799C151.102 40.0579 150.926 40.0579 150.75 40.0447L149.703 39.9918C149.359 39.9918 149.016 40.0182 148.677 40.0315C148.007 40.0615 147.339 40.1395 146.68 40.2649C146.357 40.3144 146.037 40.3865 145.725 40.4807C145.412 40.5644 145.095 40.6305 144.792 40.7274L143.912 41.0533L143.472 41.2118L143.031 41.41L142.213 41.802C141.94 41.9298 141.698 42.1059 141.443 42.2425C141.188 42.379 140.941 42.5376 140.699 42.6829L140.017 43.1938C138.401 44.4181 137.036 45.9418 135.995 47.6819C135.201 48.9894 134.608 50.4088 134.235 51.8925C134.164 52.2008 134.063 52.4827 134.028 52.7734C133.993 53.0641 133.944 53.3063 133.905 53.5485C133.865 53.7908 133.83 53.989 133.808 54.2092C133.786 54.4294 133.781 54.6012 133.773 54.7642L133.724 55.5173C133.72 55.6935 133.707 55.7816 133.707 55.7816Z" fill="#263238"/>
<path d="M127.674 65.7621C127.673 66.2738 127.824 66.7743 128.107 67.2001C128.391 67.626 128.794 67.958 129.266 68.1543C129.738 68.3505 130.258 68.4021 130.76 68.3024C131.261 68.2028 131.722 67.9565 132.083 67.5947C132.445 67.2328 132.691 66.7718 132.79 66.2698C132.89 65.7679 132.838 65.2477 132.642 64.7751C132.446 64.3025 132.114 63.8988 131.689 63.615C131.264 63.3313 130.764 63.1803 130.252 63.1812C129.569 63.1823 128.913 63.4546 128.43 63.9384C127.947 64.4222 127.675 65.078 127.674 65.7621Z" fill="white"/>
<path d="M127.673 65.7619C127.667 65.7078 127.667 65.6531 127.673 65.599C127.672 65.4389 127.689 65.2791 127.726 65.1233C127.857 64.5406 128.187 64.0218 128.659 63.6566C128.985 63.4015 129.366 63.2278 129.773 63.1501C130.211 63.0616 130.664 63.0849 131.091 63.2179C131.518 63.3509 131.904 63.5894 132.215 63.9113C132.525 64.2332 132.75 64.6281 132.868 65.0597C132.986 65.4913 132.993 65.9457 132.889 66.3809C132.785 66.8161 132.574 67.2181 132.274 67.5499C131.974 67.8817 131.595 68.1325 131.173 68.2793C130.751 68.4261 130.298 68.464 129.857 68.3897C129.416 68.3154 129.001 68.1312 128.65 67.854C128.177 67.4896 127.847 66.9705 127.717 66.3874C127.681 66.233 127.663 66.0747 127.665 65.9161C127.658 65.8605 127.658 65.8043 127.665 65.7487C127.687 65.7487 127.665 65.9777 127.784 66.3697C127.935 66.9214 128.267 67.4066 128.725 67.7483C129.06 67.998 129.452 68.1602 129.866 68.2202C130.279 68.2802 130.701 68.2361 131.093 68.0919C131.557 67.9216 131.959 67.6145 132.246 67.211C132.56 66.7851 132.73 66.2695 132.73 65.7399C132.73 65.2103 132.56 64.6947 132.246 64.2688C131.959 63.8653 131.557 63.5582 131.093 63.388C130.67 63.2339 130.215 63.1944 129.773 63.2734C129.391 63.3369 129.03 63.4876 128.716 63.7139C128.258 64.0556 127.926 64.5407 127.775 65.0925C127.687 65.5329 127.695 65.7619 127.673 65.7619Z" fill="#263238"/>
<path d="M148.84 52.2009V58.9132H147.278L144.316 55.3369V58.9132H142.459V52.2009H144.022L146.983 55.7773V52.2009H148.84Z" fill="#263238"/>
<path d="M149.839 55.5571C149.839 53.5443 151.419 52.0645 153.566 52.0645C155.714 52.0645 157.294 53.5443 157.294 55.5571C157.294 57.57 155.714 59.0498 153.566 59.0498C151.419 59.0498 149.839 57.57 149.839 55.5571ZM155.379 55.5571C155.359 55.2035 155.235 54.8636 155.024 54.5794C154.813 54.2952 154.523 54.0792 154.19 53.9579C153.858 53.8366 153.497 53.8154 153.152 53.8969C152.808 53.9784 152.495 54.1591 152.252 54.4165C152.009 54.674 151.846 54.9971 151.784 55.3459C151.722 55.6947 151.764 56.054 151.904 56.3795C152.044 56.705 152.276 56.9824 152.571 57.1775C152.866 57.3726 153.212 57.4769 153.566 57.4775C153.814 57.4805 154.06 57.432 154.289 57.3352C154.517 57.2384 154.723 57.0952 154.893 56.9148C155.064 56.7344 155.195 56.5206 155.278 56.2869C155.362 56.0533 155.396 55.8048 155.379 55.5571Z" fill="#263238"/>
<path d="M126.306 33.3766C133.344 30.6047 136.8 22.6362 134.025 15.5785C131.25 8.52082 123.296 5.0465 116.258 7.81841C109.22 10.5903 105.764 18.5588 108.538 25.6165C111.313 32.6742 119.268 36.1485 126.306 33.3766Z" fill="white"/>
<path d="M115.823 33.1739L116.03 33.2576L116.637 33.4954L117.077 33.6716C117.244 33.7244 117.433 33.7685 117.636 33.8257L118.292 34.0019C118.542 34.0642 118.797 34.1127 119.053 34.1473C120.361 34.3774 121.697 34.4057 123.013 34.231C124.765 34.021 126.46 33.4736 128.004 32.6189L128.65 32.2534C128.857 32.1168 129.064 31.9627 129.271 31.8129C129.478 31.6632 129.711 31.5267 129.896 31.3725L130.499 30.8528L131.053 30.3287L131.084 30.2934C131.273 30.0996 131.462 29.897 131.652 29.6988C131.841 29.5006 131.999 29.2584 132.175 29.0426C132.357 28.8109 132.525 28.5682 132.677 28.3158C133.004 27.8311 133.298 27.3249 133.557 26.8007C133.685 26.5321 133.834 26.2678 133.949 25.9903L134.389 24.8188L134.437 24.691L134.556 24.2506C134.631 23.9467 134.723 23.6472 134.789 23.3389C134.91 22.7105 134.991 22.0749 135.031 21.4362C135.075 20.7821 135.075 20.1259 135.031 19.4718C135.005 19.1415 134.948 18.8112 134.904 18.4808C134.877 18.3135 134.868 18.1461 134.829 17.9787L134.71 17.4854C134.601 16.95 134.454 16.4231 134.27 15.9087C134.169 15.6532 134.063 15.3978 133.962 15.1379L133.557 14.3275L133.425 14.0985L133.165 13.658L132.901 13.2176L132.598 12.7771L132.29 12.3367L132.136 12.1165L131.96 11.9095L130.569 10.4384L130.468 10.3415C128.256 8.34498 125.453 7.12628 122.485 6.87085H122.358H120.32H120.052L119.783 6.91049L119.255 6.98096L118.727 7.05583L118.212 7.17916L117.702 7.30248L117.447 7.36414L116.606 7.65043L115.832 7.95433C115.327 8.16668 114.838 8.4124 114.366 8.68986L113.926 8.94532C113.781 9.029 113.649 9.13471 113.512 9.2272C113.24 9.4254 112.962 9.61038 112.698 9.81299C111.693 10.6323 110.799 11.5783 110.036 12.6274C109.856 12.8828 109.697 13.1559 109.53 13.4202L109.284 13.8122C109.26 13.8474 109.24 13.8842 109.222 13.9223C109.037 14.3011 108.852 14.671 108.667 15.041C108.544 15.3185 108.452 15.6048 108.346 15.8822C108.139 16.4307 107.97 16.9928 107.84 17.5647C107.77 17.8416 107.717 18.1225 107.682 18.406C107.642 18.6834 107.585 18.9609 107.563 19.2384C107.541 19.5159 107.528 19.7933 107.515 20.0664V20.868C107.515 21.1367 107.537 21.4009 107.545 21.6652C107.554 21.9295 107.611 22.1805 107.638 22.436C107.664 22.6914 107.704 22.9381 107.748 23.1847L107.919 23.907C108.341 25.6208 109.088 27.2372 110.12 28.6682C110.893 29.7488 111.826 30.7053 112.888 31.5046C113.086 31.6633 113.293 31.8104 113.508 31.9451L114.085 32.3062C114.265 32.4119 114.428 32.522 114.582 32.6057L115.022 32.8171L115.612 33.099L115.814 33.1915L115.62 33.0858L115.039 32.7863L114.599 32.5705C114.445 32.4824 114.283 32.3723 114.107 32.2622L113.534 31.901C113.323 31.7646 113.119 31.6176 112.923 31.4606C111.886 30.6404 110.98 29.6678 110.234 28.5757C109.202 27.156 108.455 25.5496 108.034 23.8454C107.977 23.6076 107.919 23.3697 107.867 23.1275C107.814 22.8852 107.796 22.6342 107.761 22.3831C107.718 22.1294 107.689 21.8736 107.673 21.6168C107.673 21.3613 107.651 21.097 107.642 20.8328C107.633 20.5685 107.642 20.2778 107.642 20.0708V20.0312L107.695 19.2164C107.717 18.9389 107.774 18.6702 107.814 18.3927C107.851 18.1126 107.904 17.8347 107.972 17.5603C108.108 16.9897 108.283 16.429 108.496 15.8822C108.601 15.6092 108.694 15.3229 108.817 15.0542C108.998 14.6842 109.182 14.3143 109.367 13.9399C109.367 13.9047 109.407 13.8694 109.429 13.8342C109.508 13.7065 109.592 13.5787 109.671 13.4466C109.838 13.1868 109.996 12.9181 110.177 12.6626C110.548 12.1521 110.952 11.6666 111.387 11.2092C111.831 10.7363 112.308 10.2948 112.813 9.88786C113.072 9.68526 113.35 9.50468 113.618 9.31088C113.755 9.21839 113.882 9.10828 114.027 9.029L114.467 8.77795C115.055 8.44499 115.663 8.15074 116.289 7.89707L117.266 7.56674L117.513 7.48306L117.763 7.4214L118.27 7.30248L118.78 7.17916L119.304 7.10869L119.823 7.03381L120.087 6.99858H120.351H122.375H122.494C125.426 7.25054 128.196 8.45547 130.38 10.4296L130.477 10.5221L131.854 11.9799L132.03 12.1825L132.18 12.3984L132.488 12.8388L132.787 13.2792L133.047 13.7197L133.306 14.1601L133.434 14.3847L133.539 14.6226C133.685 14.9353 133.825 15.248 133.98 15.5607C134.218 16.1947 134.415 16.8435 134.569 17.5031L134.684 17.9919C134.723 18.1549 134.732 18.3223 134.758 18.4852C134.802 18.8156 134.86 19.1415 134.886 19.4674C134.932 20.114 134.932 20.7631 134.886 21.4098C134.849 22.041 134.771 22.6692 134.653 23.2904C134.587 23.5987 134.499 23.8938 134.424 24.1713L134.305 24.6118C134.296 24.6507 134.284 24.6889 134.27 24.7263L133.83 25.889C133.715 26.1665 133.57 26.4264 133.447 26.6906C133.187 27.2115 132.893 27.7147 132.567 28.1969C132.414 28.4345 132.246 28.6624 132.065 28.8796C131.894 29.0998 131.731 29.32 131.55 29.5315L130.987 30.1261L130.71 30.4167L130.683 30.4432L129.803 31.1963C129.61 31.3681 129.385 31.5002 129.183 31.6368C128.98 31.7733 128.774 31.9363 128.567 32.0772L127.929 32.4428C126.41 33.3228 124.734 33.8988 122.996 34.1385C121.688 34.3203 120.359 34.301 119.057 34.0812C118.803 34.0513 118.55 34.0071 118.3 33.9491L117.645 33.7773C117.442 33.7244 117.253 33.6848 117.086 33.632L116.646 33.4646L116.03 33.2444L115.823 33.1739Z" fill="#263238"/>
<path d="M110.353 39.1375C109.876 39.051 109.441 38.8118 109.112 38.4559C108.784 38.1 108.58 37.6467 108.531 37.1645C108.482 36.6823 108.592 36.1974 108.843 35.7829C109.094 35.3685 109.473 35.047 109.922 34.867C110.372 34.687 110.868 34.6583 111.335 34.7852C111.802 34.9121 112.216 35.1877 112.513 35.5704C112.81 35.9531 112.974 36.4222 112.982 36.9068C112.989 37.3914 112.839 37.8652 112.553 38.2566C112.306 38.5951 111.968 38.8571 111.579 39.0129C111.19 39.1686 110.765 39.2118 110.353 39.1375Z" fill="white"/>
<path d="M109.86 38.9833C109.86 38.9833 109.904 39.0141 109.988 39.0493C110.114 39.1054 110.247 39.1453 110.384 39.1683C110.89 39.2669 111.415 39.1842 111.867 38.9348C112.203 38.7502 112.488 38.4834 112.694 38.1592C112.9 37.8351 113.021 37.464 113.046 37.0806C113.083 36.6193 112.977 36.1579 112.742 35.7593C112.495 35.3346 112.117 35.0012 111.665 34.8084C111.213 34.6156 110.712 34.5737 110.234 34.689C109.808 34.7865 109.418 35.0043 109.112 35.3166C108.805 35.6288 108.595 36.0224 108.505 36.4507C108.43 36.8 108.437 37.162 108.527 37.5078C108.653 38.0075 108.95 38.447 109.367 38.7498C109.477 38.8329 109.597 38.9024 109.724 38.9568C109.807 38.9965 109.856 39.0141 109.856 39.0053C109.856 38.9965 109.68 38.9172 109.416 38.7014C109.03 38.391 108.76 37.9597 108.65 37.477C108.571 37.1499 108.571 36.8086 108.65 36.4816C108.737 36.1055 108.924 35.76 109.191 35.4818C109.483 35.1712 109.862 34.9563 110.278 34.8652C110.72 34.7674 111.182 34.8105 111.598 34.9885C112.016 35.1685 112.366 35.477 112.597 35.8694C112.816 36.2353 112.919 36.6592 112.892 37.085C112.869 37.4453 112.758 37.7945 112.568 38.1017C112.379 38.4089 112.117 38.6648 111.805 38.8467C111.376 39.0914 110.878 39.1874 110.388 39.1198C110.049 39.0537 109.869 38.9701 109.86 38.9833Z" fill="#263238"/>
<path d="M117.403 18.287H119.475C119.475 18.0515 119.522 17.8184 119.614 17.6015C119.705 17.3845 119.839 17.1881 120.008 17.0238C120.176 16.8596 120.376 16.7309 120.595 16.6452C120.815 16.5596 121.049 16.5188 121.284 16.5253C121.633 16.5117 121.977 16.6076 122.269 16.7995C122.561 16.9913 122.786 17.2697 122.912 17.5956C123.021 17.868 123.065 18.1624 123.039 18.4547C123.013 18.7471 122.918 19.0292 122.762 19.278C122.41 19.8594 121.64 20.3879 120.241 20.1589V24.8055H122.292V22.0484C123.134 21.8015 123.871 21.2846 124.391 20.5771C124.911 19.8697 125.185 19.011 125.17 18.1329C125.17 15.0983 122.45 14.3936 121.284 14.3936C120.395 14.4112 117.363 14.6226 117.403 18.287Z" fill="#263238"/>
<path d="M122.318 25.7744H120.237V27.7212H122.318V25.7744Z" fill="#263238"/>
<path d="M45.5898 141.954C45.5898 141.954 41.8318 138.43 40.384 137.483C38.9362 136.536 35.6974 135.254 34.4872 135.136C33.2771 135.017 27.6135 136.659 27.6135 136.659C27.6135 136.659 19.2525 135.92 17.8487 136.897C16.4449 137.875 16.5593 138.888 17.149 139.632C17.7387 140.377 19.9962 140.139 22.4957 140.179C24.9952 140.218 25.6597 140.452 25.6597 140.452L22.0292 144.323L31.464 146.944L37.1848 146.728L39.253 149.335L45.5898 141.954Z" fill="#FFBF9D"/>
<path d="M16.9422 133.211L17.171 141.544L17.5715 142.579L21.6816 147.596L31.7061 146.931L23.7191 143.817L20.8807 141.659L19.7806 138.095C19.7806 138.095 20.115 132.599 16.9422 133.211Z" fill="#FFBF9D"/>
<path d="M17.6375 142.773H15.182C15.182 142.773 11.9959 137.527 9.08278 139.311L9.75166 140.346C9.75166 140.346 8.43149 139.751 7.60419 140.857L15.6396 147.904H16.0093L24.5684 147.353L17.6375 142.773Z" fill="#FFBF9D"/>
<path d="M19.0941 144.367C18.8645 144.389 18.6338 144.398 18.4032 144.394C17.8222 144.399 17.2475 144.514 16.709 144.733L16.6298 144.772L16.577 144.698C16.3261 144.345 16.0225 143.971 15.6968 143.579C15.05 142.773 14.4603 142.046 13.9674 141.438C13.7152 141.154 13.4871 140.849 13.2853 140.527C13.586 140.766 13.859 141.037 14.0994 141.337C14.5703 141.861 15.2084 142.597 15.8861 143.438C16.2029 143.834 16.5022 144.209 16.7662 144.583L16.6298 144.548C17.1969 144.322 17.8076 144.227 18.4164 144.27C18.6465 144.258 18.8767 144.291 19.0941 144.367Z" fill="#FF9A6C"/>
<path d="M36.4587 139.518C35.489 139.848 34.5448 140.248 33.6335 140.716C32.7648 141.26 31.9381 141.868 31.1604 142.535C31.3216 142.277 31.522 142.045 31.7545 141.848C32.2834 141.335 32.8748 140.891 33.5147 140.527C34.1562 140.161 34.8406 139.877 35.5522 139.681C35.8434 139.577 36.1496 139.522 36.4587 139.518Z" fill="#FF9A6C"/>
<path d="M28.4497 137.36C28.1031 137.857 27.7191 138.326 27.3011 138.765C26.9419 139.255 26.5446 139.716 26.113 140.143C26.3602 139.581 26.7026 139.065 27.1251 138.62C27.4912 138.127 27.9393 137.701 28.4497 137.36Z" fill="#FF9A6C"/>
<path d="M20.0798 145.53C20.0111 145.473 19.9477 145.409 19.8906 145.341L19.3713 144.764L18.566 143.839L18.0643 143.262C17.8663 143.049 17.6839 142.822 17.5187 142.583C17.1472 142.016 16.947 141.354 16.9422 140.676C16.9422 139.967 16.9114 139.21 16.8982 138.412C16.8718 136.814 16.841 135.056 16.8102 133.211V133.11H16.9026L17.171 133.074C17.4667 133.039 17.7665 133.073 18.0473 133.172C18.3281 133.271 18.5823 133.434 18.7904 133.647C19.1632 134.063 19.4344 134.561 19.5825 135.1C19.8406 136.079 19.9416 137.093 19.8818 138.104V138.069C20.291 139.417 20.6519 140.623 20.9599 141.636L20.9291 141.597L22.993 143.213L23.543 143.654C23.609 143.701 23.6695 143.756 23.7235 143.817C23.7235 143.817 23.6487 143.781 23.5166 143.689L22.9446 143.279L20.8367 141.72V141.694C20.5199 140.685 20.1414 139.491 19.7146 138.139V138.104C19.7636 137.117 19.6582 136.129 19.4021 135.175C19.272 134.668 19.0248 134.199 18.6804 133.805C18.4952 133.617 18.269 133.473 18.0195 133.386C17.7699 133.299 17.5037 133.271 17.2414 133.303L16.9994 133.334L17.0918 133.22C17.1182 135.065 17.1402 136.822 17.1578 138.421C17.1754 140.02 16.9774 141.504 17.6991 142.513C17.843 142.742 18.0017 142.961 18.1744 143.169L18.6628 143.759C18.9621 144.121 19.2217 144.438 19.4373 144.706L19.9214 145.31C19.983 145.376 20.0362 145.45 20.0798 145.53Z" fill="#FF9A6C"/>
<path d="M16.0269 147.908C15.8706 147.923 15.7144 147.881 15.5868 147.789C15.2416 147.58 14.9251 147.327 14.6451 147.036C13.7294 146.086 12.8878 145.067 12.128 143.988C11.2214 142.729 10.4601 141.575 9.90127 140.725C9.63283 140.284 9.42161 139.95 9.28079 139.703C9.19526 139.583 9.12849 139.451 9.08276 139.311C9.18729 139.414 9.27891 139.529 9.3556 139.655L10.0377 140.632C10.6142 141.465 11.4019 142.61 12.3084 143.852C13.0637 144.926 13.8806 145.956 14.7551 146.935C15.0189 147.229 15.314 147.493 15.6352 147.723C15.76 147.797 15.8911 147.859 16.0269 147.908Z" fill="#FF9A6C"/>
<path d="M30.6499 142.531L26.2274 142.231L24.9072 138.606L24.6652 136.166C24.6135 135.589 24.3477 135.052 23.9202 134.66C23.4926 134.269 22.9342 134.052 22.3549 134.052H22.3109L22.5573 140.029L23.4682 143.742L27.0635 145.865H31.464L30.6499 142.531Z" fill="#FFBF9D"/>
<path d="M30.6499 142.531L26.2274 142.231L24.9072 138.606L24.6652 136.166C24.6135 135.589 24.3477 135.052 23.9202 134.66C23.4926 134.269 22.9342 134.052 22.3549 134.052H22.3109L22.5573 140.029L23.4682 143.742L27.0635 145.865" fill="#FFBF9D"/>
<path d="M27.0635 145.865C26.9732 145.83 26.8863 145.787 26.8038 145.737L26.0821 145.336L23.4418 143.812H23.411V143.782C23.1426 142.716 22.8301 141.456 22.4825 140.073V140.051C22.4033 138.254 22.3153 136.224 22.2228 134.074V133.96H22.3373C22.3769 133.96 22.4253 133.96 22.4693 133.96C23.0012 133.979 23.5121 134.172 23.9233 134.51C24.3345 134.849 24.623 135.313 24.7444 135.832C24.7963 136.071 24.8301 136.314 24.8456 136.558L24.9116 137.263C24.96 137.703 24.9996 138.179 25.0436 138.615V138.589C25.5277 139.941 25.9633 141.165 26.3638 142.227L26.289 142.17L29.5234 142.425L30.4035 142.509C30.5059 142.513 30.6076 142.528 30.7071 142.553C30.6047 142.563 30.5015 142.563 30.3991 142.553L29.519 142.513L26.2846 142.332H26.1833V142.284C25.7917 141.227 25.3428 140.007 24.8632 138.664V138.637C24.8192 138.197 24.7708 137.756 24.7224 137.285C24.7004 137.052 24.674 136.818 24.6519 136.58C24.636 136.346 24.6037 136.114 24.5551 135.884C24.4445 135.414 24.1825 134.994 23.8096 134.687C23.4367 134.381 22.9735 134.206 22.4913 134.189H22.3108L22.4209 134.07C22.5045 136.215 22.5881 138.25 22.6585 140.047C22.9929 141.434 23.2922 142.689 23.5386 143.764L23.499 143.711L26.1129 145.297L26.817 145.737C26.9044 145.769 26.9872 145.812 27.0635 145.865Z" fill="#FF9A6C"/>
<path d="M125.381 72.003C121.592 57.5434 118.093 40.7318 96.9664 42.2293C96.9664 42.2293 83.9495 44.7354 77.7711 54.3502C74.1319 60.0054 70.9811 84.3882 70.3562 103.644C70.3298 104.428 70.6554 109.894 70.6334 110.66L126.547 115.32H136.637C136.637 115.32 136.008 105.106 132.972 95.1966C130.001 85.5642 126.723 77.1033 125.381 72.003Z" fill="#263238"/>
<path d="M94.1589 47.7392L95.479 46.4751L109.759 52.236C110.756 52.2917 111.695 52.7193 112.393 53.4343C113.09 54.1494 113.494 55.1 113.526 56.0987L113.398 102.671C113.398 105.829 112.786 108.564 110.881 111.079L108.874 113.721C104.302 119.764 94.8938 119.267 91.2721 112.611C91.0541 112.232 90.8855 111.827 90.7704 111.405C90.6794 111.062 90.6074 110.715 90.5548 110.365C90.1148 106.617 90.1148 103.367 90.1148 103.367C89.8595 99.253 89.7759 97.5661 89.7759 97.6057C89.7759 97.6454 81.0276 96.5971 78.6645 85.3615C77.4895 79.7723 77.7096 72.0822 78.0396 64.5155C78.4885 54.0551 85.7494 47.7259 94.1589 47.7392Z" fill="#FFBF9D"/>
<path d="M97.8333 71.9987C97.8493 72.3772 98.0124 72.7345 98.2877 72.9945C98.5631 73.2545 98.929 73.3966 99.3075 73.3905C99.4928 73.3964 99.6775 73.365 99.8505 73.2982C100.023 73.2314 100.181 73.1305 100.315 73.0016C100.448 72.8726 100.554 72.7182 100.627 72.5474C100.699 72.3767 100.737 72.1931 100.738 72.0075C100.722 71.6293 100.559 71.2722 100.285 71.0117C100.011 70.7511 99.646 70.6075 99.2679 70.6113C99.082 70.6054 98.8968 70.6369 98.7232 70.7039C98.5497 70.771 98.3914 70.8721 98.2576 71.0015C98.1238 71.1309 98.0174 71.2858 97.9445 71.4571C97.8716 71.6283 97.8338 71.8125 97.8333 71.9987Z" fill="#263238"/>
<path d="M82.9242 72.3861C82.938 72.765 83.0996 73.1235 83.3744 73.3845C83.6491 73.6455 84.0152 73.7883 84.394 73.7823C84.5794 73.7876 84.764 73.7558 84.9369 73.6888C85.1099 73.6219 85.2678 73.5211 85.4014 73.3923C85.535 73.2635 85.6415 73.1094 85.7149 72.9389C85.7882 72.7684 85.8269 72.585 85.8286 72.3993C85.8137 72.02 85.6511 71.6616 85.3756 71.4007C85.1001 71.1398 84.7336 70.9971 84.3544 71.0031C84.169 70.9972 83.9844 71.0286 83.8114 71.0954C83.6384 71.1622 83.4806 71.2631 83.3472 71.3921C83.2139 71.521 83.1077 71.6754 83.035 71.8462C82.9624 72.0169 82.9247 72.2005 82.9242 72.3861Z" fill="#263238"/>
<path d="M79.527 67.5195C79.7162 67.7 80.7724 66.828 82.3346 66.7575C83.8968 66.687 85.0805 67.4049 85.2433 67.1979C85.3226 67.1098 85.1201 66.7575 84.6053 66.436C83.9042 66.0024 83.087 65.7948 82.2642 65.8414C81.452 65.8776 80.673 66.1741 80.0419 66.687C79.5798 67.0878 79.4302 67.4402 79.527 67.5195Z" fill="#263238"/>
<path d="M95.017 66.9733C95.2238 67.1318 96.1919 66.1584 97.7365 65.925C99.2811 65.6916 100.535 66.2906 100.672 66.0748C100.742 65.9779 100.509 65.6652 99.9588 65.3833C99.2186 65.0242 98.386 64.9012 97.5737 65.0309C96.7683 65.1527 96.0225 65.5275 95.4438 66.1012C95.0302 66.5328 94.9202 66.916 95.017 66.9733Z" fill="#263238"/>
<path d="M89.9211 79.0589C89.9211 78.9709 88.9442 78.8519 87.36 78.7286C86.9595 78.7066 86.5767 78.6493 86.4799 78.3807C86.4238 77.9695 86.496 77.5511 86.6867 77.1827C87.0123 76.1961 87.3556 75.1655 87.712 74.0996C89.1334 69.6952 90.1411 66.0748 89.9651 66.0175C89.7891 65.9603 88.4909 69.4926 87.0695 73.9014C86.7263 74.9893 86.4007 76.0243 86.0926 77.0153C85.965 77.4778 85.7318 78.0063 85.965 78.5921C86.0291 78.7299 86.124 78.8512 86.2422 78.9466C86.3604 79.042 86.4989 79.1091 86.6471 79.1426C86.8711 79.191 87.1002 79.2118 87.3292 79.2043C88.9354 79.1911 89.9167 79.1514 89.9211 79.0589Z" fill="#263238"/>
<path d="M89.7671 97.6145C95.1034 97.4304 100.284 95.7652 104.729 92.8049C104.729 92.8049 101.314 100.839 89.9343 100.35L89.7671 97.6145Z" fill="#FF9A6C"/>
<path d="M94.8013 82.2387C94.573 81.9762 94.2938 81.7627 93.9807 81.6113C93.6675 81.4599 93.3269 81.3737 92.9795 81.3579C91.9982 81.3006 91.3073 81.4239 90.7792 82.1991C90.6763 82.3905 90.6134 82.601 90.5945 82.8176C90.5756 83.0342 90.601 83.2523 90.6692 83.4587C90.7836 83.6393 90.7 83.6437 90.876 83.7715C91.5144 84.2191 92.2355 84.535 92.9971 84.7008C93.754 84.8726 94.6253 84.7008 95.017 84.0798C95.1716 83.7872 95.2337 83.4544 95.1952 83.1257C95.1567 82.7969 95.0194 82.4876 94.8013 82.2387Z" fill="#FF9A6C"/>
<path d="M94.6429 59.8072C94.8453 60.2036 96.1875 59.8072 97.8421 59.7631C99.4967 59.7191 100.874 60.0274 101.033 59.6178C101.103 59.424 100.812 59.0628 100.223 58.7369C99.4619 58.3405 98.6114 58.1478 97.7541 58.1776C96.9069 58.1949 96.0794 58.4365 95.3558 58.8779C94.8013 59.239 94.5549 59.6134 94.6429 59.8072Z" fill="#263238"/>
<path d="M79.7514 64.6916C80.0418 65.0308 81.1024 64.6079 82.3918 64.5287C83.6811 64.4494 84.7901 64.6432 85.0321 64.26C85.1333 64.075 84.9441 63.7271 84.4468 63.4143C83.7867 63.0362 83.0258 62.8716 82.2685 62.9431C81.5091 62.9925 80.7842 63.279 80.1959 63.7623C79.7514 64.1499 79.6194 64.5243 79.7514 64.6916Z" fill="#263238"/>
<path d="M113.24 75.9757C113.24 75.9757 107.229 77.4292 98.7178 59.0408C95.8135 52.7822 90.1763 46.4751 90.1763 46.4751L95.457 45.7131C95.457 45.7131 111.233 50.1616 111.497 50.3598C111.761 50.558 115.48 58.5255 115.48 58.5255L113.24 75.9757Z" fill="#263238"/>
<path d="M111.268 75.2402C111.229 74.3945 112.104 72.3553 112.927 72.1835C115.128 71.7431 119.15 71.7034 119.471 77.3543C119.911 85.0752 112.074 83.9212 112.047 83.701C112.021 83.4808 111.409 78.1515 111.268 75.2402Z" fill="#FFBF9D"/>
<path d="M114.239 80.6268C114.269 80.6004 114.375 80.7149 114.608 80.8074C114.937 80.9254 115.298 80.9112 115.616 80.7678C116.413 80.4242 117.024 79.0897 116.985 77.6847C116.965 77.0212 116.799 76.3702 116.501 75.7776C116.414 75.5408 116.272 75.3284 116.086 75.1589C115.9 74.9893 115.675 74.8676 115.431 74.8042C115.274 74.7718 115.111 74.7955 114.969 74.8711C114.828 74.9467 114.717 75.0696 114.657 75.2183C114.564 75.4385 114.626 75.5926 114.582 75.6058C114.538 75.6191 114.41 75.4869 114.454 75.1654C114.486 74.9711 114.584 74.7937 114.731 74.6633C114.831 74.5772 114.947 74.5118 115.073 74.4709C115.198 74.4301 115.331 74.4147 115.462 74.4255C115.782 74.4692 116.086 74.5947 116.345 74.7898C116.603 74.9849 116.806 75.2432 116.936 75.5398C117.301 76.191 117.501 76.921 117.521 77.6671C117.561 79.2262 116.848 80.7281 115.761 81.1113C115.558 81.1833 115.341 81.2088 115.126 81.186C114.911 81.1631 114.704 81.0924 114.52 80.9792C114.261 80.8294 114.195 80.6577 114.239 80.6268Z" fill="#FF9A6C"/>
<path d="M95.7959 82.5516C95.7739 82.7498 94.4537 82.719 92.8915 83.0229C91.3293 83.3268 90.1059 83.8157 90.0091 83.6439C89.9123 83.4721 91.0697 82.6617 92.7639 82.349C94.4581 82.0363 95.8311 82.3886 95.7959 82.5516Z" fill="#263238"/>
<path d="M156.084 142.385C156.084 142.385 162.544 136.849 164.418 136.699C166.293 136.549 171.213 137.47 171.213 137.47C171.213 137.47 174.324 137.496 175.869 137.302C177.481 137.046 179.129 137.127 180.709 137.54C181.176 137.681 181.761 138.84 180.388 139.632C179.807 139.967 174.157 140.35 174.157 140.35L188.291 144.389L186.456 145.904C186.208 146.11 185.898 146.227 185.576 146.235L165.241 146.957L164.308 149.234L156.084 142.385Z" fill="#FFBF9D"/>
<path d="M171.512 142.39H178.113C178.113 142.39 180.428 139.307 181.264 138.034C181.999 136.911 182.879 136.58 183.649 136.845C183.85 136.918 184.017 137.062 184.12 137.25C184.193 137.385 184.232 137.536 184.232 137.69C184.232 137.844 184.193 137.996 184.12 138.131L181.215 143.552L182.738 143.042C182.738 143.042 185.783 140.055 186.377 139.364C186.971 138.672 189.136 135.765 191.055 137.884L188.415 140.844L191.055 138.967C191.055 138.967 193.176 137.144 194.307 139.315L186.386 145.992" fill="#FFBF9D"/>
<path d="M164.638 139.646C164.722 139.605 164.811 139.574 164.902 139.553C165.158 139.467 165.422 139.407 165.69 139.373C166.688 139.239 167.703 139.345 168.652 139.681C169.315 139.91 169.953 140.205 170.557 140.562C170.883 140.756 171.213 140.967 171.547 141.201L172.049 141.557C172.207 141.672 172.405 141.822 172.533 141.892C174.205 142.02 176.119 142.134 178.122 142.275L178.025 142.315C178.645 141.579 179.253 140.778 179.842 139.945C180.075 139.619 180.282 139.289 180.507 138.963C180.731 138.637 180.92 138.298 181.158 137.99C181.385 137.67 181.644 137.375 181.932 137.109C182.079 136.981 182.24 136.87 182.412 136.779C182.596 136.673 182.808 136.625 183.019 136.642H182.98C183.162 136.611 183.348 136.618 183.527 136.661C183.706 136.704 183.875 136.783 184.023 136.893C184.154 137.018 184.254 137.173 184.315 137.345C184.375 137.516 184.394 137.699 184.37 137.88V137.902C183.112 140.157 182.016 142.121 181.171 143.627C181.079 143.906 180.927 144.161 180.725 144.374C180.524 144.587 180.278 144.753 180.005 144.861C179.611 145.025 179.19 145.114 178.764 145.125C178.502 145.139 178.239 145.139 177.976 145.125C177.885 145.128 177.793 145.119 177.704 145.098H177.976C178.152 145.098 178.416 145.098 178.76 145.068C179.174 145.043 179.58 144.946 179.961 144.781C180.212 144.675 180.438 144.515 180.622 144.314C180.807 144.112 180.946 143.874 181.03 143.614L184.164 137.831V137.871C184.182 137.726 184.167 137.578 184.119 137.44C184.07 137.301 183.991 137.176 183.886 137.074C183.63 136.896 183.314 136.826 183.006 136.88H182.971C182.816 136.877 182.664 136.919 182.531 136.999C182.371 137.079 182.223 137.182 182.091 137.303C181.813 137.55 181.563 137.828 181.347 138.131C180.907 138.747 180.511 139.452 180.027 140.086C179.433 140.928 178.821 141.725 178.192 142.469L178.157 142.513H178.1C176.084 142.363 174.209 142.249 172.484 142.095C172.288 141.991 172.102 141.867 171.93 141.725L171.433 141.368C171.107 141.135 170.781 140.928 170.465 140.729C169.874 140.374 169.249 140.079 168.599 139.848C167.672 139.504 166.678 139.378 165.694 139.478C165.43 139.506 165.168 139.553 164.911 139.619C164.821 139.635 164.73 139.643 164.638 139.646Z" fill="#FF9A6C"/>
<path d="M191.068 137.884C191.001 138.016 190.915 138.138 190.813 138.245C190.632 138.47 190.373 138.791 190.043 139.179C189.391 139.963 188.476 141.033 187.451 142.205C186.425 143.376 185.545 144.486 184.784 145.182C184.492 145.464 184.174 145.718 183.834 145.94C183.713 146.029 183.575 146.092 183.429 146.125C183.541 146.03 183.661 145.943 183.785 145.865C184.097 145.619 184.391 145.351 184.665 145.063C185.383 144.35 186.219 143.218 187.266 142.059C188.313 140.901 189.229 139.831 189.906 139.073L190.725 138.192C190.825 138.075 190.941 137.971 191.068 137.884Z" fill="#FF9A6C"/>
<path d="M187.446 138.192C187.213 138.534 186.945 138.85 186.645 139.135C186.131 139.699 185.405 140.456 184.595 141.302C183.93 141.989 183.31 142.623 182.835 143.103C182.31 143.316 181.762 143.463 181.202 143.544C181.343 143.473 181.49 143.415 181.642 143.372L182.795 142.931L182.76 142.954C183.235 142.443 183.842 141.804 184.52 141.121C185.33 140.284 186.073 139.536 186.619 139.003C186.872 138.71 187.148 138.439 187.446 138.192Z" fill="#FF9A6C"/>
<path d="M134.182 109.52C134.182 109.52 143.67 111.969 144.598 124.873C145.131 132.229 141.218 155.85 141.218 155.85L155.23 141.447L167.719 150.141C167.719 150.141 150.719 170.917 146.812 174.057C142.904 177.198 136.637 182.21 134.613 181.8C132.589 181.391 132.58 172.018 132.58 172.018V120.266L134.182 109.52Z" fill="#FF725E"/>
<path d="M65.9733 111.101C65.9733 111.101 57.533 113.88 57.8674 130.396C58.2019 146.913 57.9423 152.458 57.9423 152.458L45.2906 139.056L34.7909 150.657C34.7909 150.657 46.5492 168.142 54.7739 176.643C62.5276 184.645 69.4189 177.695 71.6588 172.066C73.4718 167.508 74.9328 150.172 74.9328 150.172L65.9733 111.101Z" fill="#FF725E"/>
<g opacity="0.3">
<path opacity="0.3" d="M134.917 139.249C135.683 134.405 135.885 129.159 133.68 124.715C128.272 138.095 128.514 153.462 130.45 167.64L134.736 179.906C137.438 171.688 134.873 162.932 134.93 154.361C134.965 149.476 134.156 144.081 134.917 139.249Z" fill="black"/>
</g>
<path d="M64.2174 121.61C64.2174 121.61 69.8589 159.593 70.9503 162.919C72.0416 166.244 72.0416 176.048 72.0416 176.048C72.0416 176.048 66.1229 187.086 65.7576 194.754L137.078 194.903L132.444 163.381C132.296 161.391 132.261 159.394 132.338 157.4C132.637 151.846 133.064 139.941 134.657 132.621C136.505 124.112 134.015 109.551 134.015 109.551L112.712 104.296C107.669 111.55 95.1094 111.647 90.1279 104.296L66.0832 111.101L64.2174 121.61Z" fill="#FF725E"/>
<path d="M133.843 161.875C133.895 161.751 133.966 161.636 134.054 161.536C134.204 161.329 134.428 161.029 134.71 160.655C135.442 159.7 136.261 158.815 137.157 158.012C138.068 157.228 139.084 156.574 140.176 156.07C140.616 155.885 140.941 155.744 141.183 155.665C141.307 155.611 141.437 155.574 141.571 155.554C141.619 155.647 139.41 156.356 137.306 158.197C136.425 158.991 135.599 159.845 134.833 160.752C134.53 161.149 134.199 161.524 133.843 161.875Z" fill="#263238"/>
<path d="M67.7995 161.069C67.7555 161.069 67.5926 160.298 67.0514 159.14C66.3538 157.627 65.3348 156.285 64.0655 155.207C62.7962 154.129 61.3072 153.341 59.7024 152.898C58.4703 152.555 57.6694 152.52 57.6782 152.458C57.8637 152.435 58.0515 152.435 58.237 152.458C58.7448 152.502 59.2482 152.587 59.742 152.714C61.39 153.12 62.9218 153.902 64.2174 154.999C65.5064 156.102 66.5268 157.485 67.201 159.043C67.404 159.511 67.5703 159.994 67.6982 160.487C67.7576 160.676 67.7916 160.871 67.7995 161.069Z" fill="#263238"/>
<path d="M68.2572 140.487C68.1396 140.447 68.0295 140.387 67.9315 140.311C67.7335 140.187 67.4519 139.994 67.113 139.738C66.2366 139.073 65.4167 138.337 64.6619 137.536C63.9116 136.736 63.2078 135.893 62.554 135.012C62.262 134.661 62.0056 134.282 61.7883 133.88C62.1058 134.203 62.3999 134.547 62.6684 134.911C63.2053 135.558 63.9446 136.448 64.8203 137.377C65.5698 138.169 66.3663 138.915 67.2054 139.61C67.572 139.883 67.9231 140.175 68.2572 140.487Z" fill="#263238"/>
<path d="M118.041 161.047C118.041 161.047 118.041 161.077 117.983 161.135L117.799 161.377C117.623 161.584 117.389 161.91 117.046 162.289C116.093 163.378 115.064 164.398 113.966 165.341C112.329 166.746 110.586 168.021 108.751 169.155C106.511 170.533 104.197 171.788 101.82 172.912C99.2943 174.114 96.8564 175.185 94.6473 176.18C92.4382 177.176 90.4624 178.087 88.8298 178.911C87.1972 179.734 85.8946 180.439 85.0057 180.95C84.5656 181.197 84.2224 181.391 83.9891 181.54L83.7207 181.69C83.6591 181.721 83.6283 181.738 83.6239 181.734C83.6481 181.709 83.6764 181.688 83.7075 181.672L83.9627 181.501C84.1916 181.355 84.5216 181.135 84.9617 180.871C85.8418 180.338 87.1268 179.602 88.755 178.766C90.3832 177.929 92.359 177.004 94.5637 175.986C96.7684 174.969 99.2019 173.907 101.719 172.705C104.09 171.583 106.4 170.338 108.641 168.975C110.469 167.86 112.211 166.61 113.851 165.235C114.959 164.308 116.004 163.309 116.98 162.245C117.332 161.879 117.579 161.562 117.759 161.364L117.966 161.139L118.041 161.047Z" fill="#263238"/>
<path d="M65.9205 194.159V194.066C65.9205 193.992 65.9205 193.904 65.9205 193.789C65.9205 193.534 65.9601 193.177 65.9865 192.714C66.1561 191.375 66.4253 190.05 66.7918 188.75C68.144 184.197 69.9854 179.804 72.2837 175.647V175.705C71.9976 171.573 71.5708 166.957 71.0779 162.104C70.1362 152.934 69.1505 144.654 68.4376 138.655C68.0767 135.669 67.7819 133.246 67.5575 131.559C67.4607 130.731 67.3859 130.079 67.3286 129.626L67.2758 129.124C67.27 129.067 67.27 129.009 67.2758 128.952C67.2938 129.006 67.3056 129.062 67.3111 129.119C67.3287 129.243 67.3551 129.41 67.3903 129.621C67.4519 130.062 67.5443 130.718 67.6587 131.546C67.8831 133.233 68.2 135.651 68.596 138.637C69.3573 144.627 70.3562 152.907 71.3112 162.077C71.804 166.922 72.2265 171.556 72.4949 175.691V175.722V175.749C70.195 179.888 68.3351 184.258 66.9458 188.786C66.5616 190.078 66.2676 191.395 66.0657 192.728C66.0261 193.168 65.9909 193.542 65.9689 193.793C65.9689 193.908 65.9689 194 65.9381 194.071C65.9365 194.101 65.9305 194.131 65.9205 194.159Z" fill="#263238"/>
<path d="M135.533 122.495C135.54 122.558 135.54 122.622 135.533 122.685C135.533 122.821 135.533 123.002 135.533 123.239C135.533 123.724 135.533 124.442 135.493 125.362C135.445 127.208 135.256 129.872 134.926 133.158C134.596 136.444 134.129 140.342 133.645 144.676C133.161 149.01 132.686 153.78 132.536 158.809C132.432 163.535 132.757 168.259 133.509 172.925C134.142 177.242 134.89 181.096 135.467 184.346C136.043 187.596 136.492 190.226 136.739 192.054C136.871 192.97 136.946 193.683 136.998 194.163C136.998 194.397 137.038 194.604 137.051 194.714C137.057 194.777 137.057 194.84 137.051 194.903C137.033 194.843 137.021 194.781 137.016 194.718C137.016 194.582 136.972 194.401 136.937 194.172C136.871 193.688 136.783 192.979 136.633 192.067C136.365 190.244 135.907 187.614 135.313 184.372C134.719 181.131 133.949 177.277 133.302 172.956C132.537 168.278 132.204 163.54 132.307 158.801C132.461 153.762 132.95 148.988 133.438 144.654C133.927 140.32 134.428 136.422 134.758 133.141C135.088 129.859 135.317 127.203 135.397 125.358C135.454 124.437 135.458 123.724 135.476 123.239C135.476 123.002 135.476 122.821 135.476 122.685C135.489 122.62 135.508 122.556 135.533 122.495Z" fill="#263238"/>
<g opacity="0.3">
<path opacity="0.3" d="M67.4826 130.634C66.2662 142.798 67.6754 155.082 71.6148 166.653L67.4826 130.634Z" fill="black"/>
</g>
<g opacity="0.3">
<path opacity="0.3" d="M111.598 172.718C106.194 177.687 100.773 181.932 94.1237 184.298C99.1359 184.738 104.192 182.804 108.065 179.594C111.937 176.383 114.696 172.987 116.47 168.292L111.598 172.718Z" fill="black"/>
</g>
<path d="M105.442 178.189C105.398 178.145 108.76 175.057 112.949 171.296C117.139 167.534 120.571 164.526 120.611 164.575C120.65 164.623 117.293 167.706 113.103 171.467C108.914 175.229 105.486 178.237 105.442 178.189Z" fill="#263238"/>
<path d="M117.394 84.9784C117.394 85.5247 117.232 86.0588 116.929 86.513C116.625 86.9673 116.194 87.3212 115.69 87.5301C115.185 87.739 114.63 87.7934 114.095 87.6865C113.559 87.5796 113.068 87.3162 112.682 86.9295C112.296 86.5429 112.034 86.0504 111.928 85.5144C111.822 84.9784 111.877 84.423 112.087 83.9185C112.296 83.414 112.651 82.983 113.105 82.6801C113.559 82.3771 114.093 82.2159 114.639 82.2168C115.001 82.2168 115.36 82.2883 115.694 82.4271C116.029 82.5659 116.333 82.7694 116.589 83.0259C116.844 83.2824 117.047 83.5869 117.185 83.9219C117.324 84.2569 117.394 84.6159 117.394 84.9784Z" fill="#455A64"/>
<path d="M133.812 121.244C133 114.491 132.187 107.737 131.374 100.984L113.926 95.6987C113.587 107.749 111.479 121.279 108.452 132.947C114.906 135.038 121.728 135.749 128.474 135.034C128.768 131.775 129.061 128.516 129.355 125.257C129.789 127.714 130.229 130.17 130.675 132.625C132.505 131.599 133.584 129.542 133.949 127.485C134.314 125.428 134.063 123.35 133.812 121.244Z" fill="#263238"/>
<path d="M120.157 135.127C120.157 135.127 120.157 135.043 120.21 134.876C120.263 134.708 120.307 134.435 120.382 134.131C120.536 133.471 120.76 132.511 121.051 131.282C121.623 128.802 122.468 125.221 123.291 120.751C124.295 115.517 124.93 110.218 125.192 104.895C125.527 98.3845 124.934 91.8592 123.431 85.5158C121.944 79.1587 119.192 73.1668 115.339 67.8982C114.899 67.3036 114.459 66.7002 113.966 66.1364C113.473 65.5727 113.037 65.0221 112.54 64.5156L111.814 63.7448L111.075 63.0093C110.591 62.516 110.089 62.0624 109.605 61.6043C107.647 59.7897 105.732 58.1953 104.021 56.6978C102.309 55.2003 100.782 53.8217 99.5143 52.5313C99.1931 52.2097 98.9027 51.8838 98.6342 51.5843C98.3658 51.2848 98.071 50.9809 97.8245 50.7034C97.5781 50.4259 97.3273 50.1308 97.0984 49.8622L96.478 49.0694C96.0731 48.5761 95.7695 48.1004 95.4834 47.6996C95.1974 47.2988 94.9862 46.9465 94.8146 46.6558L94.4273 46.0039C94.3393 45.8542 94.2997 45.7749 94.2997 45.7749C94.2997 45.7749 94.3525 45.8454 94.4493 45.9907L94.8542 46.6338C95.0302 46.9156 95.2502 47.268 95.5406 47.66C95.8311 48.052 96.1391 48.5409 96.5484 49.0165L97.1733 49.8005L97.9037 50.633C98.1546 50.928 98.4274 51.2231 98.7222 51.5138C99.0171 51.8045 99.3031 52.1393 99.6288 52.452C100.896 53.7336 102.432 55.0946 104.148 56.5877C105.864 58.0808 107.783 59.6708 109.754 61.4766C110.239 61.917 110.749 62.3927 111.233 62.8816L111.977 63.6171L112.707 64.3923C113.209 64.8988 113.662 65.467 114.142 66.0175C114.621 66.5681 115.07 67.1671 115.532 67.7793C119.402 73.0692 122.163 79.0871 123.651 85.4717C125.163 91.8376 125.756 98.3874 125.412 104.922C125.139 110.247 124.486 115.545 123.458 120.777C122.613 125.252 121.746 128.829 121.148 131.304C120.844 132.537 120.602 133.506 120.435 134.145C120.351 134.462 120.285 134.704 120.241 134.88C120.197 135.056 120.157 135.127 120.157 135.127Z" fill="#455A64"/>
</g>
<defs>
<clipPath id="clip0_119_384">
<rect width="197" height="196" fill="white"/>
</clipPath>
</defs>
</svg>
